# Blender v2.79 (sub 0) OBJ File: 'env.blend'
# www.blender.org
o Sphere_Sphere.001
v 0.039830 1.923933 -1.855813
v 0.225615 2.107654 -0.951269
v 1.090352 2.018377 -1.464971
v 0.012695 -1.967530 -1.588656
v 0.948968 -2.034913 -1.268569
v 0.000000 -0.951144 -2.296265
v -0.013150 0.438439 -2.795904
v 1.635898 0.565438 -2.261243
v 1.349711 -0.951144 -1.857718
v 0.000000 1.231681 -2.618687
v 1.539225 1.305505 -2.118562
v 0.000000 1.839490 0.000000
v -0.021444 -2.256079 1.937415
v -0.030399 -2.252759 -1.965186
v 1.676276 -2.316454 -1.176721
v 2.656091 0.521379 -0.869832
v 2.183877 -0.951144 -0.709585
v 1.929508 1.882988 -0.626935
v 2.490519 1.305505 -0.809219
v 0.988131 2.153344 -0.010278
v 1.504935 -2.035889 -0.490720
v 1.520043 2.104600 0.005805
v 1.911399 -2.317790 0.630928
v 2.183877 -0.951144 0.709584
v 1.513945 -2.035149 0.478963
v 2.490519 1.305505 0.809218
v 2.654748 0.543217 0.870636
v 1.929508 1.882988 0.626935
v 1.539225 1.305505 2.118562
v 1.641897 0.575931 2.259890
v 0.245239 2.110810 0.951899
v 1.049932 2.012605 1.482762
v 0.948499 -2.034260 1.269575
v 1.349711 -0.951144 1.857717
v 1.169699 -2.317790 1.651792
v 0.012467 -1.968021 1.588181
v -0.012697 0.437113 2.795577
v 0.000000 -0.951144 2.296265
v -0.004159 1.891617 1.910888
v 0.000000 1.231680 2.618687
v -1.100845 1.968765 1.460617
v -1.539225 1.258257 2.118562
v -0.812415 2.109127 0.557426
v -1.720821 -2.344652 1.069643
v -1.434757 -0.951144 1.857717
v -0.864105 -2.043592 1.287087
v -1.751460 0.464431 2.246229
v -2.268924 -0.951144 0.709585
v -1.445254 -2.045471 0.492063
v -2.490519 1.258257 0.809219
v -2.755515 0.479601 0.842213
v -1.790421 1.939300 0.548554
v -0.770357 2.089997 -0.607113
v -1.618526 1.999582 -0.674775
v -1.442791 -2.044872 -0.496031
v -2.742315 0.492041 -0.863963
v -2.268924 -0.951144 -0.709585
v -2.490519 1.258257 -0.809219
v -1.638746 -2.342225 -1.131329
v -0.864300 -2.044115 -1.286506
v -1.751987 0.465127 -2.245849
v -1.434757 -0.951144 -1.857718
v -1.192501 1.809163 -1.641338
v -1.539225 1.231680 -2.118562
v -0.085766 1.384943 -0.099944
v 0.281612 8.728814 -0.099942
v 0.376546 8.724065 -0.030882
v 0.009168 1.380194 -0.030884
v 0.340284 8.725880 0.080859
v -0.027094 1.382008 0.080857
v 0.222939 8.731749 0.080859
v -0.144438 1.387878 0.080857
v 0.186678 8.733563 -0.030882
v -0.180700 1.389692 -0.030884
vt 0.369891 0.542171
vt 0.343775 0.571286
vt 0.334589 0.535810
vt 0.725497 0.828992
vt 0.779812 0.403538
vt 0.954771 0.513671
vt 0.432745 0.532753
vt 0.401351 0.591245
vt 0.954771 0.714009
vt 0.476481 0.596545
vt 0.859542 0.814826
vt 0.448275 0.650912
vt 0.524014 0.660950
vt 0.507291 0.487429
vt 0.429864 0.461171
vt 0.218397 0.611495
vt 0.208403 0.537762
vt 0.272655 0.534565
vt 0.287549 0.589503
vt 0.445566 0.408611
vt 0.392953 0.426932
vt 0.377812 0.494966
vt 0.552327 0.710317
vt 0.592445 0.471604
vt 0.386859 0.611341
vt 0.391384 0.643253
vt 0.355571 0.610972
vt 0.311407 0.581906
vt 0.300103 0.534696
vt 0.116118 0.637284
vt 0.100100 0.535165
vt 0.308874 0.643032
vt 0.249373 0.678498
vt 0.332834 0.627991
vt 0.159579 0.727057
vt 0.210452 0.813217
vt 0.292811 0.743201
vt 0.351267 0.691752
vt 0.371826 0.669006
vt 0.414606 0.735270
vt 0.431351 0.701923
vt 0.353579 0.807291
vt 0.275384 0.882233
vt 0.507386 0.794695
vt 0.429074 0.877293
vt 0.526318 0.736142
vt 0.343585 0.936832
vt 0.431234 0.354912
vt 0.530580 0.325936
vt 0.527298 0.403790
vt 0.268369 0.149228
vt 0.359189 0.108609
vt 0.435152 0.178899
vt 0.352371 0.249874
vt 0.406096 0.320088
vt 0.512647 0.264793
vt 0.177816 0.223463
vt 0.287515 0.315377
vt 0.369658 0.392063
vt 0.344769 0.369034
vt 0.361340 0.464800
vt 0.239566 0.384285
vt 0.305494 0.420178
vt 0.329777 0.436051
vt 0.124592 0.326078
vt 0.280747 0.472879
vt 0.214220 0.458077
vt 0.331109 0.491949
vt 0.305669 0.483591
vt 0.095215 0.435487
vt 0.059739 0.535058
vt 0.059739 0.359350
vt 0.170133 0.154272
vt 0.350501 0.070103
vt 0.331901 0.968837
vt 0.247489 0.918347
vt 0.180262 0.840295
vt 0.096434 0.700266
vt 0.508411 0.093365
vt 0.984264 0.093365
vt 0.984275 0.101670
vt 0.508423 0.101670
vt 0.984287 0.109976
vt 0.508435 0.109976
vt 0.508376 0.068447
vt 0.984228 0.068447
vt 0.984240 0.076753
vt 0.508388 0.076753
vt 0.518778 0.122381
vt 0.510832 0.122381
vt 0.508376 0.114823
vt 0.514805 0.110152
vt 0.521234 0.114823
vt 0.984252 0.085059
vt 0.508399 0.085059
vn -0.0429 0.9986 -0.0325
vn 0.2537 0.8888 -0.3818
vn -0.0252 0.8706 -0.4913
vn -0.0972 -0.2839 0.9539
vn -0.0375 -0.2972 -0.9541
vn 0.7861 -0.2141 -0.5798
vn -0.0266 0.9996 -0.0060
vn -0.0388 0.9992 0.0005
vn 0.9219 -0.2882 0.2590
vn -0.0255 0.9990 0.0370
vn 0.5270 -0.2974 0.7961
vn 0.2447 0.8896 0.3856
vn -0.0199 0.8610 0.5083
vn -0.0144 0.9998 0.0171
vn 0.5301 -0.4305 -0.7305
vn 0.0089 -0.4402 -0.8979
vn 0.0014 -0.0572 -0.9984
vn 0.5849 -0.0394 -0.8102
vn -0.2738 0.8816 0.3844
vn -0.4634 0.8760 0.1335
vn -0.0119 0.9994 -0.0334
vn -0.8314 -0.2473 0.4976
vn -0.8039 -0.2413 -0.5437
vn 0.2600 0.9656 0.0032
vn 0.5367 0.8232 0.1854
vn 0.5416 0.8205 -0.1828
vn 0.5047 0.4818 -0.7163
vn -0.0063 0.4754 -0.8798
vn 0.5440 0.1723 -0.8212
vn 0.0067 0.0981 -0.9952
vn 0.9492 -0.0503 -0.3108
vn 0.8603 -0.4258 -0.2803
vn 0.8391 0.4701 -0.2736
vn 0.9492 0.1901 -0.2508
vn 0.9435 0.1997 0.2644
vn 0.8605 -0.4253 0.2806
vn 0.9493 -0.0454 0.3109
vn 0.8372 0.4740 0.2727
vn 0.5863 -0.0367 0.8092
vn 0.5043 0.4847 0.7147
vn 0.5308 -0.4298 0.7304
vn 0.5829 0.2340 0.7781
vn 0.0019 -0.0584 0.9983
vn 0.0091 -0.4400 0.8980
vn -0.0049 0.4758 0.8796
vn -0.0334 0.1203 0.9922
vn -0.4936 0.5024 0.7099
vn -0.5372 0.1222 0.8346
vn -0.5219 -0.4563 0.7207
vn -0.5960 -0.0306 0.8024
vn -0.9716 0.0919 0.2179
vn -0.8421 -0.4669 0.2700
vn -0.8049 0.5312 0.2647
vn -0.9544 -0.0062 0.2984
vn -0.4064 0.8977 -0.1699
vn -0.8420 -0.4663 -0.2713
vn -0.9517 -0.0017 -0.3071
vn -0.8054 0.5301 -0.2653
vn -0.9695 0.0784 -0.2321
vn -0.5961 -0.0281 -0.8024
vn -0.5221 -0.4561 -0.7207
vn -0.3134 0.8334 -0.4552
vn -0.4938 0.4989 -0.7123
vn -0.5435 0.1478 -0.8263
vn -0.0000 0.0000 -1.0000
vn 0.0298 0.5950 -0.8032
vn 0.7927 0.5568 -0.2482
vn 0.9499 -0.0475 -0.3090
vn 0.5013 0.5714 0.6498
vn 0.5870 -0.0294 0.8090
vn -0.4418 0.6185 0.6498
vn -0.5871 0.0294 0.8090
vn -0.7332 0.6331 -0.2482
vn -0.9499 0.0475 -0.3090
s 1
f 2/1/1 3/2/2 1/3/3
f 13/4/4 14/5/5 15/6/6
f 2/1/1 12/7/7 20/8/8
f 13/4/4 15/6/6 23/9/9
f 20/8/8 12/7/7 31/10/10
f 13/4/4 23/9/9 35/11/11
f 32/12/12 31/10/10 39/13/13
f 31/14/10 12/7/7 43/15/14
f 9/16/15 6/17/16 7/18/17 8/19/18
f 41/20/19 43/15/14 52/21/20
f 43/15/14 12/7/7 53/22/21
f 13/4/4 44/23/22 59/24/23
f 53/22/21 12/7/7 2/1/1
f 13/4/4 59/24/23 14/5/5
f 22/25/24 28/26/25 18/27/26
f 11/28/27 10/29/28 1/3/3 3/2/2
f 9/16/15 5/30/29 4/31/30 6/17/16
f 8/19/18 7/18/17 10/29/28 11/28/27
f 16/32/31 17/33/32 9/16/15 8/19/18
f 19/34/33 11/28/27 3/2/2 18/27/26
f 17/33/32 21/35/34 5/30/29 9/16/15
f 16/32/31 8/19/18 11/28/27 19/34/33
f 20/8/8 22/25/24 3/2/2 2/1/1
f 25/36/35 21/35/34 17/33/32 24/37/36
f 27/38/37 16/32/31 19/34/33 26/39/38
f 24/37/36 17/33/32 16/32/31 27/38/37
f 26/39/38 19/34/33 18/27/26 28/26/25
f 30/40/39 27/38/37 26/39/38 29/41/40
f 31/10/10 32/12/12 22/25/24 20/8/8
f 34/42/41 24/37/36 27/38/37 30/40/39
f 29/41/40 26/39/38 28/26/25 32/12/12
f 33/43/42 25/36/35 24/37/36 34/42/41
f 37/44/43 38/45/44 34/42/41 30/40/39
f 39/13/13 40/46/45 29/41/40 32/12/12
f 36/47/46 33/43/42 34/42/41 38/45/44
f 40/46/45 37/44/43 30/40/39 29/41/40
f 42/48/47 40/49/45 39/50/13 41/20/19
f 46/51/48 36/52/46 38/53/44 45/54/49
f 42/48/47 47/55/50 37/56/43 40/49/45
f 41/20/19 39/50/13 31/14/10 43/15/14
f 45/54/49 38/53/44 37/56/43 47/55/50
f 49/57/51 46/51/48 45/54/49 48/58/52
f 50/59/53 51/60/54 47/55/50 42/48/47
f 48/58/52 45/54/49 47/55/50 51/60/54
f 50/59/53 42/48/47 41/20/19 52/21/20
f 54/61/55 52/21/20 43/15/14 53/22/21
f 57/62/56 48/58/52 51/60/54 56/63/57
f 58/64/58 50/59/53 52/21/20 54/61/55
f 57/62/56 55/65/59 49/57/51 48/58/52
f 58/64/58 56/63/57 51/60/54 50/59/53
f 61/66/60 62/67/61 57/62/56 56/63/57
f 63/68/62 64/69/63 58/64/58 54/61/55
f 62/67/61 60/70/64 55/65/59 57/62/56
f 61/66/60 56/63/57 58/64/58 64/69/63
f 6/17/16 4/31/30 60/70/64 62/67/61
f 7/18/17 61/66/60 64/69/63 10/29/28
f 1/3/3 54/61/55 53/22/21 2/1/1
f 7/18/17 6/17/16 62/67/61 61/66/60
f 10/29/28 64/69/63 63/68/62 1/3/3
f 14/71/5 59/72/23 60/70/64 4/31/30
f 55/65/59 59/72/23 44/73/22 49/57/51
f 59/72/23 55/65/59 60/70/64
f 46/51/48 44/73/22 13/74/4 36/52/46
f 46/51/48 49/57/51 44/73/22
f 13/75/4 35/76/11 33/43/42 36/47/46
f 33/43/42 35/76/11 23/77/9 25/36/35
f 23/77/9 15/78/6 21/35/34 25/36/35
f 5/30/29 15/78/6 14/71/5 4/31/30
f 5/30/29 21/35/34 15/78/6
f 63/68/62 54/61/55 1/3/3
f 28/26/25 22/25/24 32/12/12
f 3/2/2 22/25/24 18/27/26
f 65/79/65 66/80/66 67/81/67 68/82/68
f 68/82/68 67/81/67 69/83/69 70/84/70
f 70/85/70 69/86/69 71/87/71 72/88/72
f 67/89/67 66/90/66 73/91/73 71/92/71 69/93/69
f 72/88/72 71/87/71 73/94/73 74/95/74
f 74/95/74 73/94/73 66/80/66 65/79/65
