# Blender v2.79 (sub 0) OBJ File: 'env.blend'
# www.blender.org
o Sphere.001
v 0.049587 0.203209 -0.023568
v 0.091750 0.159023 -0.065765
v 0.119923 0.092895 -0.093960
v 0.129815 -0.027826 -0.103860
v 0.070188 0.203209 0.026206
v 0.129815 0.159023 0.026206
v 0.169657 0.092895 0.026206
v 0.183648 -0.027826 0.026206
v 0.049587 0.203209 0.075981
v 0.091750 0.159023 0.118177
v 0.136497 0.086328 0.127975
v 0.145250 -0.022158 0.146866
v 0.139386 -0.376861 -0.111093
v 0.197187 -0.376861 0.028562
v 0.139386 -0.376861 0.168218
v 0.129815 -0.198046 -0.103860
v 0.183648 -0.198046 0.026206
v 0.129815 -0.198046 0.140804
v 0.160566 -0.322491 0.146572
v 0.199553 -0.322491 0.067986
v 0.168432 -0.230778 0.149947
v 0.202556 -0.231254 0.066269
v 0.189386 -0.377321 0.227707
v 0.238570 -0.377321 0.129486
v 0.196897 -0.344589 0.194390
v 0.231736 -0.344589 0.124822
v 0.144539 -0.035204 0.129272
v 0.179719 -0.037521 0.044231
v 0.173352 -0.161921 0.059677
v 0.146184 -0.161921 0.125320
v 0.162261 -0.177587 0.121785
v 0.182245 -0.177587 0.073563
v 0.192441 -0.161921 0.075515
v 0.170872 -0.161921 0.127629
v 0.058130 -0.198046 -0.133577
v 0.062392 -0.376861 -0.143010
v 0.137121 0.071947 0.149309
v 0.141947 -0.008199 0.158738
v 0.014258 0.074404 0.201792
v 0.015849 -0.008059 0.210443
v 0.067309 0.131841 0.166379
v 0.073194 0.114137 0.174098
v 0.076810 -0.046802 0.191452
v 0.073987 -0.067364 0.186811
v 0.113459 0.053321 0.177349
v 0.115102 0.012881 0.180399
v 0.045342 0.053321 0.202995
v 0.045409 0.012881 0.207137
v 0.082088 -0.008713 0.198995
v 0.082065 0.072578 0.191738
v 0.000000 -0.027826 -0.157736
v 0.000000 0.218725 0.026206
v -0.049587 0.203209 -0.023568
v -0.091750 0.159023 -0.065765
v -0.119923 0.092895 -0.093960
v -0.129815 -0.027826 -0.103860
v -0.070188 0.203209 0.026206
v -0.129815 0.159023 0.026206
v -0.169657 0.092895 0.026206
v -0.183648 -0.027826 0.026206
v -0.049587 0.203209 0.075981
v -0.091750 0.159023 0.118177
v -0.136497 0.086328 0.127975
v -0.145250 -0.022158 0.146866
v 0.000000 0.203209 0.096598
v 0.000000 0.159023 0.156273
v 0.000000 0.092895 0.196146
v 0.000000 -0.027826 0.210148
v 0.000000 0.203209 -0.044185
v 0.000000 0.159023 -0.103860
v 0.000000 0.092895 -0.143734
v -0.000000 -0.376861 -0.168940
v -0.139386 -0.376861 -0.111093
v -0.197187 -0.376861 0.028562
v -0.139386 -0.376861 0.168218
v -0.000000 -0.376861 0.226065
v 0.000000 -0.198046 -0.157736
v -0.129815 -0.198046 -0.103860
v -0.183648 -0.198046 0.026206
v -0.129815 -0.198046 0.140804
v 0.000000 -0.198046 0.210148
v -0.160566 -0.322491 0.146572
v -0.199553 -0.322491 0.067986
v -0.168432 -0.230778 0.149947
v -0.202556 -0.231254 0.066269
v -0.189386 -0.377321 0.227707
v -0.238570 -0.377321 0.129486
v -0.196897 -0.344589 0.194390
v -0.231736 -0.344589 0.124822
v -0.144539 -0.035204 0.129272
v -0.179719 -0.037521 0.044231
v -0.173352 -0.161921 0.059677
v -0.146184 -0.161921 0.125320
v -0.162261 -0.177587 0.121785
v -0.182245 -0.177587 0.073563
v -0.192441 -0.161921 0.075515
v -0.170872 -0.161921 0.127629
v -0.058130 -0.198046 -0.133577
v -0.062392 -0.376861 -0.143010
v -0.137121 0.071947 0.149309
v -0.141947 -0.008199 0.158738
v -0.014258 0.074404 0.201792
v -0.015849 -0.008059 0.210443
v -0.067309 0.131841 0.166379
v -0.073194 0.114137 0.174098
v -0.076810 -0.046802 0.191452
v -0.073987 -0.067364 0.186811
v -0.113459 0.053321 0.177349
v -0.115102 0.012881 0.180399
v -0.045965 0.053321 0.202995
v -0.045438 0.012881 0.207137
v -0.082088 -0.008713 0.198995
v -0.082065 0.072578 0.191738
v 0.000000 -0.228295 -0.239771
v 0.000000 -0.328229 -0.255557
v 0.032890 -0.230427 -0.226270
v 0.032878 -0.330361 -0.242060
v -0.032890 -0.230427 -0.226270
v -0.032878 -0.330361 -0.242060
v 0.000000 -0.234489 -0.324456
v 0.000000 -0.281976 -0.331957
v 0.015629 -0.235503 -0.318040
v 0.015623 -0.282989 -0.325544
v -0.015629 -0.235503 -0.318040
v -0.015623 -0.282989 -0.325544
v 0.000000 -0.231640 -0.365693
v 0.000000 -0.249648 -0.375640
v 0.006688 -0.232984 -0.363260
v 0.006685 -0.250991 -0.373208
v -0.006688 -0.232984 -0.363260
v -0.006685 -0.250991 -0.373208
v 0.009883 0.203209 -0.043285
v 0.034388 -0.027826 -0.143464
v 0.011653 0.159023 -0.100403
v 0.017550 0.092895 -0.136450
v -0.009283 0.203209 -0.043535
v 0.000000 0.214304 0.006148
v -0.034134 -0.027826 -0.143570
v 0.000215 0.256748 -0.036980
v -0.011119 0.159023 -0.100625
v 0.004631 0.256748 -0.036578
v -0.017115 0.092895 -0.136630
v 0.000215 0.263682 -0.005527
v -0.003933 0.256748 -0.036690
v 0.000291 0.231056 -0.091786
v 0.000291 0.212904 -0.116300
v 0.004351 0.231056 -0.091417
v -0.003522 0.231056 -0.091519
v 0.005078 0.212904 -0.114880
v -0.004277 0.212904 -0.114971
v 0.000137 0.162877 -0.157564
v 0.000137 0.139822 -0.171466
v 0.006256 0.139822 -0.168926
v -0.005831 0.139822 -0.168989
v 0.004199 0.162877 -0.156359
v -0.003740 0.162877 -0.156436
v 0.000063 0.073101 -0.188873
v 0.000063 0.018567 -0.195198
v 0.007991 0.073101 -0.185582
v -0.007669 0.073101 -0.185663
v 0.015597 0.018567 -0.188751
v -0.015356 0.018567 -0.188798
v 0.000026 -0.080721 -0.214066
v 0.000026 -0.145162 -0.214066
v 0.022033 -0.145162 -0.204920
v -0.021980 -0.145162 -0.204920
v 0.013045 -0.080721 -0.208663
v -0.012896 -0.080721 -0.208703
v -0.021992 -0.166343 -0.195365
v -0.012443 -0.178594 -0.230432
v 0.021992 -0.166343 -0.195365
v -0.000000 -0.166343 -0.204505
v 0.012443 -0.178594 -0.230432
v -0.000000 -0.177787 -0.235540
v 0.012864 -0.189982 -0.260421
v -0.000000 -0.189148 -0.265702
v -0.012864 -0.189982 -0.260421
v 0.006113 -0.191967 -0.296316
v -0.000000 -0.191571 -0.298825
v -0.006113 -0.191967 -0.296316
vt 0.280689 0.229081
vt 0.278703 0.098873
vt 0.233168 0.133358
vt 0.233622 0.194674
vt 0.280722 0.229084
vt 0.232749 0.194639
vt 0.233160 0.133344
vt 0.278735 0.098871
vt 0.783997 0.910782
vt 0.764928 0.883591
vt 0.717466 0.962767
vt 0.721474 0.972630
vt 0.662144 0.686331
vt 0.715720 0.688192
vt 0.659643 0.679265
vt 0.910857 0.714202
vt 0.846803 0.700023
vt 0.882572 0.803819
vt 0.908545 0.814682
vt 0.597070 0.745557
vt 0.612352 0.758693
vt 0.540757 0.814851
vt 0.533200 0.813329
vt 0.375414 0.825376
vt 0.360986 0.879734
vt 0.290060 0.874550
vt 0.284353 0.820804
vt 0.340498 0.931875
vt 0.311246 0.985944
vt 0.299852 0.926942
vt 0.390577 0.735947
vt 0.280328 0.730018
vt 0.198754 0.834559
vt 0.176759 0.739462
vt 0.263579 0.946494
vt 0.221927 0.904277
vt 0.244529 0.988937
vt 0.178731 0.976495
vt 0.112826 0.956960
vt 0.171491 0.911656
vt 0.304114 0.065654
vt 0.304114 0.260826
vt 0.754362 0.248414
vt 0.786863 0.191299
vt 0.861973 0.236154
vt 0.847356 0.253072
vt 0.041929 0.428026
vt 0.041929 0.428026
vt 0.041929 0.428026
vt 0.041929 0.428026
vt 0.170270 0.590518
vt 0.046094 0.588215
vt 0.041980 0.436778
vt 0.169328 0.437648
vt 0.402225 0.591302
vt 0.277051 0.588554
vt 0.274338 0.428076
vt 0.409565 0.431338
vt 0.108376 0.700325
vt 0.041979 0.731801
vt 0.247992 0.619965
vt 0.188514 0.618522
vt 0.893510 0.381651
vt 0.787913 0.417222
vt 0.922907 0.499967
vt 0.962548 0.493092
vt 0.041929 0.428026
vt 0.041929 0.428026
vt 0.041929 0.428026
vt 0.041929 0.428026
vt 0.041929 0.428026
vt 0.041929 0.428026
vt 0.041929 0.428026
vt 0.041929 0.428026
vt 0.041929 0.428026
vt 0.041929 0.428026
vt 0.041929 0.428026
vt 0.041929 0.428026
vt 0.228935 0.628390
vt 0.209824 0.631025
vt 0.188968 0.727517
vt 0.266866 0.723026
vt 0.206869 0.638624
vt 0.232200 0.637426
vt 0.483744 0.437112
vt 0.471536 0.597187
vt 0.069525 0.114356
vt 0.077898 0.229717
vt 0.126333 0.197977
vt 0.122424 0.139822
vt 0.171636 0.007684
vt 0.173191 0.042744
vt 0.046983 0.093882
vt 0.052178 0.261325
vt 0.183544 0.327908
vt 0.179618 0.294978
vt 0.175910 0.104014
vt 0.177195 0.223811
vt 0.631858 0.888881
vt 0.619614 0.906803
vt 0.676623 0.972555
vt 0.678331 0.965404
vt 0.611802 0.756825
vt 0.733846 0.781558
vt 0.860152 0.888491
vt 0.850439 0.879222
vt 0.548636 0.854396
vt 0.542453 0.859362
vt 0.375925 0.823192
vt 0.284936 0.819019
vt 0.290874 0.872688
vt 0.361741 0.877550
vt 0.341516 0.929710
vt 0.300900 0.924980
vt 0.312577 0.983871
vt 0.390701 0.733796
vt 0.280526 0.728333
vt 0.177081 0.738209
vt 0.199467 0.833141
vt 0.222941 0.902700
vt 0.264756 0.944685
vt 0.180117 0.975062
vt 0.245923 0.987185
vt 0.172579 0.910306
vt 0.114171 0.955850
vt 0.435071 0.416495
vt 0.293699 0.301716
vt 0.383174 0.250558
vt 0.468260 0.308945
vt 0.041929 0.428026
vt 0.041929 0.428026
vt 0.041929 0.428026
vt 0.041929 0.428026
vt 0.169969 0.589408
vt 0.168383 0.436662
vt 0.041132 0.436329
vt 0.045881 0.587631
vt 0.401749 0.589226
vt 0.408427 0.429354
vt 0.273288 0.426650
vt 0.276658 0.586997
vt 0.042375 0.731121
vt 0.108586 0.699390
vt 0.188317 0.617313
vt 0.247754 0.618505
vt 0.969271 0.600310
vt 0.946387 0.598603
vt 0.041929 0.428026
vt 0.041929 0.428026
vt 0.041929 0.428026
vt 0.041929 0.428026
vt 0.041929 0.428026
vt 0.041929 0.428026
vt 0.041929 0.428026
vt 0.041929 0.428026
vt 0.041929 0.428026
vt 0.041929 0.428026
vt 0.209663 0.629717
vt 0.228748 0.627004
vt 0.267045 0.721404
vt 0.189230 0.726221
vt 0.232048 0.636019
vt 0.206742 0.637322
vt 0.482574 0.434819
vt 0.471030 0.594824
vt 0.069575 0.114355
vt 0.122474 0.139817
vt 0.126385 0.197974
vt 0.077951 0.229714
vt 0.173233 0.042742
vt 0.171678 0.007684
vt 0.047033 0.093882
vt 0.052234 0.261322
vt 0.179668 0.294971
vt 0.183594 0.327897
vt 0.175955 0.104006
vt 0.177252 0.223810
vt 0.616749 0.250558
vt 0.531662 0.308945
vt 0.512441 0.225130
vt 0.543062 0.191429
vt 0.499961 0.297285
vt 0.487481 0.225130
vt 0.499961 0.221239
vt 0.564852 0.416495
vt 0.499961 0.394508
vt 0.881959 0.287395
vt 0.849854 0.308617
vt 0.706224 0.301716
vt 0.499961 0.192070
vt 0.503339 0.192645
vt 0.486764 0.142296
vt 0.499961 0.147744
vt 0.499961 0.181166
vt 0.494309 0.180501
vt 0.607625 0.183191
vt 0.752577 0.247368
vt 0.720799 0.164749
vt 0.675970 0.137550
vt 0.456860 0.191429
vt 0.593212 0.158082
vt 0.672701 0.126550
vt 0.505613 0.180501
vt 0.496583 0.192645
vt 0.513158 0.142296
vt 0.597696 0.744246
vt 0.477838 0.752798
vt 0.457381 0.860507
vt 0.420179 0.915668
vt 0.369751 0.955969
vt 0.734077 0.781548
vt 0.661540 0.687575
vt 0.714685 0.688743
vt 0.478189 0.750336
vt 0.371276 0.953996
vt 0.421430 0.913441
vt 0.458305 0.858119
vt 0.658756 0.680129
vt 0.542932 0.861642
vt 0.549398 0.856402
vt 0.540004 0.812805
vt 0.532919 0.811250
vt 0.632797 0.890566
vt 0.620043 0.909485
vt 0.722655 0.974905
vt 0.677660 0.974905
vt 0.679401 0.967394
vt 0.718542 0.964785
vt 0.765989 0.885332
vt 0.785598 0.913245
vt 0.910236 0.816610
vt 0.861783 0.890571
vt 0.851802 0.881079
vt 0.884043 0.805647
vt 0.848187 0.701663
vt 0.912799 0.715974
vt 0.971193 0.601889
vt 0.948115 0.600170
vt 0.924778 0.501406
vt 0.964469 0.494531
vt 0.789705 0.418482
vt 0.895439 0.382891
vt 0.860053 0.235101
vt 0.845458 0.252001
vt 0.883895 0.288517
vt 0.851745 0.309758
vt 0.785026 0.190316
vt 0.726608 0.144062
vt 0.722564 0.165686
vt 0.677685 0.138444
vt 0.674415 0.127429
vt 0.724834 0.143151
vt 0.609247 0.184126
vt 0.594822 0.158983
vn 0.0347 0.1039 0.9940
vn -0.0344 0.1038 0.9940
vn -0.0006 0.3778 -0.9259
vn -0.6402 0.2644 -0.7212
vn -0.7011 0.0408 -0.7118
vn 0.0006 0.0028 -1.0000
vn -0.6252 0.5683 -0.5349
vn -0.0015 0.8234 0.5674
vn 0.0079 0.6628 -0.7487
vn -0.0002 0.0838 -0.9965
vn -0.5803 0.0854 -0.8099
vn -0.6940 -0.1537 -0.7034
vn 0.0001 -0.2558 -0.9667
vn 0.0038 0.9153 -0.4028
vn 0.5412 0.7615 -0.3567
vn 0.5725 0.8191 -0.0367
vn -0.0004 0.9964 -0.0848
vn 0.6741 0.3064 -0.6721
vn 0.5434 0.6463 -0.5358
vn 0.7557 0.6548 -0.0069
vn 0.9468 0.3207 -0.0263
vn 0.3293 0.8901 -0.3150
vn -0.0003 0.9982 0.0590
vn 0.4558 0.8901 0.0000
vn 0.7063 0.0568 -0.7056
vn 0.9982 0.0404 -0.0435
vn 0.8253 0.4025 0.3961
vn 0.8485 -0.0855 0.5221
vn 0.3224 0.8901 0.3219
vn 0.5063 0.6932 0.5130
vn 0.0000 0.8902 0.4555
vn 0.0000 0.7211 0.6928
vn 0.0000 0.4317 0.9020
vn 0.3634 0.5684 0.7381
vn 0.0000 -0.0946 0.9955
vn 0.0081 0.2402 0.9707
vn -0.0092 -0.0287 0.9995
vn 0.9250 0.2368 -0.2973
vn 0.0000 0.9999 -0.0098
vn 0.0000 0.5587 -0.8293
vn 0.5325 0.5433 -0.6490
vn 0.6254 0.1601 0.7637
vn -0.0482 -0.7564 0.6523
vn 0.3469 0.4952 0.7965
vn 0.6302 0.3002 0.7160
vn 0.0000 0.0303 0.9995
vn 0.0000 -0.5842 0.8116
vn 0.7061 0.0334 -0.7073
vn 0.9863 0.1259 -0.1064
vn 0.6921 -0.6688 -0.2713
vn 0.5643 -0.6052 -0.5615
vn 0.4186 -0.1743 0.8913
vn 0.9441 -0.3087 -0.1154
vn 0.6081 -0.2960 0.7365
vn -0.0005 0.7731 -0.6342
vn -0.6900 0.0813 -0.7192
vn -0.6382 -0.2642 -0.7231
vn 0.0000 -0.3656 -0.9308
vn 0.0000 -0.9529 -0.3032
vn 0.3969 -0.7937 -0.4610
vn 0.9447 0.3047 0.1212
vn 0.9723 0.2154 -0.0908
vn 0.0316 -0.3262 0.9448
vn 0.2664 0.7245 0.6356
vn 0.8470 -0.5289 0.0521
vn 0.8185 0.5729 0.0417
vn 0.2364 -0.9109 -0.3381
vn -0.0721 -0.9109 0.4061
vn 0.9156 -0.0488 0.3991
vn 0.9538 -0.0407 0.2976
vn 0.5615 -0.1987 0.8032
vn 0.9632 -0.2197 -0.1547
vn 0.6901 0.0811 -0.7191
vn 0.8368 -0.0822 0.5413
vn 0.8361 0.3024 0.4577
vn 0.5818 0.2044 0.7872
vn 0.5773 -0.0020 0.8165
vn 0.3893 -0.2485 0.8869
vn 0.0093 -0.0287 0.9995
vn 0.4033 0.4896 0.7730
vn -0.0079 0.2404 0.9706
vn 0.3677 -0.0959 0.9250
vn 0.1521 0.0126 0.9883
vn 0.3696 0.2909 0.8824
vn 0.1459 0.1880 0.9713
vn -0.6124 0.5101 -0.6039
vn 0.0011 0.7309 -0.6825
vn 0.0005 0.8487 -0.5289
vn -0.5816 0.7437 -0.3296
vn -0.5379 0.7636 -0.3571
vn 0.0000 0.5422 -0.8402
vn -0.6118 0.5057 -0.6082
vn -0.6504 0.3069 -0.6948
vn 0.0039 0.3161 -0.9487
vn -0.6741 0.3064 -0.6721
vn -0.9468 0.3207 -0.0263
vn -0.7557 0.6548 -0.0069
vn -0.5433 0.6463 -0.5358
vn -0.3292 0.8901 -0.3150
vn -0.4558 0.8901 0.0000
vn -0.7063 0.0568 -0.7056
vn -0.9982 0.0404 -0.0435
vn -0.8485 -0.0855 0.5221
vn -0.8253 0.4025 0.3961
vn -0.5063 0.6932 0.5130
vn -0.3224 0.8901 0.3219
vn -0.3634 0.5684 0.7381
vn -0.3969 -0.7937 -0.4610
vn -0.9250 0.2368 -0.2973
vn -0.7065 -0.5368 -0.4611
vn -0.6254 0.1601 0.7637
vn -0.6302 0.3002 0.7160
vn -0.3469 0.4952 0.7965
vn 0.0482 -0.7564 0.6523
vn -0.7061 0.0334 -0.7073
vn -0.5643 -0.6052 -0.5615
vn -0.6921 -0.6688 -0.2713
vn -0.9863 0.1259 -0.1064
vn -0.4186 -0.1743 0.8913
vn -0.6081 -0.2960 0.7365
vn -0.9441 -0.3087 -0.1154
vn 0.0000 0.3656 -0.9308
vn -0.6074 0.3255 -0.7246
vn -0.9447 0.3047 0.1212
vn -0.9723 0.2154 -0.0908
vn -0.2664 0.7245 0.6356
vn -0.0316 -0.3262 0.9448
vn -0.8185 0.5729 0.0417
vn -0.8470 -0.5289 0.0521
vn 0.0721 -0.9109 0.4061
vn -0.2364 -0.9109 -0.3381
vn -0.9538 -0.0407 0.2976
vn -0.9156 -0.0488 0.3991
vn -0.9632 -0.2197 -0.1547
vn -0.5615 -0.1987 0.8032
vn -0.8368 -0.0822 0.5413
vn -0.5773 -0.0020 0.8165
vn -0.5818 0.2044 0.7872
vn -0.8361 0.3024 0.4577
vn -0.3893 -0.2486 0.8869
vn -0.4032 0.4899 0.7729
vn -0.1522 0.0121 0.9883
vn -0.3680 -0.0961 0.9248
vn -0.3698 0.2915 0.8822
vn -0.1473 0.1880 0.9710
vn 0.7065 -0.5368 -0.4611
vn 0.7180 -0.5199 -0.4628
vn 0.8581 0.3803 -0.3450
vn 0.0000 -0.8643 -0.5029
vn -0.7180 -0.5199 -0.4628
vn 0.0000 -0.8287 -0.5597
vn 0.0000 1.0000 -0.0017
vn -0.4297 0.9022 0.0357
vn 0.0000 -0.1248 -0.9922
vn 0.6549 -0.2376 -0.7174
vn -0.8581 0.3803 -0.3450
vn 0.0000 0.9303 -0.3667
vn 0.0000 0.8458 -0.5335
vn -0.6454 0.6780 -0.3518
vn -0.4440 0.8187 0.3641
vn -0.5597 0.7329 -0.3867
vn 0.0000 0.8077 -0.5896
vn 0.6454 0.6780 -0.3518
vn -0.6549 -0.2376 -0.7174
vn 0.5804 0.0849 -0.8099
vn 0.6404 0.2635 -0.7214
vn 0.6144 0.5076 -0.6041
vn 0.6340 0.5671 -0.5258
vn 0.6546 0.3042 -0.6920
vn -0.5722 0.8190 -0.0426
vn 0.5814 0.7441 -0.3290
vn 0.7009 0.0397 -0.7121
vn 0.6117 0.5056 -0.6084
vn 0.6934 -0.1545 -0.7037
vn 0.6075 0.3253 -0.7246
vn 0.6380 -0.2647 -0.7231
vn -0.5325 0.5433 -0.6490
vn 0.4297 0.9022 0.0357
vn 0.0000 0.9460 0.3240
vn 0.4440 0.8187 0.3640
vn 0.5597 0.7329 -0.3867
s off
f 39/1/1 40/2/1 48/3/1 47/4/1
f 102/5/2 110/6/2 111/7/2 103/8/2
s 1
f 71/9/3 142/10/4 154/11/5 152/12/6
f 144/13/7 143/14/8 139/15/9
f 51/16/10 138/17/11 162/18/12 158/19/13
f 69/20/14 132/21/15 147/22/16 145/23/17
f 3/24/18 2/25/19 6/26/20 7/27/21
f 1/28/22 52/29/23 5/30/24
f 4/31/25 3/24/18 7/27/21 8/32/26
f 2/25/19 1/28/22 5/30/24 6/26/20
f 8/32/26 7/27/21 11/33/27 12/34/28
f 6/26/20 5/30/24 9/35/29 10/36/30
f 7/27/21 6/26/20 10/36/30 11/33/27
f 9/35/29 5/30/24 52/29/23
f 10/36/30 9/35/29 65/37/31 66/38/32
f 11/33/27 10/36/30 66/38/32 67/39/33 41/40/34
f 9/35/29 52/29/23 65/37/31
f 68/41/35 67/42/33 102/5/36 103/8/37
f 116/43/38 114/44/39 174/45/40 173/46/41
f 18/47/42 15/48/43 19/49/44 21/50/45
f 18/51/42 81/52/46 76/53/47 15/54/43
f 16/55/48 17/56/49 14/57/50 13/58/51
f 4/31/25 8/32/26 17/56/49 16/55/48
f 12/34/28 44/59/52 68/60/35 81/52/46 18/51/42
f 18/51/42 17/56/49 29/61/53 30/62/54
f 77/63/55 98/64/56 166/65/57 164/66/58
f 76/67/47 72/68/59 36/69/60 13/70/51 14/71/50 15/48/43
f 22/72/61 21/50/45 19/49/44 20/73/62
f 17/74/49 18/47/42 21/50/45 22/72/61
f 19/49/44 15/48/43 23/75/63 25/76/64
f 14/71/50 17/74/49 22/72/61 20/73/62
f 23/75/63 24/77/65 26/78/66 25/76/64
f 20/73/62 19/49/44 25/76/64 26/78/66
f 14/71/50 20/73/62 26/78/66 24/77/65
f 15/48/43 14/71/50 24/77/65 23/75/63
f 30/62/54 29/61/53 32/79/67 31/80/68
f 8/32/26 12/34/28 27/81/69 28/82/70
f 12/34/28 18/51/42 30/62/54 27/81/69
f 17/56/49 8/32/26 28/82/70 29/61/53
f 28/82/70 27/81/69 34/83/71 33/84/72
f 29/61/53 33/84/72 32/79/67
f 27/81/69 30/62/54 34/83/71
f 31/80/68 32/79/67 33/84/72 34/83/71
f 36/85/60 35/86/73 16/55/48 13/58/51
f 38/87/74 37/88/75 45/89/76 46/90/77
f 68/41/35 44/91/52 43/92/78 40/2/79
f 12/93/28 11/94/27 37/88/75 38/87/74
f 11/94/27 41/95/34 42/96/80 37/88/75
f 43/92/78 44/91/52 12/93/28 38/87/74
f 42/96/80 41/95/34 67/42/33 39/1/81
f 40/2/79 43/92/78 49/97/82 48/3/83
f 46/90/77 45/89/76 50/98/84 49/97/82
f 49/97/82 50/98/84 47/4/85 48/3/83
f 42/96/80 39/1/81 47/4/85 50/98/84
f 37/88/75 42/96/80 50/98/84 45/89/76
f 43/92/78 38/87/74 46/90/77 49/97/82
f 33/84/72 29/61/53 28/82/70
f 34/83/71 30/62/54 31/80/68
f 140/99/86 70/100/87 151/101/88 156/102/89
f 136/103/90 52/104/23 143/14/8 144/13/7
f 142/10/4 71/9/3 157/105/91 160/106/92
f 70/100/87 140/99/86 150/107/93 146/108/94
f 55/109/95 59/110/96 58/111/97 54/112/98
f 53/113/99 57/114/100 52/115/23
f 56/116/101 60/117/102 59/110/96 55/109/95
f 54/112/98 58/111/97 57/114/100 53/113/99
f 60/117/102 64/118/103 63/119/104 59/110/96
f 58/111/97 62/120/105 61/121/106 57/114/100
f 59/110/96 63/119/104 62/120/105 58/111/97
f 57/114/100 61/121/106 52/115/23
f 62/120/105 66/122/32 65/123/31 61/121/106
f 63/119/104 104/124/107 67/125/33 66/122/32 62/120/105
f 61/121/106 65/123/31 52/115/23
f 68/41/35 40/2/79 39/1/81 67/42/33
f 99/126/108 98/127/56 118/128/109 119/129/110
f 80/130/111 84/131/112 82/132/113 75/133/114
f 80/134/111 75/135/114 76/136/47 81/137/46
f 78/138/115 73/139/116 74/140/117 79/141/118
f 56/116/101 78/138/115 79/141/118 60/117/102
f 64/118/103 80/134/111 81/137/46 68/142/35 107/143/119
f 80/134/111 93/144/120 92/145/121 79/141/118
f 138/17/11 51/16/10 163/146/122 168/147/123
f 76/67/47 75/133/114 74/148/117 73/149/116 99/150/108 72/68/59
f 85/151/124 83/152/125 82/132/113 84/131/112
f 79/153/118 85/151/124 84/131/112 80/130/111
f 82/132/113 88/154/126 86/155/127 75/133/114
f 74/148/117 83/152/125 85/151/124 79/153/118
f 86/155/127 88/154/126 89/156/128 87/157/129
f 83/152/125 89/156/128 88/154/126 82/132/113
f 74/148/117 87/157/129 89/156/128 83/152/125
f 75/133/114 86/155/127 87/157/129 74/148/117
f 93/144/120 94/158/130 95/159/131 92/145/121
f 60/117/102 91/160/132 90/161/133 64/118/103
f 64/118/103 90/161/133 93/144/120 80/134/111
f 79/141/118 92/145/121 91/160/132 60/117/102
f 91/160/132 96/162/134 97/163/135 90/161/133
f 92/145/121 95/159/131 96/162/134
f 90/161/133 97/163/135 93/144/120
f 94/158/130 97/163/135 96/162/134 95/159/131
f 99/164/108 73/139/116 78/138/115 98/165/56
f 101/166/136 109/167/137 108/168/138 100/169/139
f 68/41/35 103/8/37 106/170/140 107/171/119
f 64/172/103 101/166/136 100/169/139 63/173/104
f 63/173/104 100/169/139 105/174/141 104/175/107
f 106/170/140 101/166/136 64/172/103 107/171/119
f 105/174/141 102/5/36 67/42/33 104/175/107
f 103/8/37 111/7/142 112/176/143 106/170/140
f 109/167/137 112/176/143 113/177/144 108/168/138
f 112/176/143 111/7/142 110/6/145 113/177/144
f 105/174/141 113/177/144 110/6/145 102/5/36
f 100/169/139 108/168/138 113/177/144 105/174/141
f 106/170/140 112/176/143 109/167/137 101/166/136
f 96/162/134 91/160/132 92/145/121
f 97/163/135 94/158/130 93/144/120
f 116/178/38 117/179/146 123/180/147 122/181/148
f 115/182/149 119/129/110 125/183/150 121/184/151
f 36/185/60 72/186/59 115/182/149 117/179/146
f 98/64/56 77/63/55 172/187/152 169/188/153
f 72/186/59 99/126/108 119/129/110 115/182/149
f 35/189/73 36/185/60 117/179/146 116/178/38
f 123/180/147 121/184/151 127/190/154 129/191/155
f 124/192/156 120/193/157 126/194/158 130/195/159
f 124/196/156 118/197/109 177/198/160 180/199/161
f 119/129/110 118/128/109 124/200/156 125/183/150
f 120/201/157 124/196/156 180/199/161 179/202/162
f 117/179/146 115/182/149 121/184/151 123/180/147
f 126/194/158 128/203/163 129/191/155 127/190/154
f 126/194/158 127/190/154 131/204/164 130/195/159
f 121/184/151 125/183/150 131/204/164 127/190/154
f 122/181/148 123/180/147 129/191/155 128/203/163
f 120/193/157 122/205/148 128/203/163 126/194/158
f 125/183/150 124/200/156 130/195/159 131/204/164
f 69/206/14 136/103/90 144/13/7 139/15/9
f 133/207/165 135/208/166 3/24/18 4/31/25
f 35/86/73 133/207/165 4/31/25 16/55/48
f 134/209/167 132/210/15 1/28/22 2/25/19
f 135/208/166 134/209/167 2/25/19 3/24/18
f 52/211/23 132/21/15 141/212/168 143/213/8
f 138/214/11 98/165/56 78/138/115 56/116/101
f 136/215/90 140/216/86 54/112/98 53/113/99
f 140/216/86 142/217/4 55/109/95 54/112/98
f 132/21/15 69/20/14 139/218/9 141/212/168
f 143/213/8 141/212/168 139/218/9
f 53/113/99 52/115/23 136/215/90
f 142/217/4 138/214/11 56/116/101 55/109/95
f 52/29/23 1/28/22 132/210/15
f 146/219/94 145/23/17 147/22/16 149/220/169
f 146/108/94 150/107/93 148/221/170 145/222/17
f 134/223/167 70/224/87 146/219/94 149/220/169
f 140/99/86 136/103/90 148/221/170 150/107/93
f 132/21/15 134/223/167 149/220/169 147/22/16
f 136/103/90 69/206/14 145/222/17 148/221/170
f 152/225/6 151/226/88 155/227/171 153/228/172
f 152/12/6 154/11/5 156/102/89 151/101/88
f 70/224/87 134/223/167 155/227/171 151/226/88
f 135/229/166 71/230/3 152/225/6 153/228/172
f 134/223/167 135/229/166 153/228/172 155/227/171
f 142/10/4 140/99/86 156/102/89 154/11/5
f 158/231/13 157/232/91 159/233/173 161/234/174
f 158/19/13 162/18/12 160/106/92 157/105/91
f 71/230/3 135/229/166 159/233/173 157/232/91
f 138/17/11 142/10/4 160/106/92 162/18/12
f 133/235/165 51/236/10 158/231/13 161/234/174
f 135/229/166 133/235/165 161/234/174 159/233/173
f 163/237/122 167/238/175 165/239/176 164/240/58
f 163/146/122 164/66/58 166/65/57 168/147/123
f 133/235/165 35/241/73 165/239/176 167/238/175
f 35/241/73 77/242/55 164/240/58 165/239/176
f 51/236/10 133/235/165 167/238/175 163/237/122
f 98/64/56 138/17/11 168/147/123 166/65/57
f 169/188/153 172/187/152 174/243/40 170/244/177
f 172/245/152 171/246/178 173/46/41 174/45/40
f 114/247/39 118/197/109 170/244/177 174/243/40
f 77/242/55 35/241/73 171/246/178 172/245/152
f 118/197/109 98/64/56 169/188/153 170/244/177
f 35/241/73 116/43/38 173/46/41 171/246/178
f 176/248/179 175/249/180 178/250/181 179/251/162
f 177/198/160 176/252/179 179/202/162 180/199/161
f 114/44/39 116/43/38 175/249/180 176/248/179
f 116/43/38 122/253/148 178/250/181 175/249/180
f 118/197/109 114/247/39 176/252/179 177/198/160
f 122/253/148 120/254/157 179/251/162 178/250/181
l 137 69
