# Blender v2.79 (sub 0) OBJ File: 'env.blend'
# www.blender.org
mtllib eis_01.mtl
o Cone
v 0.000000 0.094419 -0.074126
v -0.052415 0.094419 -0.052415
v -0.074126 0.094419 0.000000
v -0.052415 0.094419 0.052415
v 0.000000 0.094419 0.074126
v 0.052415 0.094419 0.052415
v 0.074126 0.094419 0.000000
v 0.052415 0.094419 -0.052415
v -0.000000 -0.126965 -0.000000
v 0.000000 0.099978 -0.087112
v -0.061597 0.099978 -0.061597
v -0.087112 0.099978 0.000000
v -0.061597 0.099978 0.061597
v 0.000000 0.099978 0.087112
v 0.061598 0.099978 0.061597
v 0.087112 0.099978 0.000000
v 0.061598 0.099978 -0.061597
v 0.000000 0.108007 -0.087112
v -0.061597 0.108007 -0.061597
v -0.087112 0.108007 0.000000
v -0.061597 0.108007 0.061597
v 0.000000 0.108007 0.087112
v 0.061598 0.108007 0.061597
v 0.087112 0.108007 0.000000
v 0.061598 0.108007 -0.061597
v 0.000000 0.113510 -0.078057
v -0.055194 0.113510 -0.055194
v -0.078057 0.113510 0.000000
v -0.055194 0.113510 0.055194
v 0.000000 0.113510 0.078057
v 0.055194 0.113510 0.055194
v 0.078057 0.113510 0.000000
v 0.055194 0.113510 -0.055194
v 0.000000 0.133124 -0.082188
v -0.058116 0.133124 -0.058116
v -0.082188 0.133124 0.000000
v -0.058116 0.133124 0.058116
v 0.000000 0.133124 0.082188
v 0.058116 0.133124 0.058116
v 0.082188 0.133124 0.000000
v 0.058116 0.133124 -0.058116
v 0.000000 0.152336 -0.085266
v -0.060292 0.152336 -0.060292
v -0.085266 0.152336 0.000000
v -0.060292 0.152336 0.060292
v 0.000000 0.152336 0.085266
v 0.060292 0.152336 0.060292
v 0.085266 0.152336 0.000000
v 0.060292 0.152336 -0.060292
v 0.000000 0.182283 -0.081718
v -0.057783 0.182283 -0.057783
v -0.081718 0.182283 0.000000
v -0.057783 0.182283 0.057783
v 0.000000 0.182283 0.081718
v 0.057783 0.182283 0.057783
v 0.081718 0.182283 0.000000
v 0.057783 0.182283 -0.057783
v 0.000000 0.207144 -0.067923
v -0.048029 0.207144 -0.048029
v -0.067923 0.207144 0.000000
v -0.048029 0.207144 0.048029
v 0.000000 0.207144 0.067923
v 0.048029 0.207144 0.048029
v 0.067923 0.207144 0.000000
v 0.048029 0.207144 -0.048029
v 0.000000 0.228051 -0.037216
v -0.026315 0.228051 -0.026315
v -0.037216 0.228051 0.000000
v -0.026315 0.228051 0.026315
v 0.000000 0.228051 0.037216
v 0.026316 0.228051 0.026315
v 0.037216 0.228051 0.000000
v 0.026316 0.228051 -0.026315
v 0.000000 0.233701 -0.015441
v -0.010918 0.233701 -0.010918
v -0.015441 0.233701 0.000000
v -0.010918 0.233701 0.010918
v 0.000000 0.233701 0.015441
v 0.010918 0.233701 0.010918
v 0.015441 0.233701 0.000000
v 0.010918 0.233701 -0.010918
vt 0.400092 0.454086
vt 0.344529 0.000175
vt 0.507938 0.427282
vt 0.606134 0.375255
vt 0.688882 0.301080
vt 0.751295 0.209135
vt 0.000175 0.301079
vt 0.082923 0.375255
vt 0.181119 0.427282
vt 0.288965 0.454086
vt 0.139275 0.983740
vt 0.016529 0.999824
vt 0.001646 0.969565
vt 0.137090 0.955837
vt 0.254580 0.947163
vt 0.135528 0.940168
vt 0.253355 0.931454
vt 0.255787 0.974166
vt 0.371870 0.968422
vt 0.371517 0.941532
vt 0.602937 0.967751
vt 0.487622 0.966295
vt 0.488100 0.939512
vt 0.604240 0.941102
vt 0.717700 0.972759
vt 0.719819 0.946316
vt 0.831607 0.981364
vt 0.834875 0.955874
vt 0.950738 0.999825
vt 0.965475 0.973677
vt 0.720539 0.930813
vt 0.604466 0.925532
vt 0.605286 0.905828
vt 0.721976 0.911186
vt 0.370772 0.925858
vt 0.487843 0.923883
vt 0.836226 0.940463
vt 0.000175 0.950813
vt 0.967939 0.955404
vt 0.648647 0.778354
vt 0.752121 0.776478
vt 0.769698 0.815831
vt 0.635346 0.818646
vt 0.838355 0.920181
vt 0.962663 0.931772
vt 0.134252 0.920548
vt 0.252349 0.911550
vt 0.370366 0.905991
vt 0.488051 0.904089
vt 0.006208 0.928869
vt 0.773481 0.499534
vt 0.638920 0.500450
vt 0.618798 0.454874
vt 0.790927 0.452887
vt 0.582641 0.610037
vt 0.578121 0.709301
vt 0.540131 0.727204
vt 0.542873 0.594629
vt 0.830695 0.610928
vt 0.759454 0.539876
vt 0.868909 0.592691
vt 0.828870 0.709767
vt 0.868209 0.725002
vt 0.657059 0.539334
vt 0.167967 0.471074
vt 0.340292 0.471083
vt 0.314547 0.539877
vt 0.198411 0.537924
vt 0.914299 0.572297
vt 0.914299 0.743795
vt 0.789211 0.861270
vt 0.618490 0.865198
vt 0.494777 0.747469
vt 0.496773 0.576054
vt 0.395282 0.623382
vt 0.393322 0.739519
vt 0.346019 0.721259
vt 0.348920 0.643916
vt 0.046109 0.765256
vt 0.046109 0.592926
vt 0.114907 0.618668
vt 0.112957 0.734810
vt 0.340272 0.887092
vt 0.167965 0.887101
vt 0.193703 0.818307
vt 0.309832 0.820251
vt 0.462110 0.765260
vt 0.462130 0.592944
vt 0.296285 0.587181
vt 0.300744 0.663301
vt 0.275933 0.634954
vt 0.218948 0.584286
vt 0.162214 0.636929
vt 0.159320 0.714272
vt 0.211962 0.771004
vt 0.289296 0.773892
vt 0.269904 0.725719
vt 0.232311 0.723230
vt 0.245091 0.696952
vt 0.260340 0.698103
vt 0.238343 0.632462
vt 0.209994 0.657283
vt 0.207495 0.694881
vt 0.298235 0.700904
vt 0.235128 0.685342
vt 0.236288 0.670076
vt 0.247897 0.660092
vt 0.263156 0.661237
vt 0.273121 0.672837
vt 0.271931 0.688095
vn -0.3656 -0.2955 -0.8826
vn -0.8826 -0.2955 -0.3656
vn -0.8826 -0.2955 0.3656
vn -0.3656 -0.2955 0.8826
vn 0.3656 -0.2955 0.8826
vn 0.8826 -0.2955 0.3656
vn 0.8826 -0.2955 -0.3656
vn 0.3656 -0.2955 -0.8826
vn -0.1609 -0.9073 0.3884
vn -0.9239 0.0000 0.3827
vn -0.3884 -0.9073 0.1609
vn -0.3884 -0.9073 -0.1609
vn 0.1609 -0.9073 -0.3884
vn 0.3884 -0.9073 -0.1609
vn 0.3884 -0.9073 0.1609
vn -0.1609 -0.9073 -0.3884
vn 0.1609 -0.9073 0.3884
vn 0.5077 0.8355 -0.2103
vn -0.3827 0.0000 -0.9239
vn 0.3827 0.0000 -0.9239
vn 0.9239 0.0000 0.3827
vn -0.3827 0.0000 0.9239
vn -0.9239 0.0000 -0.3827
vn 0.9239 0.0000 -0.3827
vn 0.3827 0.0000 0.9239
vn -0.3756 -0.1910 0.9069
vn 0.2103 0.8355 0.5077
vn -0.5077 0.8355 0.2103
vn -0.2103 0.8355 -0.5077
vn 0.2103 0.8355 -0.5077
vn 0.5077 0.8355 0.2103
vn -0.2103 0.8355 0.5077
vn -0.5077 0.8355 -0.2103
vn 0.3786 -0.1464 -0.9139
vn -0.9069 -0.1910 -0.3756
vn 0.9069 -0.1910 -0.3756
vn 0.3756 -0.1910 0.9069
vn -0.9069 -0.1910 0.3756
vn -0.3756 -0.1910 -0.9069
vn 0.3756 -0.1910 -0.9069
vn 0.9069 -0.1910 0.3756
vn 0.3804 0.1088 0.9184
vn 0.9139 -0.1464 0.3786
vn -0.3786 -0.1464 0.9139
vn -0.9139 -0.1464 -0.3786
vn 0.9139 -0.1464 -0.3786
vn 0.3786 -0.1464 0.9139
vn -0.9139 -0.1464 0.3786
vn -0.3786 -0.1464 -0.9139
vn 0.8221 0.4562 -0.3405
vn -0.9184 0.1088 0.3804
vn -0.3804 0.1088 -0.9184
vn 0.3804 0.1088 -0.9184
vn 0.9184 0.1088 0.3804
vn -0.3804 0.1088 0.9184
vn -0.9184 0.1088 -0.3804
vn 0.9184 0.1088 -0.3804
vn 0.5481 0.8050 0.2270
vn 0.3405 0.4562 0.8221
vn -0.8221 0.4562 0.3405
vn -0.3405 0.4562 -0.8221
vn 0.3405 0.4562 -0.8221
vn 0.8221 0.4562 0.3405
vn -0.3405 0.4562 0.8221
vn -0.8221 0.4562 -0.3405
vn -0.1035 0.9627 -0.2498
vn -0.2270 0.8050 0.5481
vn -0.5481 0.8050 -0.2270
vn 0.5481 0.8050 -0.2270
vn 0.2270 0.8050 0.5481
vn -0.5481 0.8050 0.2270
vn -0.2270 0.8050 -0.5481
vn 0.2270 0.8050 -0.5481
vn 0.0000 1.0000 0.0000
vn 0.1035 0.9627 -0.2498
vn 0.2498 0.9627 0.1035
vn -0.1035 0.9627 0.2498
vn -0.2498 0.9627 -0.1035
vn 0.2498 0.9627 -0.1035
vn 0.1035 0.9627 0.2498
vn -0.2498 0.9627 0.1035
usemtl None
s off
f 1/1/1 9/2/1 2/3/1
f 2/3/2 9/2/2 3/4/2
f 3/4/3 9/2/3 4/5/3
f 4/5/4 9/2/4 5/6/4
f 5/7/5 9/2/5 6/8/5
f 6/8/6 9/2/6 7/9/6
f 7/9/7 9/2/7 8/10/7
f 8/10/8 9/2/8 1/1/8
f 4/11/9 5/12/9 14/13/9 13/14/9
f 12/15/10 13/14/10 21/16/10 20/17/10
f 3/18/11 4/11/11 13/14/11 12/15/11
f 2/19/12 3/18/12 12/15/12 11/20/12
f 8/21/13 1/22/13 10/23/13 17/24/13
f 7/25/14 8/21/14 17/24/14 16/26/14
f 6/27/15 7/25/15 16/26/15 15/28/15
f 1/22/16 2/19/16 11/20/16 10/23/16
f 5/29/17 6/27/17 15/28/17 14/30/17
f 24/31/18 25/32/18 33/33/18 32/34/18
f 10/23/19 11/20/19 19/35/19 18/36/19
f 17/24/20 10/23/20 18/36/20 25/32/20
f 15/28/21 16/26/21 24/31/21 23/37/21
f 13/14/22 14/13/22 22/38/22 21/16/22
f 11/20/23 12/15/23 20/17/23 19/35/23
f 16/26/24 17/24/24 25/32/24 24/31/24
f 14/30/25 15/28/25 23/37/25 22/39/25
f 29/40/26 30/41/26 38/42/26 37/43/26
f 22/39/27 23/37/27 31/44/27 30/45/27
f 20/17/28 21/16/28 29/46/28 28/47/28
f 18/36/29 19/35/29 27/48/29 26/49/29
f 25/32/30 18/36/30 26/49/30 33/33/30
f 23/37/31 24/31/31 32/34/31 31/44/31
f 21/16/32 22/38/32 30/50/32 29/46/32
f 19/35/33 20/17/33 28/47/33 27/48/33
f 41/51/34 34/52/34 42/53/34 49/54/34
f 27/55/35 28/56/35 36/57/35 35/58/35
f 32/59/36 33/60/36 41/51/36 40/61/36
f 30/41/37 31/62/37 39/63/37 38/42/37
f 28/56/38 29/40/38 37/43/38 36/57/38
f 26/64/39 27/55/39 35/58/39 34/52/39
f 33/60/40 26/64/40 34/52/40 41/51/40
f 31/62/41 32/59/41 40/61/41 39/63/41
f 46/65/42 47/66/42 55/67/42 54/68/42
f 39/63/43 40/61/43 48/69/43 47/70/43
f 37/43/44 38/42/44 46/71/44 45/72/44
f 35/58/45 36/57/45 44/73/45 43/74/45
f 40/61/46 41/51/46 49/54/46 48/69/46
f 38/42/47 39/63/47 47/70/47 46/71/47
f 36/57/48 37/43/48 45/72/48 44/73/48
f 34/52/49 35/58/49 43/74/49 42/53/49
f 56/75/50 57/76/50 65/77/50 64/78/50
f 44/79/51 45/80/51 53/81/51 52/82/51
f 42/83/52 43/84/52 51/85/52 50/86/52
f 49/87/53 42/83/53 50/86/53 57/76/53
f 47/66/54 48/88/54 56/75/54 55/67/54
f 45/80/55 46/65/55 54/68/55 53/81/55
f 43/84/56 44/79/56 52/82/56 51/85/56
f 48/88/57 49/87/57 57/76/57 56/75/57
f 63/89/58 64/78/58 72/90/58 71/91/58
f 54/68/59 55/67/59 63/89/59 62/92/59
f 52/82/60 53/81/60 61/93/60 60/94/60
f 50/86/61 51/85/61 59/95/61 58/96/61
f 57/76/62 50/86/62 58/96/62 65/77/62
f 55/67/63 56/75/63 64/78/63 63/89/63
f 53/81/64 54/68/64 62/92/64 61/93/64
f 51/85/65 52/82/65 60/94/65 59/95/65
f 66/97/66 67/98/66 75/99/66 74/100/66
f 61/93/67 62/92/67 70/101/67 69/102/67
f 59/95/68 60/94/68 68/103/68 67/98/68
f 64/78/69 65/77/69 73/104/69 72/90/69
f 62/92/70 63/89/70 71/91/70 70/101/70
f 60/94/71 61/93/71 69/102/71 68/103/71
f 58/96/72 59/95/72 67/98/72 66/97/72
f 65/77/73 58/96/73 66/97/73 73/104/73
f 74/100/74 75/99/74 76/105/74 77/106/74 78/107/74 79/108/74 80/109/74 81/110/74
f 73/104/75 66/97/75 74/100/75 81/110/75
f 71/91/76 72/90/76 80/109/76 79/108/76
f 69/102/77 70/101/77 78/107/77 77/106/77
f 67/98/78 68/103/78 76/105/78 75/99/78
f 72/90/79 73/104/79 81/110/79 80/109/79
f 70/101/80 71/91/80 79/108/80 78/107/80
f 68/103/81 69/102/81 77/106/81 76/105/81
