# This file uses centimeters as units for non-parametric coordinates.

v -1.500000 0.000000 0.674798
v 1.500000 0.000000 0.674798
v -1.500000 1.325000 0.872537
v 1.500000 1.325000 0.872537
v -1.500000 1.325000 0.298742
v 1.500000 1.325000 0.298742
v -1.500000 0.000000 0.298742
v 1.500000 0.000000 0.298742
v 1.252144 1.325000 0.298742
v 1.252144 0.000000 0.298742
v -1.252144 1.325000 0.298742
v -1.252144 0.000000 0.298742
v -1.500000 1.325000 -0.872537
v -1.252144 1.325000 -0.872537
v -1.252144 0.000000 -0.872537
v -1.500000 0.000000 -0.872537
v 1.252144 1.325000 -0.872537
v 1.252144 0.000000 -0.872537
v 1.500000 1.325000 -0.872537
v 1.500000 0.000000 -0.872537
v -1.500000 2.431718 0.298742
v -1.500000 2.431718 -0.872537
v 1.500000 2.431718 0.298742
v 1.500000 2.431718 -0.872537
v -1.500000 2.431718 0.379158
v -1.500000 3.034626 -0.286898
v 1.500000 2.431718 0.379158
v 1.500000 3.034626 -0.286898
v -1.500000 2.196929 0.379157
v 1.500000 2.196929 0.379157
v -1.500000 1.240738 0.674798
v 1.500000 1.240738 0.674798
v -1.500000 1.240738 0.872537
v 1.500000 1.240738 0.872537
v -1.252144 2.431718 -0.872537
v -1.252144 2.431718 -0.872537
v 1.252144 2.431718 -0.872537
v 1.252144 2.431718 -0.872537
v -1.500000 1.325000 0.298742
v -1.252144 2.431718 0.298742
v 1.500000 1.325000 0.298742
v 1.252144 2.431718 0.298742
v -1.252144 2.431718 -0.872537
v 1.252144 2.431718 -0.872537
v 1.252144 2.431718 -0.872537
v -1.252144 2.431718 -0.872537
vt 0.544763 0.824385
vt 0.616985 0.824385
vt 0.506607 0.442650
vt 0.506607 0.480199
vt 0.970416 0.502408
vt 0.569652 0.834990
vt 0.970416 0.479837
vt 0.310405 0.013088
vt 0.310405 0.242348
vt 0.675381 0.013152
vt 0.675381 0.242255
vt 0.544763 0.834990
vt 0.506607 0.502767
vt 0.764409 0.685087
vt 0.544662 0.603932
vt 0.015779 0.940492
vt 0.547490 0.940569
vt 0.616985 0.685087
vt 0.690696 0.609201
vt 0.844043 0.607410
vt 0.482175 0.461718
vt 0.917754 0.683295
vt 0.770330 0.683295
vt 0.616985 0.991157
vt 0.764409 0.824385
vt 0.764409 0.991157
vt 0.569652 0.991157
vt 0.482175 0.654710
vt 0.506607 0.603932
vt 0.965087 0.989366
vt 0.917754 0.989366
vt 0.917754 0.822593
vt 0.970416 0.603932
vt 0.015535 0.461718
vt 0.965087 0.833199
vt 0.547490 0.979885
vt 0.292951 0.012938
vt 0.015535 0.654710
vt 0.970416 0.442288
vt 0.770330 0.822593
vt 0.770330 0.989366
vt 0.989976 0.822593
vt 0.989976 0.833199
vt 0.932349 0.603932
vt 0.310405 0.434089
vt 0.675381 0.434169
vt 0.606863 0.685087
vt 0.148887 0.442641
vt 0.927876 0.683295
vt 0.945763 0.623228
vt 0.988186 0.623228
vt 0.988186 0.812653
vt 0.945763 0.812653
vt 0.945763 0.623228
vt 0.988186 0.623228
vt 0.988186 0.812653
vt 0.945763 0.812653
vt 0.787944 0.240269
vt 0.787944 0.012797
vt 0.989025 0.012797
vt 0.989025 0.240269
vt 0.786670 0.012797
vt 0.987751 0.012797
vt 0.987752 0.240269
vt 0.786670 0.240269
vt 0.052118 0.917186
vt 0.052983 0.693914
vt 0.437292 0.693983
vt 0.438351 0.917185
vt 0.474981 0.693773
vt 0.474697 0.681552
vt 0.015965 0.693914
vt 0.015965 0.681622
vt 0.786670 0.430267
vt 0.987752 0.430267
vt 0.148869 0.012938
vt 0.011319 0.442641
vt 0.011279 0.012938
vt 0.989025 0.430268
vt 0.787943 0.430267
vt 0.015779 0.979807
vt 0.292888 0.442641
vn 0.000000 1.000000 0.000000
vn 0.000000 1.000000 0.000000
vn 0.000000 1.000000 0.000000
vn -1.000000 -0.000001 0.000000
vn -1.000000 -0.000001 0.000000
vn -1.000000 -0.000001 0.000000
vn -1.000000 -0.000001 0.000000
vn 0.000000 1.000000 0.000000
vn 0.000000 1.000000 0.000000
vn 0.000000 1.000000 0.000000
vn -0.000000 1.000000 -0.000000
vn -0.000000 1.000000 -0.000000
vn -0.000000 1.000000 -0.000000
vn -0.000000 1.000000 -0.000000
vn 0.000000 0.000000 1.000000
vn 0.000000 0.000000 1.000000
vn 0.000000 0.000000 1.000000
vn 0.000000 0.000000 1.000000
vn 1.000000 -0.000000 0.000000
vn 1.000000 -0.000000 0.000000
vn 1.000000 -0.000000 0.000000
vn 1.000000 -0.000000 0.000000
vn -1.000000 0.000000 0.000000
vn -1.000000 0.000000 0.000000
vn -1.000000 0.000000 0.000000
vn -1.000000 0.000000 0.000000
vn 0.000000 0.000000 1.000000
vn 0.000000 0.000000 1.000000
vn 0.000000 0.000000 1.000000
vn 0.000000 0.000000 1.000000
vn -0.000001 0.000000 1.000000
vn -0.000001 0.000000 1.000000
vn -0.000001 0.000000 1.000000
vn -0.000001 0.000000 1.000000
vn -1.000000 0.000000 0.000000
vn -1.000000 0.000000 0.000000
vn -1.000000 0.000000 0.000000
vn -1.000000 0.000000 0.000000
vn 0.000000 0.000000 1.000000
vn 0.000000 0.000000 1.000000
vn 0.000000 0.000000 1.000000
vn 0.000000 0.000000 1.000000
vn 0.000000 0.741377 0.671089
vn 0.000000 0.741377 0.671089
vn 0.000000 0.741377 0.671089
vn 0.000000 0.741377 0.671089
vn 0.000000 0.696760 -0.717305
vn 0.000000 0.696760 -0.717305
vn 0.000000 0.696760 -0.717305
vn 0.000000 0.696760 -0.717305
vn 0.000000 0.000000 1.000000
vn 0.000000 0.000000 1.000000
vn 0.000000 0.000000 1.000000
vn 0.000000 0.000000 1.000000
vn 1.000000 -0.000000 -0.000000
vn 1.000000 -0.000000 -0.000000
vn 1.000000 -0.000000 -0.000000
vn 1.000000 -0.000000 -0.000000
vn -1.000000 0.000000 -0.000000
vn -1.000000 0.000000 -0.000000
vn -1.000000 0.000000 -0.000000
vn -1.000000 0.000000 -0.000000
vn 0.000000 -1.000000 0.000000
vn 0.000000 -1.000000 0.000000
vn 0.000000 -1.000000 0.000000
vn 0.000000 -1.000000 0.000000
vn 0.000000 -1.000000 0.000000
vn 0.000000 -1.000000 0.000000
vn 0.000000 -1.000000 0.000000
vn 0.000000 -1.000000 0.000000
vn 0.000000 -1.000000 0.000000
vn 0.000000 -1.000000 0.000000
vn 1.000000 0.000000 0.000000
vn 1.000000 0.000000 0.000000
vn 1.000000 0.000000 0.000000
vn 1.000000 0.000000 0.000000
vn 0.000000 -1.000000 0.000001
vn 0.000000 -1.000000 0.000001
vn 0.000000 -1.000000 0.000001
vn 0.000000 -1.000000 0.000001
vn 0.000000 0.000000 -0.000000
vn 0.000000 0.000000 -0.000000
vn 0.000000 0.000000 -0.000000
vn 0.000000 0.000000 -0.000000
vn 0.000000 -0.000000 1.000000
vn 0.000000 -0.000000 1.000000
vn 0.000000 -0.000000 1.000000
vn 0.000000 -0.000000 1.000000
vn -1.000000 0.000000 0.000000
vn -1.000000 0.000000 0.000000
vn -1.000000 0.000000 0.000000
vn -1.000000 0.000000 0.000000
vn -1.000000 0.000000 0.000000
vn -1.000000 0.000000 0.000000
vn -1.000000 0.000000 0.000000
vn -1.000000 0.000000 0.000000
vn 0.000000 0.000000 1.000000
vn 0.000000 0.000000 1.000000
vn 0.000000 0.000000 1.000000
vn 0.000000 0.000000 1.000000
vn 1.000000 0.000000 0.000000
vn 1.000000 0.000000 0.000000
vn 1.000000 0.000000 0.000000
vn 1.000000 0.000000 0.000000
vn 1.000000 0.000000 0.000000
vn 1.000000 0.000000 0.000000
vn 1.000000 0.000000 0.000000
vn 1.000000 0.000000 0.000000
vn 1.000000 0.000000 0.000000
vn 1.000000 0.000000 0.000000
vn 0.000000 -1.000000 0.000000
vn 0.000000 -1.000000 0.000000
vn 0.000000 -1.000000 0.000000
vn 0.000000 -1.000000 0.000000
vn 1.000000 0.000000 0.000000
vn 1.000000 0.000000 0.000000
vn 1.000000 0.000000 0.000000
vn 1.000000 0.000000 0.000000
vn -1.000000 0.000000 0.000000
vn -1.000000 0.000000 0.000000
vn -1.000000 0.000000 0.000000
vn -1.000000 0.000000 0.000000
s off
f 3/13/1 11/15/2 5/29/3
f 3/1/4 5/2/5 31/6/6 33/12/7
f 4/5/8 6/33/9 9/44/10
f 3/13/11 4/5/12 9/44/13 11/15/14
f 3/13/15 33/4/16 34/7/17 4/5/18
f 11/58/19 12/59/20 15/60/21 14/61/22
f 18/62/23 10/63/24 9/64/25 17/65/26
f 17/11/27 14/9/28 15/8/29 18/10/30
f 39/50/31 11/51/32 40/52/33 21/53/34
f 22/14/35 21/18/36 25/47/37 26/19/38
f 9/54/39 41/55/40 23/56/41 42/57/42
f 27/82/43 28/48/44 26/76/45 25/37/46
f 26/76/47 28/48/48 24/77/49 22/78/50
f 14/9/51 17/11/52 37/46/53 35/45/54
f 11/58/55 14/61/56 43/79/57 40/80/58
f 17/65/59 9/64/60 42/75/61 44/74/62
f 45/66/63 42/67/64 40/68/65 46/69/66
f 21/70/67 40/68/68 25/71/69
f 42/67/70 23/72/71 27/73/72
f 28/20/73 27/49/74 23/22/75 24/23/76
f 40/68/77 42/67/78 27/73/79 25/71/80
f 38//81 36//82 22//83 24//84
f 27/36/85 25/81/86 29/16/87 30/17/88
f 7/24/89 5/2/90 13/25/91 16/26/92
f 7/24/93 1/27/94 31/6/95 5/2/96
f 32/28/97 31/38/98 1/34/99 2/21/100
s 1
f 2/30/101 8/31/102 6/32/103 32/35/104
s off
f 19/40/105 6/32/106 8/31/107 20/41/108
s 1
f 4/42/109 34/43/110 32/35/104 6/32/103
s off
f 31/3/111 32/39/112 34/7/113 33/4/114
f 6/32/115 19/40/116 24/23/117 23/22/118
f 13/25/119 5/2/120 21/18/121 22/14/122
