# Blender v2.79 (sub 0) OBJ File: 'lebkuchenherz.blend'
# www.blender.org
o Circle_Circle.001
v -0.893282 0.562584 -0.089880
v -0.497223 0.828327 -0.089880
v 0.002778 0.446388 -0.089880
v 0.502778 0.828327 -0.089881
v 0.898837 0.562585 -0.089881
v 1.002778 0.137939 -0.089881
v 0.868803 -0.362061 -0.089881
v 0.502778 -0.728086 -0.089881
v 0.002778 -1.111727 -0.089880
v -0.497222 -0.728087 -0.089880
v -0.863248 -0.362062 -0.089880
v -0.997222 0.137939 -0.089880
v -0.497222 -0.728087 -0.287672
v -0.863248 -0.362062 -0.287672
v 0.898837 0.562585 -0.287673
v 1.002778 0.137939 -0.287673
v -0.997222 0.137939 -0.287672
v -0.893282 0.562584 -0.287672
v 0.502778 0.828327 -0.287673
v -0.497223 0.828327 -0.287672
v 0.868803 -0.362061 -0.287673
v 0.502778 -0.728086 -0.287673
v 0.002778 0.446388 -0.287672
v 0.002778 -1.111727 -0.287673
vt 0.208598 0.879930
vt 0.184776 0.782603
vt 0.215482 0.668004
vt 0.299374 0.584113
vt 0.413971 0.496184
vt 0.528570 0.584113
vt 0.612461 0.668004
vt 0.643168 0.782602
vt 0.619345 0.879930
vt 0.528570 0.940837
vt 0.413972 0.853298
vt 0.299374 0.940837
vt 0.619345 0.435096
vt 0.528570 0.496003
vt 0.413972 0.408465
vt 0.299374 0.496003
vt 0.208598 0.435096
vt 0.184776 0.337769
vt 0.215482 0.223171
vt 0.299374 0.139280
vt 0.413971 0.051351
vt 0.528570 0.139280
vt 0.612461 0.223171
vt 0.643168 0.337769
vt 0.730436 0.783424
vt 0.730437 0.711698
vt 0.757843 0.711698
vt 0.757843 0.783424
vt 0.730437 0.497850
vt 0.730437 0.410668
vt 0.757844 0.410668
vt 0.757844 0.497851
vt 0.730438 0.284003
vt 0.730438 0.212277
vt 0.757845 0.212277
vt 0.757845 0.284003
vt 0.730437 0.651121
vt 0.757844 0.651121
vt 0.730438 0.140551
vt 0.730438 0.053225
vt 0.757845 0.053226
vt 0.757845 0.140551
vt 0.730436 0.855149
vt 0.757843 0.855149
vt 0.730438 0.344580
vt 0.757844 0.344580
vt 0.730436 0.942475
vt 0.757843 0.942475
vt 0.730437 0.585033
vt 0.757844 0.585033
vn 0.0000 -0.0000 1.0000
vn -0.0000 0.0000 -1.0000
vn -0.9659 -0.2588 0.0000
vn -0.6070 0.7947 0.0000
vn 0.9659 -0.2588 -0.0000
vn -0.9713 0.2378 0.0000
vn 0.6087 -0.7934 -0.0000
vn -0.7071 -0.7071 0.0000
vn 0.7071 -0.7071 -0.0000
vn 0.5572 0.8304 -0.0000
vn -0.6087 -0.7934 0.0000
vn 0.9713 0.2378 -0.0000
vn 0.6070 0.7947 0.0000
vn -0.5572 0.8304 0.0000
s off
f 1/1/1 12/2/1 11/3/1 10/4/1 9/5/1 8/6/1 7/7/1 6/8/1 5/9/1 4/10/1 3/11/1 2/12/1
f 18/13/2 20/14/2 23/15/2 19/16/2 15/17/2 16/18/2 21/19/2 22/20/2 24/21/2 13/22/2 14/23/2 17/24/2
f 11/25/3 12/26/3 17/27/3 14/28/3
f 3/29/4 4/30/4 19/31/4 23/32/4
f 6/33/5 7/34/5 21/35/5 16/36/5
f 12/26/6 1/37/6 18/38/6 17/27/6
f 8/39/7 9/40/7 24/41/7 22/42/7
f 10/43/8 11/25/8 14/28/8 13/44/8
f 7/34/9 8/39/9 22/42/9 21/35/9
f 4/30/10 5/45/10 15/46/10 19/31/10
f 9/47/11 10/43/11 13/44/11 24/48/11
f 5/45/12 6/33/12 16/36/12 15/46/12
f 2/49/13 3/29/13 23/32/13 20/50/13
f 1/37/14 2/49/14 20/50/14 18/38/14
