# Blender v2.79 (sub 0) OBJ File: 'loli.blend'
# www.blender.org
o Circle
v 0.000000 2.657061 -0.143252
v -0.683684 2.373870 -0.143252
v -0.966875 1.690186 -0.143252
v -0.683684 1.006502 -0.143252
v 0.000000 0.723311 -0.143252
v 0.683684 1.006502 -0.143252
v 0.966875 1.690186 -0.143252
v 0.683684 2.373870 -0.143252
v -0.683684 2.373870 0.121140
v 0.000000 2.657061 0.121140
v -0.966875 1.690186 0.121140
v -0.683684 1.006502 0.121140
v 0.000000 0.723311 0.121140
v 0.683684 1.006502 0.121140
v 0.966875 1.690186 0.121140
v 0.683684 2.373870 0.121140
v 0.000000 -0.849604 -0.115636
v 0.000000 1.080346 -0.115633
v 0.109975 1.080346 -0.035731
v 0.109975 -0.849604 -0.035734
v 0.067967 1.080346 0.093551
v 0.067967 -0.849604 0.093549
v -0.067967 1.080346 0.093551
v -0.067967 -0.849604 0.093549
v -0.109975 1.080346 -0.035731
v -0.109975 -0.849604 -0.035734
vt 0.212929 0.409051
vt 0.419953 0.409051
vt 0.566341 0.555439
vt 0.566341 0.762463
vt 0.419953 0.908851
vt 0.212929 0.908851
vt 0.066541 0.762463
vt 0.066541 0.555439
vt 0.419953 0.908851
vt 0.212929 0.908851
vt 0.066541 0.762463
vt 0.066541 0.555439
vt 0.212929 0.409051
vt 0.419953 0.409051
vt 0.566341 0.555439
vt 0.566341 0.762463
vt 0.729990 0.105393
vt 0.614995 0.105393
vt 0.614995 0.064308
vt 0.729990 0.064308
vt 0.959981 0.105393
vt 0.844985 0.105393
vt 0.844985 0.064308
vt 0.959981 0.064307
vt 0.270010 0.105393
vt 0.155015 0.105393
vt 0.155015 0.064308
vt 0.270010 0.064308
vt 0.500000 0.105393
vt 0.385005 0.105393
vt 0.385005 0.064308
vt 0.500000 0.064308
vt 0.040019 0.105393
vt 0.040019 0.064308
vt 0.830671 0.202551
vt 0.830670 0.922449
vt 0.779963 0.922449
vt 0.779962 0.202551
vt 0.729257 0.922449
vt 0.729255 0.202551
vt 0.678552 0.922449
vt 0.678548 0.202551
vt 0.627846 0.922449
vt 0.627842 0.202551
vt 0.881377 0.202551
vt 0.881376 0.922449
vt 0.922501 0.202551
vt 0.963524 0.232356
vt 0.947854 0.280580
vt 0.897149 0.280580
vt 0.881479 0.232356
vn 0.0000 0.7764 -0.6302
vn 0.5490 0.5490 -0.6302
vn 0.7764 0.0000 -0.6302
vn 0.5490 -0.5490 -0.6302
vn 0.0000 -0.7764 -0.6302
vn -0.5490 -0.5490 -0.6302
vn -0.7764 0.0000 -0.6302
vn -0.5490 0.5490 -0.6302
vn 0.0000 0.7764 0.6302
vn -0.5490 0.5490 0.6302
vn -0.7764 0.0000 0.6302
vn -0.5490 -0.5490 0.6302
vn 0.0000 -0.7764 0.6302
vn 0.5490 -0.5490 0.6302
vn 0.7764 0.0000 0.6302
vn 0.5490 0.5490 0.6302
vn 0.0000 -0.5957 -0.8032
vn 0.0000 0.0000 -1.0000
vn 0.9510 0.0000 -0.3090
vn 0.7639 -0.5957 -0.2482
vn 0.5878 0.0000 0.8090
vn 0.4721 -0.5957 0.6498
vn -0.5878 0.0000 0.8090
vn -0.4721 -0.5957 0.6498
vn -0.9510 0.0000 -0.3090
vn -0.7639 -0.5957 -0.2482
s 1
f 1/1/1 8/2/2 7/3/3 6/4/4 5/5/5 4/6/6 3/7/7 2/8/8
f 10/9/9 9/10/10 11/11/11 12/12/12 13/13/13 14/14/14 15/15/15 16/16/16
f 7/17/3 8/18/2 16/19/16 15/20/15
f 5/21/5 6/22/4 14/23/14 13/24/13
f 3/25/7 4/26/6 12/27/12 11/28/11
f 1/29/1 2/30/8 9/31/10 10/32/9
f 8/18/2 1/29/1 10/32/9 16/19/16
f 6/22/4 7/17/3 15/20/15 14/23/14
f 4/26/6 5/33/5 13/34/13 12/27/12
f 2/30/8 3/25/7 11/28/11 9/31/10
f 17/35/17 18/36/18 19/37/19 20/38/20
f 20/38/20 19/37/19 21/39/21 22/40/22
f 22/40/22 21/39/21 23/41/23 24/42/24
f 24/42/24 23/41/23 25/43/25 26/44/26
f 26/45/26 25/46/25 18/36/18 17/35/17
f 17/47/17 20/48/20 22/49/22 24/50/24 26/51/26
