# Blender v2.79 (sub 0) OBJ File: ''
# www.blender.org
mtllib Mandeln.mtl
o Mandeln_Icosphere.014
v -0.005884 0.126477 -0.681713
v -0.047246 0.105254 -0.609920
v 0.020845 0.069923 -0.644634
v 0.132445 0.285211 -0.388649
v 0.071779 0.250485 -0.457364
v 0.084429 0.264453 -0.368839
v -0.252333 0.252347 -0.444549
v -0.268644 0.204909 -0.444727
v -0.239242 0.279350 -0.349305
v -0.172910 0.245661 -0.466892
v -0.146869 0.207291 -0.456821
v -0.164507 0.163385 -0.503281
v 0.051150 0.178301 -0.487564
v 0.102332 0.180123 -0.504122
v 0.136319 0.231254 -0.464270
v 0.163587 0.166521 -0.459922
v -0.222256 0.294672 -0.388541
v 0.128710 0.275083 -0.337566
v 0.174608 0.219351 -0.407425
v -0.176837 0.272181 -0.367856
v -0.210777 0.185433 -0.501087
v -0.084069 0.419564 -0.247322
v 0.030095 0.428266 -0.230458
v 0.021412 0.363231 -0.278014
v -0.107612 0.369327 -0.275406
v 0.307077 0.220457 -0.397298
v 0.291536 0.190829 -0.400627
v 0.283738 0.281736 -0.305510
v 0.345706 0.184899 -0.392843
v -0.391637 0.217268 -0.392033
v -0.449640 0.150000 -0.416652
v -0.445102 0.254185 -0.361213
v 0.343073 0.255378 -0.355849
v 0.199261 0.186751 -0.482959
v 0.259704 0.143128 -0.452813
v 0.198679 0.138988 -0.478790
v -0.303220 0.189076 -0.485903
v -0.371287 0.151940 -0.450042
v -0.349661 0.210688 -0.460577
v -0.283718 0.149742 -0.474784
v 0.200262 0.252503 -0.416249
v 0.260859 0.227414 -0.435869
v -0.291079 0.254338 -0.429365
v 0.236841 0.264442 -0.332688
v -0.335038 0.093093 -0.526956
v -0.381755 0.104513 -0.554022
v -0.395613 0.176524 -0.487434
v 0.336515 0.139232 -0.495474
v 0.290978 0.169563 -0.484794
v 0.327098 0.151562 -0.440677
v 0.253523 0.117874 -0.540944
v 0.229127 0.078231 -0.533294
v -0.373798 0.053619 -0.547344
v 0.293565 0.092553 -0.548163
v 0.247840 0.055111 -0.548283
v -0.063568 0.062569 -0.751564
v -0.101821 0.129144 -0.687393
v 0.008790 0.069885 -0.726138
v -0.125290 0.056784 -0.723425
v -0.128786 0.077843 -0.647122
v 0.150720 0.113299 -0.597122
v 0.196368 0.075032 -0.620841
v 0.100713 0.075033 -0.662584
v 0.104969 0.105032 -0.597745
v 0.143545 0.105653 -0.551818
v -0.251275 0.117798 -0.598041
v -0.263747 0.111296 -0.537008
v -0.215933 0.115350 -0.596545
v 0.081939 0.072736 -0.612409
v 0.090420 0.022775 -0.661710
v -0.207256 0.083604 -0.655643
v -0.250631 0.066032 -0.655215
v -0.308998 0.088242 -0.606229
v -0.211719 0.028486 -0.658221
v -0.195478 0.196223 -0.543202
v 0.027395 0.087483 -0.620002
v 0.098385 0.183885 -0.546913
v -0.123006 0.149144 -0.575675
v 0.019825 0.157242 -0.563283
v 0.032493 0.129684 -0.617276
v -0.152496 0.130073 -0.617026
v -0.110564 0.104910 -0.601548
v -0.183031 0.072147 -0.619228
v 0.019611 0.202735 -0.504897
v 0.170726 0.362300 -0.278457
v 0.222076 0.323970 -0.315588
v -0.249346 0.358966 -0.291196
v -0.284552 0.270458 -0.344683
v -0.359414 0.263260 -0.330194
v -0.314066 0.320741 -0.324826
v -0.391367 0.291651 -0.301835
v -0.320626 0.350758 -0.284612
v -0.209692 0.333066 -0.289636
v -0.272459 0.375253 -0.241420
v -0.121648 0.278651 -0.380673
v -0.051682 0.306693 -0.407850
v -0.042865 0.229710 -0.458275
v -0.051135 0.317149 -0.331569
v 0.019718 0.286607 -0.372703
v -0.052697 0.165484 -0.578172
v -0.088271 0.228404 -0.490748
v 0.037471 0.019764 -0.697050
v -0.083182 0.016600 -0.747273
v -0.145191 0.019915 -0.702302
v -0.057895 0.132198 -0.637622
v -0.146011 0.019849 -0.696695
v -0.091676 0.436373 -0.192840
v -0.098998 0.434827 -0.196993
v -0.356084 0.257741 -0.405107
v 0.070310 0.334249 -0.326343
v 0.068860 0.376520 -0.239415
v -0.165125 0.340540 -0.326535
v -0.157382 0.404321 -0.221083
v 0.159553 0.372869 -0.227562
v 0.301707 0.275033 -0.290114
v 0.339708 0.266764 -0.341821
v 0.265031 0.299515 -0.269397
v -0.173258 0.021474 -0.683291
v -0.207991 0.023403 -0.642254
v 0.213602 0.029290 -0.608012
v -0.302323 0.365388 -0.278888
v -0.306565 0.029049 -0.619394
v -0.050278 0.440738 -0.160238
v -0.008024 0.434051 -0.188391
v 0.156898 0.378139 -0.228079
v 0.035101 0.419951 -0.199773
v -0.240303 0.025198 -0.645445
v -0.371243 0.047149 -0.532939
v -0.403354 0.067628 -0.528944
v 0.351142 0.126240 -0.433360
v 0.028390 0.429839 -0.216354
v -0.442019 0.266158 -0.346283
v -0.117174 0.427643 -0.198829
v -0.265510 0.376623 -0.236179
v 0.359111 0.110272 -0.466096
v 0.323965 0.081516 -0.525092
v 0.359306 0.116298 -0.464375
v -0.448278 0.098686 -0.503386
v 0.302447 0.067551 -0.527764
v -0.457700 0.106185 -0.489844
v 0.222965 0.029819 -0.583337
v -0.313639 0.357972 -0.285541
v -0.340517 0.030763 -0.585644
v 0.232592 0.030354 -0.578851
v -0.050278 0.014644 -0.736015
v 0.035341 0.019399 -0.708406
v 0.219129 0.334209 -0.251223
v 0.188640 0.355991 -0.236737
v -0.349750 0.031276 -0.553579
v -0.461232 0.110756 -0.471065
v 0.253777 0.031531 -0.575150
v 0.377077 0.289981 -0.454770
v 0.191094 0.437296 -0.395021
v -0.064307 0.007456 0.896156
v -0.064307 0.531096 -0.352950
v 0.389476 0.113147 -0.565268
v 0.287805 0.026956 -0.756606
v -0.064307 0.007456 -0.997913
v -0.505691 0.289981 -0.454770
v -0.319708 0.437296 -0.395021
v -0.518090 0.113147 -0.565268
v -0.416419 0.026956 -0.756606
vt 0.301203 0.387485
vt 0.286490 0.347932
vt 0.326239 0.372208
vt 0.392576 0.198427
vt 0.365991 0.237527
vt 0.363878 0.184622
vt 0.170351 0.228721
vt 0.152680 0.236613
vt 0.171011 0.169851
vt 0.208944 0.240655
vt 0.229536 0.241787
vt 0.218655 0.275458
vt 0.344537 0.263770
vt 0.375935 0.277042
vt 0.395198 0.244611
vt 0.419039 0.256590
vt 0.185295 0.194928
vt 0.394978 0.164285
vt 0.424504 0.216546
vt 0.211169 0.180880
vt 0.189734 0.274268
vt 0.266945 0.082842
vt 0.329020 0.072397
vt 0.327226 0.111852
vt 0.252115 0.108611
vt 0.517696 0.210755
vt 0.504866 0.223524
vt 0.496606 0.137752
vt 0.543983 0.223812
vt 0.077999 0.206709
vt 0.041319 0.235845
vt 0.046695 0.180097
vt 0.541706 0.179699
vt 0.442738 0.258746
vt 0.480212 0.266522
vt 0.440405 0.276542
vt 0.129176 0.251140
vt 0.090206 0.255587
vt 0.110489 0.239399
vt 0.139029 0.265401
vt 0.442981 0.218797
vt 0.472835 0.233986
vt 0.136542 0.219296
vt 0.466079 0.161528
vt 0.111450 0.310939
vt 0.080906 0.315285
vt 0.074674 0.277611
vt 0.521264 0.301173
vt 0.499224 0.288315
vt 0.525699 0.263542
vt 0.478241 0.320037
vt 0.457927 0.325624
vt 0.084412 0.335653
vt 0.495042 0.330241
vt 0.467917 0.344651
vt 0.282712 0.418186
vt 0.268647 0.391066
vt 0.308748 0.409965
vt 0.257140 0.413247
vt 0.246036 0.376348
vt 0.396275 0.345932
vt 0.412459 0.366078
vt 0.375521 0.375073
vt 0.373358 0.343628
vt 0.400211 0.319851
vt 0.169238 0.343565
vt 0.154929 0.308096
vt 0.188760 0.341139
vt 0.360687 0.357829
vt 0.365668 0.390655
vt 0.189281 0.373955
vt 0.171371 0.377741
vt 0.140156 0.355456
vt 0.191954 0.395908
vt 0.201056 0.299356
vt 0.330435 0.355917
vt 0.367851 0.303791
vt 0.241341 0.320261
vt 0.323611 0.312686
vt 0.337792 0.342465
vt 0.223313 0.342091
vt 0.248362 0.345035
vt 0.208874 0.363259
vt 0.323180 0.271602
vt 0.421937 0.110414
vt 0.452623 0.136089
vt 0.164926 0.120154
vt 0.144886 0.168775
vt 0.098456 0.161158
vt 0.128835 0.144105
vt 0.079841 0.139045
vt 0.123316 0.116627
vt 0.189615 0.123418
vt 0.154487 0.086528
vt 0.243598 0.186562
vt 0.284800 0.196723
vt 0.289075 0.239172
vt 0.284741 0.150785
vt 0.325980 0.180906
vt 0.282792 0.318504
vt 0.263752 0.260076
vt 0.332727 0.409784
vt 0.275050 0.434580
vt 0.237404 0.414623
vt 0.281336 0.368465
vt 0.234980 0.412060
vt 0.262082 0.046945
vt 0.257746 0.049876
vt 0.105212 0.207042
vt 0.354953 0.145636
vt 0.356573 0.085028
vt 0.219644 0.144024
vt 0.222570 0.069584
vt 0.410138 0.078055
vt 0.510417 0.125922
vt 0.539690 0.167371
vt 0.484618 0.107988
vt 0.220085 0.407871
vt 0.184558 0.405501
vt 0.429123 0.377874
vt 0.134935 0.110322
vt 0.135884 0.377644
vt 0.286401 0.026478
vt 0.310230 0.045394
vt 0.408285 0.076278
vt 0.336033 0.054430
vt 0.170736 0.392604
vt 0.073917 0.341450
vt 0.062530 0.323505
vt 0.546415 0.265227
vt 0.329068 0.064067
vt 0.048886 0.169474
vt 0.246677 0.052020
vt 0.158629 0.083450
vt 0.546415 0.293594
vt 0.516421 0.329339
vt 0.545091 0.290932
vt 0.039465 0.300171
vt 0.506272 0.340559
vt 0.033842 0.289938
vt 0.444935 0.368016
vt 0.128317 0.115644
vt 0.112046 0.362451
vt 0.451359 0.366967
vt 0.290785 0.431041
vt 0.328579 0.414648
vt 0.452664 0.091842
vt 0.430573 0.082198
vt 0.090756 0.356128
vt 0.030331 0.276848
vt 0.465017 0.368075
vt 0.490070 0.652713
vt 0.490070 0.690853
vt 0.062860 0.733774
vt 0.490070 0.733774
vt 0.490070 0.620149
vt 0.490070 0.584400
vt 0.490070 0.519283
vt 0.490070 0.814835
vt 0.490070 0.776696
vt 0.490070 0.847400
vt 0.490070 0.883149
vt 0.490070 0.948265
vn 0.5423 0.8236 -0.1663
vn 0.0876 0.9390 -0.3326
vn 0.5622 0.7515 -0.3452
vn 0.3161 0.9447 -0.0877
vn -0.5602 0.6982 -0.4458
vn -0.0327 0.8656 -0.4996
vn -0.6478 0.5940 -0.4769
vn -0.0637 0.5807 -0.8116
vn -0.2241 0.8348 -0.5028
vn 0.4206 0.6849 -0.5950
vn 0.1836 0.8030 -0.5670
vn 0.1146 0.9104 -0.3975
vn 0.0556 0.8592 -0.5086
vn 0.2949 0.7673 -0.5694
vn 0.4955 0.5504 -0.6720
vn 0.1498 0.5416 -0.8272
vn -0.1264 0.9896 -0.0689
vn 0.2136 0.8178 -0.5343
vn 0.0001 0.8895 -0.4569
vn 0.0216 0.8512 -0.5244
vn -0.3178 0.7585 -0.5689
vn -0.1370 0.7658 -0.6284
vn 0.4246 0.8124 -0.3997
vn 0.0891 0.7294 -0.6782
vn -0.0977 0.7112 -0.6961
vn -0.1650 0.4879 -0.8572
vn 0.3710 0.5582 -0.7421
vn 0.3199 0.8588 -0.4003
vn 0.2685 0.4370 -0.8585
vn -0.4441 0.6061 -0.6598
vn -0.4260 0.7501 -0.5058
vn 0.0560 0.6869 -0.7246
vn 0.0033 0.7499 -0.6615
vn -0.1255 0.3245 -0.9375
vn 0.0607 0.7592 -0.6480
vn 0.1595 0.4717 -0.8672
vn 0.1186 0.1739 -0.9776
vn -0.1111 0.7986 -0.5916
vn -0.5023 0.4184 -0.7567
vn -0.2330 0.5000 -0.8341
vn -0.3635 0.8861 -0.2877
vn 0.5820 0.6012 -0.5476
vn 0.3964 0.7907 -0.4665
vn 0.2072 0.6790 -0.7043
vn -0.0368 0.8178 -0.5743
vn -0.0431 0.2918 -0.9555
vn 0.0361 0.9614 -0.2728
vn 0.6584 0.5721 -0.4891
vn -0.0912 0.9787 -0.1839
vn 0.5326 0.8400 -0.1036
vn -0.4293 0.5781 -0.6939
vn 0.0258 0.7215 -0.6919
vn -0.6739 -0.3529 -0.6491
vn 0.3375 0.0771 -0.9382
vn 0.0873 0.5381 -0.8383
vn 0.0093 0.2571 -0.9663
vn -0.4944 0.8358 -0.2387
vn 0.6170 0.3245 -0.7170
vn -0.7230 0.2741 -0.6342
vn -0.9115 0.3446 0.2244
vn 0.1633 0.9625 -0.2164
vn 0.6177 0.4131 -0.6692
vn -0.2983 0.4284 -0.8529
vn 0.1190 0.7637 -0.6345
vn 0.4445 0.8531 -0.2733
vn -0.1800 0.9493 -0.2578
vn -0.4501 0.8219 -0.3492
vn -0.1834 0.7817 -0.5961
vn -0.1960 0.5951 -0.7794
vn 0.1558 0.4321 -0.8883
vn 0.3818 0.4855 -0.7864
vn -0.3420 0.2272 -0.9118
vn -0.5671 0.6165 -0.5462
vn -0.1739 -0.4580 -0.8718
vn -0.1166 0.9721 -0.2033
vn 0.0611 0.5864 -0.8077
vn 0.3267 0.9044 -0.2743
vn 0.0740 0.7615 -0.6439
vn 0.0020 0.8086 -0.5883
vn -0.3770 0.4390 -0.8156
vn 0.1162 0.4208 -0.8997
vn 0.0317 0.6175 -0.7859
vn 0.1996 0.5669 -0.7993
vn 0.4698 0.8436 -0.2603
vn -0.1318 0.9039 -0.4070
vn 0.3254 0.6919 -0.6445
vn 0.2935 0.8256 -0.4818
vn -0.0566 0.7503 -0.6587
vn -0.1959 0.7792 -0.5954
vn -0.2596 0.5399 -0.8007
vn -0.0572 0.6726 -0.7378
vn -0.5886 0.5631 -0.5800
vn -0.0169 0.7875 -0.6161
vn 0.0799 0.8870 -0.4549
vn -0.2210 0.7315 -0.6451
vn -0.0295 0.8244 -0.5652
vn 0.0929 0.8630 -0.4966
vn 0.0021 0.8551 -0.5184
vn 0.2217 0.7471 -0.6266
vn 0.0271 0.6542 -0.7558
vn -0.1936 0.9463 -0.2590
vn 0.7435 0.5759 -0.3399
vn -0.1727 -0.0786 -0.9818
vn -0.8861 0.2535 -0.3879
vn -0.0627 0.8869 0.4577
vn -0.7325 0.5839 -0.3499
vn -0.0097 0.9668 -0.2555
vn -0.1638 0.9294 -0.3307
vn -0.4497 0.8250 -0.3424
vn 0.2820 0.7596 -0.5861
vn 0.2888 0.7197 -0.6314
vn -0.2459 0.7749 -0.5822
vn -0.1816 0.7684 -0.6137
vn 0.0859 0.7009 -0.7081
vn 0.3777 0.9251 -0.0381
vn -0.0842 0.8527 -0.5155
vn 0.5569 0.8224 -0.1164
vn -0.3140 0.6679 -0.6748
vn -0.1526 -0.9515 -0.2673
vn 0.7778 0.1218 -0.6166
vn -0.0305 0.8263 -0.5623
vn -0.6149 0.0598 -0.7863
vn 0.0368 0.9833 -0.1784
vn 0.0340 0.9920 -0.1217
vn 0.1247 0.1165 -0.9853
vn 0.6674 0.7135 -0.2134
vn -0.3299 -0.4283 -0.8413
vn -0.6210 -0.7502 -0.2268
vn -0.5995 -0.2800 -0.7498
vn 0.6646 0.7175 -0.2084
vn 0.4656 0.8840 -0.0422
vn 0.1502 0.7601 -0.6322
vn -0.2947 0.8749 -0.3843
vn -0.0698 0.7399 -0.6691
vn 0.8339 0.1001 -0.5427
vn 0.6537 -0.0020 -0.7568
vn 0.8482 0.4336 -0.3043
vn -0.5799 0.3860 -0.7174
vn 0.4002 -0.3406 -0.8508
vn -0.6428 0.5826 -0.4973
vn 0.7621 0.4158 -0.4964
vn -0.2720 0.6999 -0.6604
vn -0.7538 -0.0127 -0.6570
vn 0.2177 0.7025 -0.6775
vn 0.3108 -0.1650 -0.9360
vn 0.8197 0.2593 -0.5107
vn 0.5543 0.8256 -0.1060
vn 0.5155 0.8519 -0.0925
vn -0.6942 -0.6945 -0.1888
vn -0.7114 0.6347 -0.3016
vn 0.0713 0.7574 -0.6490
vn 0.9150 0.2121 0.3433
vn 0.5351 0.7642 0.3602
vn 0.0000 -0.1737 0.9848
vn 0.0000 0.9222 0.3866
vn 0.7268 -0.6635 0.1777
vn 0.1947 -0.9804 0.0299
vn 0.0000 -1.0000 -0.0000
vn -0.9150 0.2121 0.3433
vn -0.5351 0.7642 0.3602
vn -0.7268 -0.6635 0.1777
vn -0.1947 -0.9804 0.0299
usemtl Mandel
s 1
f 1/1/1 2/2/2 3/3/3
f 4/4/4 5/5/5 6/6/6
f 7/7/7 8/8/8 9/9/9
f 10/10/10 11/11/11 12/12/12
f 6/6/6 5/5/5 13/13/13
f 14/14/14 15/15/15 16/16/16
f 7/7/7 9/9/9 17/17/17
f 4/4/4 18/18/18 19/19/19
f 17/17/17 9/9/9 20/20/20
f 20/20/20 10/10/10 17/17/17
f 20/20/20 11/11/11 10/10/10
f 10/10/10 12/12/12 21/21/21
f 5/5/5 4/4/4 15/15/15
f 5/5/5 14/14/14 13/13/13
f 15/15/15 19/19/19 16/16/16
f 19/19/19 15/15/15 4/4/4
f 22/22/22 23/23/23 24/24/24
f 24/24/24 25/25/25 22/22/22
f 26/26/26 27/27/27 28/28/28
f 26/26/26 29/29/29 27/27/27
f 30/30/30 31/31/31 32/32/32
f 26/26/26 33/33/33 29/29/29
f 34/34/34 35/35/35 36/36/36
f 37/37/37 38/38/38 39/39/39
f 38/38/38 37/37/37 40/40/40
f 34/34/34 36/36/36 16/16/16
f 41/41/41 42/42/42 34/34/34
f 8/8/8 37/37/37 43/43/43
f 34/34/34 16/16/16 41/41/41
f 41/41/41 16/16/16 19/19/19
f 42/42/42 35/35/35 34/34/34
f 39/39/39 38/38/38 30/30/30
f 42/42/42 41/41/41 44/44/44
f 45/45/45 46/46/46 47/47/47
f 48/48/48 49/49/49 50/50/50
f 38/38/38 45/45/45 47/47/47
f 51/51/51 35/35/35 49/49/49
f 51/51/51 52/52/52 35/35/35
f 46/46/46 45/45/45 53/53/53
f 54/54/54 55/55/55 51/51/51
f 56/56/56 57/57/57 1/1/1
f 38/38/38 47/47/47 31/31/31
f 1/1/1 58/58/58 56/56/56
f 57/57/57 59/59/59 60/60/60
f 56/56/56 59/59/59 57/57/57
f 61/61/61 62/62/62 63/63/63
f 61/61/61 64/64/64 65/65/65
f 66/66/66 67/67/67 68/68/68
f 63/63/63 69/69/69 64/64/64
f 63/63/63 70/70/70 69/69/69
f 68/68/68 71/71/71 66/66/66
f 66/66/66 71/71/71 72/72/72
f 73/73/73 66/66/66 72/72/72
f 74/74/74 72/72/72 71/71/71
f 62/62/62 61/61/61 52/52/52
f 67/67/67 75/75/75 68/68/68
f 75/75/75 21/21/21 12/12/12
f 69/69/69 3/3/3 76/76/76
f 77/77/77 14/14/14 65/65/65
f 75/75/75 12/12/12 78/78/78
f 79/79/79 77/77/77 80/80/80
f 80/80/80 76/76/76 79/79/79
f 81/81/81 82/82/82 83/83/83
f 81/81/81 83/83/83 68/68/68
f 78/78/78 81/81/81 75/75/75
f 81/81/81 68/68/68 75/75/75
f 80/80/80 77/77/77 64/64/64
f 13/13/13 14/14/14 79/79/79
f 77/77/77 79/79/79 14/14/14
f 79/79/79 84/84/84 13/13/13
f 81/81/81 78/78/78 82/82/82
f 79/79/79 76/76/76 2/2/2
f 67/67/67 40/40/40 21/21/21
f 65/65/65 14/14/14 16/16/16
f 85/85/85 86/86/86 18/18/18
f 44/44/44 18/18/18 86/86/86
f 16/16/16 52/52/52 65/65/65
f 87/87/87 9/9/9 88/88/88
f 89/89/89 90/90/90 88/88/88
f 89/89/89 91/91/91 92/92/92
f 87/87/87 88/88/88 90/90/90
f 87/87/87 93/93/93 9/9/9
f 87/87/87 94/94/94 93/93/93
f 44/44/44 86/86/86 28/28/28
f 95/95/95 96/96/96 97/97/97
f 98/98/98 96/96/96 95/95/95
f 96/96/96 98/98/98 99/99/99
f 96/96/96 99/99/99 97/97/97
f 99/99/99 13/13/13 97/97/97
f 95/95/95 97/97/97 11/11/11
f 36/36/36 35/35/35 52/52/52
f 54/54/54 51/51/51 48/48/48
f 49/49/49 48/48/48 51/51/51
f 49/49/49 35/35/35 50/50/50
f 78/78/78 100/100/100 2/2/2
f 11/11/11 101/101/101 78/78/78
f 78/78/78 12/12/12 11/11/11
f 101/101/101 97/97/97 84/84/84
f 101/101/101 84/84/84 100/100/100
f 101/101/101 11/11/11 97/97/97
f 100/100/100 84/84/84 79/79/79
f 2/2/2 82/82/82 78/78/78
f 101/101/101 100/100/100 78/78/78
f 13/13/13 84/84/84 97/97/97
f 79/79/79 2/2/2 100/100/100
f 77/77/77 65/65/65 64/64/64
f 71/71/71 83/83/83 74/74/74
f 67/67/67 66/66/66 73/73/73
f 52/52/52 61/61/61 65/65/65
f 63/63/63 64/64/64 61/61/61
f 68/68/68 83/83/83 71/71/71
f 67/67/67 73/73/73 45/45/45
f 45/45/45 40/40/40 67/67/67
f 69/69/69 70/70/70 102/102/102
f 51/51/51 55/55/55 52/52/52
f 45/45/45 73/73/73 53/53/53
f 59/59/59 103/103/103 104/104/104
f 105/105/105 1/1/1 57/57/57
f 3/3/3 58/58/58 1/1/1
f 60/60/60 105/105/105 57/57/57
f 82/82/82 106/106/106 83/83/83
f 69/69/69 76/76/76 80/80/80
f 107/107/107 23/23/23 22/22/22 108/108/108
f 60/60/60 82/82/82 2/2/2
f 105/105/105 60/60/60 2/2/2
f 3/3/3 2/2/2 76/76/76
f 105/105/105 2/2/2 1/1/1
f 80/80/80 64/64/64 69/69/69
f 4/4/4 6/6/6 18/18/18
f 7/7/7 17/17/17 10/10/10
f 5/5/5 15/15/15 14/14/14
f 8/8/8 7/7/7 21/21/21
f 21/21/21 75/75/75 67/67/67
f 21/21/21 7/7/7 10/10/10
f 8/8/8 21/21/21 40/40/40
f 9/9/9 93/93/93 20/20/20
f 109/109/109 30/30/30 89/89/89
f 27/27/27 42/42/42 44/44/44
f 38/38/38 31/31/31 30/30/30
f 40/40/40 45/45/45 38/38/38
f 109/109/109 43/43/43 39/39/39
f 8/8/8 88/88/88 9/9/9
f 37/37/37 8/8/8 40/40/40
f 35/35/35 27/27/27 50/50/50
f 35/35/35 42/42/42 27/27/27
f 8/8/8 43/43/43 88/88/88
f 43/43/43 37/37/37 39/39/39
f 43/43/43 109/109/109 88/88/88
f 89/89/89 88/88/88 109/109/109
f 39/39/39 30/30/30 109/109/109
f 41/41/41 19/19/19 44/44/44
f 36/36/36 52/52/52 16/16/16
f 28/28/28 27/27/27 44/44/44
f 44/44/44 19/19/19 18/18/18
f 110/110/110 111/111/111 18/18/18
f 99/99/99 6/6/6 13/13/13
f 25/25/25 98/98/98 95/95/95
f 98/98/98 25/25/25 24/24/24
f 112/112/112 25/25/25 95/95/95
f 98/98/98 24/24/24 99/99/99
f 110/110/110 6/6/6 99/99/99
f 11/11/11 20/20/20 95/95/95
f 24/24/24 23/23/23 111/111/111
f 93/93/93 113/113/113 25/25/25
f 110/110/110 18/18/18 6/6/6
f 24/24/24 110/110/110 99/99/99
f 93/93/93 25/25/25 112/112/112
f 114/114/114 85/85/85 18/18/18
f 20/20/20 93/93/93 112/112/112
f 112/112/112 95/95/95 20/20/20
f 111/111/111 110/110/110 24/24/24
f 25/25/25 113/113/113 22/22/22
f 114/114/114 18/18/18 111/111/111
f 28/28/28 115/115/115 116/116/116
f 28/28/28 117/117/117 115/115/115
f 74/74/74 118/118/118 119/119/119
f 120/120/120 70/70/70 63/63/63
f 121/121/121 94/94/94 87/87/87
f 122/122/122 73/73/73 72/72/72
f 107/107/107 123/123/123 124/124/124
f 125/125/125 111/111/111 126/126/126
f 119/119/119 127/127/127 74/74/74
f 128/128/128 129/129/129 53/53/53
f 29/29/29 130/130/130 27/27/27
f 126/126/126 111/111/111 23/23/23 131/131/131
f 132/132/132 89/89/89 30/30/30 32/32/32
f 133/133/133 113/113/113 134/134/134
f 26/26/26 28/28/28 116/116/116 33/33/33
f 135/135/135 136/136/136 48/48/48 137/137/137
f 46/46/46 53/53/53 129/129/129 138/138/138
f 139/139/139 55/55/55 54/54/54 136/136/136
f 138/138/138 140/140/140 47/47/47 46/46/46
f 127/127/127 122/122/122 72/72/72 74/74/74
f 56/56/56 58/58/58 103/103/103
f 62/62/62 52/52/52 141/141/141 120/120/120
f 121/121/121 87/87/87 90/90/90 142/142/142
f 143/143/143 53/53/53 73/73/73 122/122/122
f 50/50/50 27/27/27 130/130/130
f 144/144/144 141/141/141 52/52/52 55/55/55
f 145/145/145 103/103/103 58/58/58 146/146/146
f 102/102/102 146/146/146 58/58/58 3/3/3
f 118/118/118 74/74/74 83/83/83 106/106/106
f 147/147/147 86/86/86 85/85/85 148/148/148
f 3/3/3 69/69/69 102/102/102
f 117/117/117 28/28/28 86/86/86 147/147/147
f 85/85/85 114/114/114 148/148/148
f 149/149/149 128/128/128 53/53/53 143/143/143
f 22/22/22 113/113/113 133/133/133 108/108/108
f 90/90/90 89/89/89 92/92/92 142/142/142
f 47/47/47 140/140/140 150/150/150 31/31/31
f 124/124/124 131/131/131 23/23/23 107/107/107
f 50/50/50 130/130/130 137/137/137 48/48/48
f 120/120/120 63/63/63 62/62/62
f 55/55/55 139/139/139 151/151/151 144/144/144
f 125/125/125 114/114/114 111/111/111
f 106/106/106 82/82/82 60/60/60
f 103/103/103 59/59/59 56/56/56
f 59/59/59 104/104/104 106/106/106 60/60/60
f 136/136/136 54/54/54 48/48/48
f 93/93/93 94/94/94 134/134/134 113/113/113
f 132/132/132 91/91/91 89/89/89
usemtl Tuete
f 152/152/152 153/153/153 154/154/154
f 155/155/155 154/154/154 153/153/153
f 156/156/156 152/152/152 154/154/154
f 157/157/157 156/156/156 154/154/154
f 158/158/158 157/157/157 154/154/154
f 159/159/159 154/154/154 160/160/160
f 155/155/155 160/160/160 154/154/154
f 161/161/161 154/154/154 159/159/159
f 162/162/162 154/154/154 161/161/161
f 158/163/158 154/154/154 162/162/162
