# Blender v2.79 (sub 0) OBJ File: 'env.blend'
# www.blender.org
o Cube.001_Cube.002
v -0.078888 0.398877 0.750499
v -0.078888 0.556879 0.803768
v -0.143757 0.407746 0.426322
v -0.143757 0.690215 0.398605
v -0.107498 0.475839 0.791752
v -0.195890 0.536552 0.398605
v -0.207124 0.407753 0.277792
v -0.154991 0.235153 0.277792
v -0.154991 0.577089 0.242374
v -0.207124 0.407753 -0.331930
v -0.154991 0.222810 -0.308887
v -0.195890 0.536552 0.489229
v -0.154991 0.578699 -0.239698
v -0.143757 0.732421 0.489143
v 0.000000 0.393208 0.500229
v -0.143757 0.417615 0.637487
v -0.143757 0.671391 0.657285
v -0.143757 0.405605 0.500229
v -0.054833 -0.029175 -0.213319
v -0.135709 -0.029175 -0.213319
v -0.195890 0.536552 0.657531
v -0.154991 0.204431 0.131799
v -0.056224 -0.029175 0.157067
v -0.154991 0.204431 -0.164166
v -0.134318 -0.029175 0.157067
v -0.035551 0.168842 0.277792
v -0.035551 0.168842 0.131799
v -0.035551 0.168842 -0.189957
v -0.035551 0.168842 -0.334677
v -0.135709 -0.029175 -0.311315
v -0.054833 -0.029175 -0.311315
v -0.134318 -0.029175 0.252523
v -0.056224 -0.029175 0.252523
v 0.000000 0.167555 0.277792
v 0.000000 0.168842 0.131799
v 0.000000 0.168842 -0.189957
v 0.000000 0.182587 -0.341543
v 0.000000 0.394502 0.426322
v -0.016689 0.732421 0.398605
v -0.000000 0.388579 0.750499
v -0.000000 0.572900 0.857407
v -0.000000 0.475839 0.861947
v -0.000002 0.718933 0.654538
v 0.000000 0.410993 0.637487
v -0.062262 0.864133 0.461981
v -0.062262 0.864133 0.425766
v -0.113089 0.864133 0.425766
v -0.113089 0.864133 0.461981
v -0.015002 0.733918 0.535616
v 0.078888 0.398877 0.750499
v 0.078888 0.556879 0.803768
v 0.143757 0.407746 0.426322
v 0.143757 0.690215 0.398605
v 0.107498 0.475839 0.791752
v 0.195890 0.536552 0.398605
v 0.207124 0.407753 0.277792
v 0.154991 0.235153 0.277792
v 0.154991 0.577089 0.242374
v 0.207124 0.406105 -0.307214
v 0.154991 0.222810 -0.308887
v 0.195890 0.536552 0.489229
v 0.154991 0.578699 -0.239698
v 0.143757 0.732421 0.489143
v 0.072151 0.728615 0.572239
v 0.143757 0.417615 0.637487
v 0.143757 0.671391 0.657285
v 0.143757 0.405605 0.500229
v 0.054833 -0.029175 -0.213319
v 0.135709 -0.029175 -0.213319
v 0.195890 0.536552 0.657531
v 0.154991 0.204431 0.131799
v 0.056224 -0.029175 0.157067
v 0.154991 0.204431 -0.164166
v 0.134318 -0.029175 0.157067
v 0.035551 0.168842 0.277792
v 0.035551 0.168842 0.131799
v 0.035551 0.168842 -0.189957
v 0.035551 0.168842 -0.334677
v 0.135709 -0.029175 -0.311315
v 0.054833 -0.029175 -0.311315
v 0.134318 -0.029175 0.252523
v 0.056224 -0.029175 0.252523
v 0.143757 0.717322 0.570058
v -0.072197 0.728615 0.572239
v -0.048715 0.718087 0.632108
v 0.048623 0.718087 0.632108
v -0.143757 0.717322 0.570058
v 0.016689 0.732421 0.398605
v 0.000000 0.619295 0.242374
v 0.000000 0.620905 -0.233976
v 0.000000 0.401162 -0.374773
v 0.062262 0.864133 0.461981
v 0.062262 0.864133 0.425766
v 0.113089 0.864133 0.425766
v 0.113089 0.864133 0.461981
v 0.014997 0.733918 0.535616
v -0.000021 0.957848 0.637041
v -0.041301 0.542580 -0.325579
v -0.041315 0.495948 -0.346966
v 0.000000 0.557296 -0.324653
v 0.000000 0.485440 -0.359089
v 0.041301 0.542580 -0.325579
v 0.041315 0.495948 -0.346966
v -0.011930 0.486046 -0.428218
v -0.011934 0.473127 -0.420959
v 0.000000 0.488763 -0.431498
v 0.000000 0.468510 -0.420565
v 0.011930 0.486046 -0.428218
v 0.011934 0.473127 -0.420959
v 0.043098 0.471246 -0.478647
v 0.000000 0.413811 -0.440184
v 0.000000 0.478799 -0.492051
v -0.043113 0.429973 -0.444550
v 0.000000 0.403257 -0.519044
v -0.016689 0.857777 0.337373
v -0.016689 0.875232 0.530142
v -0.000000 0.658826 0.112524
v 0.016689 0.857777 0.337373
v 0.016689 0.875232 0.530142
v 0.056210 0.756936 0.638813
v 0.000001 0.754366 0.673842
v 0.073611 0.763939 0.577506
v -0.017581 0.777283 0.528420
v 0.017583 0.777283 0.528420
v -0.073658 0.763939 0.577506
v -0.056311 0.756936 0.638813
v 0.032499 0.800400 0.636468
v 0.050091 0.806830 0.594272
v -0.010423 0.813222 0.561595
v -0.050136 0.806830 0.594272
v -0.032575 0.800400 0.636468
v -0.000008 0.800956 0.651202
v 0.010407 0.813222 0.561595
v 0.043113 0.429973 -0.444550
v -0.043098 0.471246 -0.478647
vt 0.175951 0.430804
vt 0.168313 0.354703
vt 0.204367 0.366893
vt 0.210591 0.430325
vt 0.021742 0.446847
vt 0.023423 0.408367
vt 0.058100 0.416833
vt 0.067265 0.444534
vt 0.084757 0.335780
vt 0.102832 0.345681
vt 0.112641 0.383195
vt 0.053333 0.492623
vt 0.074235 0.472851
vt 0.164957 0.485097
vt 0.196516 0.492752
vt 0.279022 0.546526
vt 0.267489 0.476974
vt 0.480696 0.452459
vt 0.502140 0.520511
vt 0.447484 0.534767
vt 0.335627 0.549549
vt 0.275538 0.400555
vt 0.555433 0.429318
vt 0.572464 0.522979
vt 0.558485 0.532071
vt 0.452433 0.398245
vt 0.117497 0.427079
vt 0.116383 0.469494
vt 0.132667 0.316365
vt 0.140322 0.365806
vt 0.128306 0.342048
vt 0.172320 0.550343
vt 0.144286 0.539624
vt 0.465482 0.340684
vt 0.508806 0.361964
vt 0.504170 0.380503
vt 0.578966 0.120835
vt 0.578966 0.120835
vt 0.578966 0.120835
vt 0.578966 0.120835
vt 0.463456 0.580581
vt 0.341851 0.596651
vt 0.671044 0.235300
vt 0.609456 0.223818
vt 0.609456 0.122934
vt 0.648504 0.118890
vt 0.667895 0.238544
vt 0.603866 0.218314
vt 0.603866 0.117616
vt 0.644333 0.113703
vt 0.465232 0.594017
vt 0.343627 0.610088
vt 0.578966 0.120835
vt 0.578966 0.120835
vt 0.578966 0.120835
vt 0.578966 0.120835
vt 0.578966 0.120835
vt 0.578966 0.120835
vt 0.578966 0.120835
vt 0.578966 0.120835
vt 0.840279 0.124179
vt 0.784228 0.171553
vt 0.729325 0.086916
vt 0.765973 0.055942
vt 0.737890 0.216672
vt 0.692825 0.105032
vt 0.783183 0.171489
vt 0.729051 0.086578
vt 0.092911 0.519438
vt 0.745724 0.228416
vt 0.694366 0.104774
vt 0.284239 0.335990
vt 0.212810 0.316365
vt 0.839547 0.125494
vt 0.767216 0.055433
vt 0.703984 0.056934
vt 0.740632 0.025959
vt 0.261549 0.611756
vt 0.269997 0.600333
vt 0.703346 0.055079
vt 0.741512 0.023935
vt 0.578966 0.120835
vt 0.578966 0.120835
vt 0.578966 0.120835
vt 0.578966 0.120835
vt 0.187245 0.187132
vt 0.221750 0.189302
vt 0.212797 0.252047
vt 0.176266 0.262732
vt 0.033506 0.164002
vt 0.079069 0.168345
vt 0.068647 0.195709
vt 0.033506 0.202675
vt 0.091831 0.278086
vt 0.121827 0.231817
vt 0.110349 0.268976
vt 0.067236 0.119450
vt 0.087336 0.140249
vt 0.178913 0.132243
vt 0.210956 0.126188
vt 0.297643 0.076337
vt 0.354867 0.076769
vt 0.461215 0.101367
vt 0.510333 0.125452
vt 0.482812 0.180332
vt 0.280598 0.146632
vt 0.284432 0.221843
vt 0.560757 0.118348
vt 0.572607 0.127154
vt 0.552388 0.208972
vt 0.456233 0.231503
vt 0.129470 0.145550
vt 0.128631 0.188112
vt 0.138978 0.299556
vt 0.135705 0.273697
vt 0.148764 0.250431
vt 0.160802 0.076371
vt 0.189586 0.066911
vt 0.536422 0.239973
vt 0.518713 0.236595
vt 0.578966 0.120835
vt 0.578966 0.120835
vt 0.578966 0.120835
vt 0.578966 0.120835
vt 0.480840 0.058728
vt 0.365225 0.031986
vt 0.670669 0.232517
vt 0.649143 0.115915
vt 0.610062 0.119619
vt 0.609183 0.220500
vt 0.674495 0.240608
vt 0.646643 0.116653
vt 0.606335 0.121959
vt 0.609807 0.222598
vt 0.483795 0.045953
vt 0.368179 0.019212
vt 0.578966 0.120835
vt 0.578966 0.120835
vt 0.578966 0.120835
vt 0.578966 0.120835
vt 0.840864 0.122874
vt 0.767156 0.053992
vt 0.730239 0.084646
vt 0.784403 0.169758
vt 0.743695 0.216336
vt 0.694807 0.106316
vt 0.787403 0.169619
vt 0.730376 0.086624
vt 0.108214 0.094275
vt 0.745406 0.226283
vt 0.695126 0.102199
vt 0.465804 0.286524
vt 0.290480 0.285168
vt 0.219432 0.302124
vt 0.842148 0.121708
vt 0.767445 0.054182
vt 0.742077 0.023790
vt 0.705161 0.054445
vt 0.283311 0.009247
vt 0.291288 0.021276
vt 0.740670 0.023588
vt 0.703601 0.056031
vt 0.578966 0.120835
vt 0.578966 0.120835
vt 0.578966 0.120835
vt 0.578966 0.120835
vt 0.645086 0.796640
vt 0.542496 0.708286
vt 0.454298 0.816675
vt 0.608656 0.929584
vt 0.539698 0.704053
vt 0.644754 0.794785
vt 0.607215 0.931034
vt 0.449118 0.815055
vt 0.280066 0.754995
vt 0.335183 0.772140
vt 0.231217 0.949983
vt 0.235478 0.753070
vt 0.067326 0.827893
vt 0.084184 0.808043
vt 0.134994 0.767832
vt 0.384199 0.814475
vt 0.190780 0.753069
vt 0.716003 0.347039
vt 0.772317 0.322501
vt 0.832392 0.387319
vt 0.818610 0.398494
vt 0.772317 0.549050
vt 0.716003 0.524512
vt 0.818610 0.473056
vt 0.832392 0.484231
vt 0.519810 0.396016
vt 0.539841 0.393524
vt 0.503539 0.250401
vt 0.507266 0.267992
vt 0.841103 0.466168
vt 0.844217 0.454188
vt 0.884700 0.457260
vt 0.895195 0.486776
vt 0.847881 0.432004
vt 0.846089 0.422734
vt 0.882586 0.420669
vt 0.883271 0.431749
vt 0.651158 0.376210
vt 0.813210 0.418310
vt 0.651158 0.495341
vt 0.639067 0.435775
vt 0.814996 0.435775
vt 0.813210 0.453240
vt 0.929473 0.431418
vt 0.884333 0.406221
vt 0.894403 0.376558
vt 0.846222 0.441298
vt 0.882745 0.442838
vt 0.843899 0.409874
vt 0.840614 0.397940
vt 0.602707 0.674780
vt 0.602707 0.650464
vt 0.743713 0.650464
vt 0.743713 0.674780
vt 0.962430 0.662621
vt 0.839956 0.813810
vt 0.911821 0.931035
vt 0.499683 0.673550
vt 0.499683 0.651696
vt 0.835504 0.814932
vt 0.905758 0.929172
vt 0.200124 0.633337
vt 0.248283 0.634631
vt 0.246938 0.668388
vt 0.199657 0.666226
vt 0.142261 0.642858
vt 0.150139 0.672940
vt 0.353993 0.651044
vt 0.414571 0.678334
vt 0.399695 0.720828
vt 0.343691 0.681363
vt 0.082566 0.666402
vt 0.098180 0.703534
vt 0.054179 0.678751
vt 0.071366 0.719927
vt 0.296378 0.637069
vt 0.294236 0.670106
vt 0.245377 0.707759
vt 0.211784 0.708494
vt 0.167232 0.716862
vt 0.363244 0.752740
vt 0.322145 0.722937
vt 0.122159 0.739269
vt 0.106384 0.752740
vt 0.278712 0.711107
vn -0.9988 -0.0488 -0.0012
vn -0.8336 0.4984 0.2380
vn -0.7609 0.4746 -0.4424
vn -0.9983 0.0549 -0.0211
vn 0.0000 -0.3157 0.9488
vn 0.0000 0.4489 0.8936
vn -0.5831 0.3804 0.7178
vn -0.6951 -0.2564 0.6717
vn 0.0002 0.2898 0.9571
vn -0.6041 0.4100 0.6833
vn -0.6908 0.5902 0.4175
vn 0.0000 -0.9576 0.2881
vn -0.4263 -0.8431 0.3279
vn -0.5797 -0.8143 0.0285
vn -0.6832 -0.6415 0.3488
vn -0.7577 -0.3727 0.5356
vn -0.9907 -0.0602 0.1217
vn -0.7862 0.0790 -0.6128
vn -0.7536 -0.1901 -0.6292
vn -0.8469 -0.4916 0.2028
vn -0.8724 -0.4443 -0.2037
vn -0.7464 0.6366 -0.1937
vn 0.0370 0.0190 -0.9991
vn 0.0210 -0.6334 -0.7736
vn 0.2021 -0.4715 -0.8584
vn -0.6315 0.7095 -0.3127
vn -0.9575 -0.0323 0.2867
vn -0.6227 -0.7721 0.1267
vn -0.8083 0.5795 -0.1043
vn -0.6406 0.7444 0.1884
vn -0.6361 0.7700 0.0487
vn 0.0000 -0.8894 0.4570
vn 0.0000 -0.9991 0.0423
vn 0.0000 0.9571 -0.2897
vn 0.0000 0.8205 -0.5716
vn -0.3771 0.6661 -0.6435
vn -0.6869 0.4258 -0.5889
vn -0.5224 0.6571 -0.5434
vn 0.4529 0.7098 -0.5395
vn 0.2838 -0.9063 0.3130
vn 0.1716 -0.9299 -0.3253
vn 0.5430 -0.6379 -0.5461
vn -0.5632 -0.6276 -0.5375
vn 0.5086 -0.6366 -0.5797
vn -0.5953 -0.5895 -0.5460
vn 0.0000 -0.9997 -0.0229
vn 0.0000 -1.0000 -0.0022
vn 0.0000 -0.8935 0.4491
vn 0.1693 -0.6361 0.7528
vn 0.5383 -0.6382 0.5503
vn -0.5336 -0.6565 0.5332
vn 0.5793 -0.6320 0.5147
vn 0.0000 -0.9997 -0.0255
vn -0.5652 -0.6203 0.5439
vn 0.0000 0.9334 -0.3588
vn 0.4083 0.7881 0.4605
vn -0.5914 0.6905 0.4164
vn 0.9988 -0.0488 -0.0012
vn 0.9983 0.0549 -0.0211
vn 0.7609 0.4746 -0.4424
vn 0.8336 0.4984 0.2380
vn 0.6951 -0.2564 0.6717
vn 0.5831 0.3804 0.7178
vn 0.6908 0.5903 0.4175
vn 0.6041 0.4100 0.6833
vn 0.4263 -0.8431 0.3279
vn 0.5797 -0.8143 0.0285
vn 0.6832 -0.6415 0.3488
vn 0.7576 -0.3729 0.5357
vn 0.8723 -0.4446 -0.2035
vn 0.8466 -0.4919 0.2029
vn 0.7557 -0.1634 -0.6342
vn 0.8241 0.0674 -0.5624
vn 0.9907 -0.0604 0.1218
vn 0.7466 0.6363 -0.1939
vn -0.1796 -0.4564 -0.8715
vn 0.6380 0.6958 -0.3298
vn 0.6227 -0.7721 0.1267
vn 0.9575 -0.0323 0.2867
vn 0.8083 0.5794 -0.1041
vn 0.6360 0.7701 0.0491
vn 0.6405 0.7444 0.1884
vn 0.0440 -0.7443 -0.6664
vn 0.6562 0.0907 -0.7490
vn 0.6869 0.4258 -0.5889
vn -0.4528 0.7098 -0.5395
vn 0.5224 0.6571 -0.5434
vn -0.2838 -0.9063 0.3130
vn -0.1716 -0.9299 -0.3253
vn 0.5632 -0.6276 -0.5375
vn -0.5430 -0.6379 -0.5461
vn 0.5953 -0.5895 -0.5460
vn -0.5086 -0.6366 -0.5797
vn -0.1693 -0.6361 0.7528
vn -0.5383 -0.6382 0.5503
vn 0.5336 -0.6565 0.5332
vn -0.5793 -0.6320 0.5147
vn 0.5652 -0.6203 0.5439
vn -0.4083 0.7881 0.4605
vn 0.5914 0.6905 0.4164
vn -0.5762 0.6133 0.5402
vn -0.6555 0.6871 -0.3134
vn 0.6555 0.6871 -0.3134
vn 0.5762 0.6133 0.5402
vn 0.6876 0.2852 0.6677
vn 0.8670 0.4793 -0.1360
vn 0.0000 0.9796 0.2008
vn 0.0003 0.2495 0.9684
vn 0.3229 0.5736 -0.7527
vn -0.3228 0.5736 -0.7529
vn -0.8669 0.4794 -0.1365
vn -0.6875 0.2854 0.6677
vn 0.0000 -0.7031 0.7111
vn 0.8178 -0.3282 0.4728
vn -0.6150 0.1413 -0.7757
vn -0.8178 -0.3282 0.4728
vn 0.4004 0.6453 -0.6506
vn -0.8164 -0.4147 0.4018
vn 0.0000 -0.8055 0.5925
vn 0.0000 0.9420 -0.3356
vn 0.6787 0.7110 -0.1837
vn 0.8183 0.4701 -0.3306
vn 0.0000 0.7477 -0.6640
vn -0.6787 0.7110 -0.1837
vn 0.0000 -0.6321 -0.7748
vn 0.8164 -0.4147 0.4018
vn -0.8183 0.4701 -0.3306
vn 0.0000 -0.1374 -0.9905
vn 0.0004 -0.0003 1.0000
vn -0.7813 0.0609 0.6211
vn -0.9467 0.2020 -0.2510
vn 0.3304 0.2976 -0.8957
vn 0.9468 0.2019 -0.2505
vn -0.3301 0.2976 -0.8958
vn 0.7813 0.0608 0.6212
s 1
f 12/1/1 14/2/2 4/3/3 6/4/4
f 42/5/5 41/6/6 2/7/7 5/8/8
f 43/9/9 85/10/10 17/11/11 2/7/7 41/6/6
f 40/12/12 42/5/5 5/8/8 1/13/13
f 18/14/14 12/1/1 6/4/4 3/15/15
f 8/16/16 7/17/17 10/18/18 11/19/19 24/20/20 22/21/21
f 3/15/15 6/4/4 7/17/17 8/16/16
f 6/4/4 4/3/3 9/22/22 7/17/17
f 11/19/19 10/18/18 91/23/23 37/24/24 29/25/25
f 7/17/17 9/22/22 13/26/26 10/18/18
f 1/13/13 5/8/8 21/27/27 16/28/28
f 49/29/29 14/2/2 87/30/30 84/31/31
f 3/15/15 38/32/32 15/33/33 18/14/14
f 13/26/26 90/34/34 100/35/35 98/36/36
f 5/8/8 2/7/7 17/11/11 21/27/27
f 39/37/37 4/38/3 47/39/38 46/40/39
f 28/41/40 27/42/41 22/21/21 24/20/20
f 22/43/21 27/44/41 23/45/42 25/46/43
f 11/47/19 29/48/25 31/49/44 30/50/45
f 36/51/46 35/52/47 27/42/41 28/41/40
f 37/53/24 36/54/46 28/55/40 29/56/25
f 35/57/47 34/58/48 26/59/49 27/60/41
f 27/61/41 26/62/49 33/63/50 23/64/42
f 24/65/20 11/47/19 30/50/45 20/66/51
f 28/67/40 24/65/20 20/66/51 19/68/52
f 18/14/14 15/33/33 44/69/53 16/28/28
f 8/70/16 22/43/21 25/46/43 32/71/54
f 9/22/22 89/72/55 90/34/34 13/26/26
f 4/3/3 39/73/37 89/72/55 9/22/22
f 26/62/49 8/70/16 32/71/54 33/63/50
f 29/74/25 28/67/40 19/68/52 31/75/44
f 16/28/28 44/69/53 40/12/12 1/13/13
f 23/64/42 33/63/50 32/76/54 25/77/43
f 34/78/48 38/32/32 3/15/15 8/16/16 26/79/49
f 31/75/44 19/68/52 20/80/51 30/81/45
f 49/82/29 39/37/37 46/40/39 45/83/56
f 14/84/2 49/82/29 45/83/56 48/85/57
f 4/38/3 14/84/2 48/85/57 47/39/38
f 46/40/39 47/39/38 48/85/57 45/83/56
f 21/27/27 17/11/11 87/30/30 14/2/2 12/1/1
f 16/28/28 21/27/27 12/1/1 18/14/14
f 61/86/58 55/87/59 53/88/60 63/89/61
f 42/90/5 54/91/62 51/92/63 41/93/6
f 43/94/9 41/93/6 51/92/63 66/95/64 86/96/65
f 40/97/12 50/98/66 54/91/62 42/90/5
f 67/99/67 52/100/68 55/87/59 61/86/58
f 57/101/69 71/102/70 73/103/71 60/104/72 59/105/73 56/106/74
f 52/100/68 57/101/69 56/106/74 55/87/59
f 55/87/59 56/106/74 58/107/75 53/88/60
f 60/104/72 78/108/76 37/109/24 91/110/23 59/105/73
f 56/106/74 59/105/73 62/111/77 58/107/75
f 50/98/66 65/112/78 70/113/79 54/91/62
f 96/114/80 64/115/81 83/116/82 63/89/61
f 52/100/68 67/99/67 15/117/33 38/118/32
f 59/105/73 91/110/23 101/119/83 103/120/84
f 54/91/62 70/113/79 66/95/64 51/92/63
f 88/121/85 93/122/86 94/123/87 53/124/60
f 77/125/88 73/103/71 71/102/70 76/126/89
f 71/127/70 74/128/90 72/129/91 76/130/89
f 60/131/72 79/132/92 80/133/93 78/134/76
f 36/135/46 77/125/88 76/126/89 35/136/47
f 37/53/24 78/137/76 77/138/88 36/54/46
f 35/57/47 76/139/89 75/140/94 34/58/48
f 76/141/89 72/142/91 82/143/95 75/144/94
f 73/145/71 69/146/96 79/132/92 60/131/72
f 77/147/88 68/148/97 69/146/96 73/145/71
f 67/99/67 65/112/78 44/149/53 15/117/33
f 57/150/69 81/151/98 74/128/90 71/127/70
f 58/107/75 62/111/77 90/152/34 89/153/55
f 53/88/60 58/107/75 89/153/55 88/154/85
f 75/144/94 82/143/95 81/151/98 57/150/69
f 78/155/76 80/156/93 68/148/97 77/147/88
f 65/112/78 50/98/66 40/97/12 44/149/53
f 72/142/91 74/157/90 81/158/98 82/143/95
f 34/159/48 75/160/94 57/101/69 52/100/68 38/118/32
f 80/156/93 79/161/92 69/162/96 68/148/97
f 96/163/80 92/164/99 93/122/86 88/121/85
f 63/165/61 95/166/100 92/164/99 96/163/80
f 53/124/60 94/123/87 95/166/100 63/165/61
f 93/122/86 92/164/99 95/166/100 94/123/87
f 70/113/79 61/86/58 63/89/61 83/116/82 66/95/64
f 65/112/78 67/99/67 61/86/58 70/113/79
f 39/167/37 49/168/29 116/169/101 115/170/102
f 96/171/80 88/172/85 118/173/103 119/174/104
f 127/175/105 128/176/106 97/177/107
f 132/178/108 127/175/105 97/177/107
f 83/116/82 64/115/81 86/96/65 66/95/64
f 84/31/31 87/30/30 17/11/11 85/10/10
f 133/179/109 129/180/110 97/177/107
f 129/180/110 130/181/111 97/177/107
f 128/176/106 133/182/109 97/177/107
f 130/181/111 131/183/112 97/177/107
f 131/183/112 132/178/108 97/177/107
f 103/184/84 101/185/83 107/186/113 109/187/114
f 101/188/83 99/189/115 105/190/116 107/191/113
f 91/23/23 10/18/18 99/192/115 101/193/83
f 90/152/34 62/111/77 102/194/117 100/195/35
f 62/111/77 59/105/73 103/120/84 102/194/117
f 10/18/18 13/26/26 98/36/36 99/192/115
f 107/196/113 105/197/116 113/198/118 111/199/119
f 106/200/120 108/201/121 110/202/122 112/203/123
f 102/204/117 103/184/84 109/187/114 108/205/121
f 98/206/36 100/207/35 106/208/120 104/209/124
f 99/189/115 98/206/36 104/209/124 105/190/116
f 100/207/35 102/204/117 108/205/121 106/208/120
f 111/199/119 113/198/118 114/210/125
f 134/211/126 111/212/119 114/210/125
f 110/202/122 134/211/126 114/210/125
f 105/197/116 104/213/124 135/214/127 113/198/118
f 104/213/124 106/200/120 112/203/123 135/214/127
f 108/201/121 109/215/114 134/211/126 110/202/122
f 109/215/114 107/216/113 111/212/119 134/211/126
f 116/217/101 119/218/104 118/219/103 115/220/102
f 117/221/128 115/220/102 118/219/103
f 88/172/85 89/222/55 117/223/128 118/173/103
f 49/224/29 96/225/80 119/218/104 116/217/101
f 89/226/55 39/167/37 115/170/102 117/227/128
f 85/228/10 43/229/9 121/230/129 126/231/130
f 84/232/31 85/228/10 126/231/130 125/233/131
f 64/234/81 96/235/80 124/236/132 122/237/133
f 49/238/29 84/232/31 125/233/131 123/239/134
f 96/240/80 49/238/29 123/239/134 124/241/132
f 43/229/9 86/242/65 120/243/135 121/230/129
f 86/242/65 64/234/81 122/237/133 120/243/135
f 126/231/130 121/230/129 132/244/108 131/245/112
f 125/233/131 126/231/130 131/245/112 130/246/111
f 122/237/133 124/236/132 133/247/109 128/248/106
f 123/239/134 125/233/131 130/246/111 129/249/110
f 124/241/132 123/239/134 129/249/110 133/250/109
f 121/230/129 120/243/135 127/251/105 132/244/108
f 120/243/135 122/237/133 128/248/106 127/251/105
f 113/198/118 135/214/127 114/210/125
f 112/203/123 110/202/122 114/210/125
f 135/214/127 112/203/123 114/210/125
