# Blender v2.79 (sub 0) OBJ File: 'env.blend'
# www.blender.org
o lowpolymaybe
v 1.090246 -0.350517 -4.352532
v -0.435121 -0.960332 -4.618529
v -0.148331 -2.203300 -4.957494
v 0.204538 -2.519231 -4.678760
v -0.001684 0.151397 -5.183681
v 0.022256 0.653179 -4.933578
v -0.180471 -2.768633 -3.717209
v 0.962385 -1.943296 -4.226080
v 2.174920 -1.850784 -3.097457
v 1.681564 0.388526 -3.572463
v -0.762475 0.789325 -3.773419
v 0.587561 1.058396 -3.705356
v -1.754418 0.129664 -3.682045
v -1.356555 -2.193597 -3.762700
v 3.129806 -1.557779 -3.255950
v 1.086707 -2.967882 -2.848064
v -3.043938 -1.639029 -3.210631
v -2.400857 -0.681935 -3.262101
v 2.361117 -0.537314 -3.151872
v 0.287027 2.065243 -3.491020
v -1.097587 1.701058 -2.401956
v 0.786000 -3.287307 -1.648224
v -2.236499 -2.025374 -2.918976
v -2.973326 -2.216272 -2.466566
v 2.870434 -2.234752 -2.503584
v -2.752837 0.133301 -1.830436
v 0.957223 1.796886 -2.437281
v -0.114432 2.340552 -3.269305
v -1.016443 -3.161497 -1.770930
v 2.441340 -2.125900 -1.770707
v -5.575411 -0.123119 -0.536301
v 2.826095 0.160357 -1.663440
v -0.507771 1.845995 -1.926133
v -0.097824 -2.894384 -0.566058
v 5.067001 -0.876270 0.484786
v 5.317922 0.553642 -0.534609
v -4.874226 0.722743 -0.630779
v -1.445248 1.822953 -0.521463
v -3.150224 0.303843 -1.074426
v -0.052764 2.849283 -1.058734
v 0.648475 2.057643 -1.635100
v -5.164564 -0.934671 0.180229
v 5.540829 -0.473324 -0.331614
v 2.654264 -1.003813 -0.671709
v 1.289309 1.991687 -0.214472
v -2.691921 -0.911677 -0.606785
v -1.020174 -1.246738 0.855737
v -2.440421 -1.975363 -1.567122
v -3.125728 -0.162484 -0.249812
v 3.121149 -0.218175 -0.252159
v 3.943995 0.085627 0.693383
v 3.206709 0.259729 -0.801392
v 4.437891 0.881325 -0.144472
v 1.814550 1.959195 0.373850
v -3.999869 0.585725 0.288579
v -0.227415 2.283751 0.075433
v 1.064313 -1.204219 0.880976
v -4.306179 -0.413489 0.827479
v -5.088456 0.460502 0.437394
v 2.754011 0.582247 0.600698
v -2.139439 1.911567 1.092009
v -1.301664 2.864405 0.559609
v 0.019860 3.204239 0.640591
v 4.870469 0.326332 0.669078
v -0.006855 -0.283323 1.178272
v 2.321460 -0.119635 0.860927
v -2.492623 -0.014525 0.823404
v 3.114274 1.192154 1.181119
v -3.007539 1.426065 1.363475
v 2.450705 1.845969 1.788486
v -2.005957 3.047156 1.696113
v 1.372208 3.298956 1.143218
v 0.350776 4.048374 0.758679
v 0.957748 4.124099 1.485604
v -0.746752 4.116999 1.148328
v -2.636432 -0.923266 1.729037
v -2.735568 0.637859 0.551533
v 2.417536 -1.219159 2.127085
v 3.002620 -0.786105 1.997172
v 1.258168 0.016414 1.295713
v -1.263328 -0.032618 1.295767
v -0.946230 1.085383 1.293554
v 0.014084 1.727102 1.452412
v 1.017737 1.221850 1.412228
v 2.173204 2.915291 2.013332
v -1.482651 4.274896 1.758398
v 1.886236 3.851905 1.729772
v -0.495264 4.158778 1.847655
v -0.226505 5.148197 1.896990
v 0.131989 4.427775 1.217210
v 0.363192 5.033855 2.087785
v 0.465676 4.078656 1.910547
v -2.170089 -1.096840 2.631737
v -1.486235 -0.846198 1.989270
v 1.399433 -0.836646 2.362586
v 1.944908 0.241873 3.248939
v -1.395847 -0.088471 2.971137
v -3.175555 -0.443100 2.645990
v -0.007492 1.796763 3.036363
v -2.204875 1.790086 2.000309
v 1.581924 1.414398 2.155896
v -1.550371 1.436846 2.166204
v -2.093318 3.728762 2.258170
v 1.291510 4.428695 2.241979
v 2.178020 -0.504524 3.219901
v 3.194706 -0.133210 2.730798
v -1.312089 2.153534 3.107882
v 1.304258 2.205306 3.165371
v -1.760902 3.299206 3.151226
v 2.041899 3.737558 2.880005
v -0.399974 3.765927 3.153319
v -1.243156 4.350455 2.854777
v 0.336277 3.835394 3.037272
v -2.477997 0.020110 3.314629
v 0.908694 3.583435 3.396152
v -0.111295 1.986287 4.024124
v -0.838157 3.346872 3.325198
v -0.659852 2.419734 3.987144
v 0.920439 2.806229 3.401726
v -0.644253 4.034712 3.908899
v 0.612859 4.058159 3.911171
v -0.823053 2.934074 4.763093
v 1.004246 2.837976 4.414602
v 0.479396 3.011803 4.846232
vt 0.305634 0.417424
vt 0.327693 0.474062
vt 0.247197 0.474716
vt 0.361688 0.374754
vt 0.318557 0.373087
vt 0.381856 0.442922
vt 0.351988 0.481256
vt 0.318706 0.360363
vt 0.280525 0.342650
vt 0.329816 0.322012
vt 0.417964 0.487919
vt 0.420525 0.513822
vt 0.375507 0.536640
vt 0.455460 0.413822
vt 0.335684 0.488567
vt 0.442846 0.559147
vt 0.379732 0.328832
vt 0.241967 0.365824
vt 0.382231 0.603434
vt 0.439916 0.637545
vt 0.437112 0.345214
vt 0.187991 0.463336
vt 0.161127 0.431187
vt 0.202448 0.391801
vt 0.496176 0.386881
vt 0.308365 0.297705
vt 0.296659 0.291227
vt 0.253651 0.282308
vt 0.293723 0.574344
vt 0.340405 0.623854
vt 0.478565 0.666679
vt 0.436052 0.680364
vt 0.396204 0.687796
vt 0.140297 0.469347
vt 0.150415 0.329077
vt 0.333477 0.263597
vt 0.482001 0.243524
vt 0.224026 0.532764
vt 0.236264 0.481624
vt 0.276303 0.490799
vt 0.031705 0.364019
vt 0.647899 0.184529
vt 0.042809 0.337895
vt 0.269571 0.254775
vt 0.314814 0.231552
vt 0.428049 0.830703
vt 0.062469 0.505196
vt 0.288140 0.631208
vt 0.000185 0.391743
vt 0.609817 0.156540
vt 0.510674 0.182389
vt 0.207974 0.209999
vt 0.335863 0.162817
vt 0.279702 0.207444
vt 0.362943 0.756029
vt 0.688893 0.236684
vt 0.470222 0.835514
vt 0.112553 0.305997
vt 0.266192 0.723759
vt 0.202738 0.660182
vt 0.469031 0.058145
vt 0.602272 0.109036
vt 0.513226 0.111239
vt 0.125786 0.212510
vt 0.074354 0.249657
vt 0.374244 0.850095
vt 0.033270 0.306557
vt 0.008014 0.333534
vt 0.355662 0.130866
vt 0.259679 0.164326
vt 0.425154 0.116437
vt 0.164776 0.572997
vt 0.061878 0.558412
vt 0.000184 0.292880
vt 0.052937 0.207303
vt 0.116074 0.200034
vt 0.422564 0.104905
vt 0.478565 0.888105
vt 0.412065 0.876369
vt 0.639939 0.124927
vt 0.150877 0.159747
vt 0.205376 0.142825
vt 0.256843 0.114603
vt 0.305298 0.085789
vt 0.238140 0.776879
vt 0.288526 0.801046
vt 0.201928 0.723477
vt 0.150850 0.687576
vt 0.009856 0.540367
vt 0.120083 0.636142
vt 0.411429 0.085320
vt 0.500899 0.796024
vt 0.573607 0.750041
vt 0.545427 0.805025
vt 0.112711 0.173177
vt 0.374528 0.067840
vt 0.336013 0.051162
vt 0.164133 0.111744
vt 0.217406 0.076449
vt 0.257008 0.078386
vt 0.283459 0.060532
vt 0.248637 0.059021
vt 0.780836 0.023933
vt 0.845069 0.070762
vt 0.802297 0.083057
vt 0.852545 0.022715
vt 0.593467 0.760946
vt 0.602205 0.835050
vt 0.767919 0.132592
vt 0.745817 0.000184
vt 0.689262 0.032546
vt 0.615399 0.774981
vt 0.121813 0.737950
vt 0.478934 0.750210
vt 0.578792 0.704215
vt 0.187583 0.813013
vt 0.135747 0.793778
vt 0.124160 0.135862
vt 0.058029 0.749952
vt 0.183239 0.066570
vt 0.791667 0.629380
vt 0.758855 0.597793
vt 0.791667 0.560080
vt 0.214807 0.048085
vt 0.759270 0.212344
vt 0.743075 0.159041
vt 0.796780 0.178643
vt 0.736865 0.638665
vt 0.723633 0.600690
vt 0.612113 0.692217
vt 0.541360 0.693911
vt 0.575024 0.668113
vt 0.272947 0.038185
vt 0.702297 0.206944
vt 0.689262 0.159041
vt 0.725095 0.177359
vt 0.839738 0.118212
vt 0.883476 0.080749
vt 0.907745 0.000184
vt 0.663508 0.762426
vt 0.999816 0.117553
vt 0.893632 0.158672
vt 0.897633 0.112683
vt 0.186545 0.867789
vt 0.080509 0.852072
vt 0.663885 0.868202
vt 0.973644 0.064167
vt 0.751491 0.817130
vt 0.698927 0.704215
vt 0.787388 0.769260
vt 0.695524 0.827796
vt 0.563645 0.630637
vt 0.478934 0.661304
vt 0.016812 0.806353
vt 0.024167 0.721702
vt 0.520227 0.595306
vt 0.737716 0.564147
vt 0.606972 0.642017
vt 0.624729 0.594721
vt 0.699912 0.636275
vt 0.659398 0.662628
vt 0.664990 0.703846
vt 0.367409 0.000184
vt 0.638956 0.733800
vt 0.941078 0.047008
vt 0.127874 0.916003
vt 0.398682 0.037709
vt 0.664567 0.585393
vt 0.681635 0.545066
vt 0.740147 0.482602
vt 0.038868 0.888610
vt 0.004851 0.870597
vt 0.587703 0.593388
vt 0.611860 0.562460
vt 0.645242 0.543874
vt 0.552440 0.546792
vt 0.698822 0.502709
vt 0.095247 0.946257
vt 0.586898 0.542763
vt 0.648402 0.481624
vt 0.000184 0.957828
vt 0.039876 0.968943
vt 0.608838 0.492581
vn -0.3334 0.0268 -0.9424
vn -0.0775 -0.2336 -0.9692
vn -0.6177 -0.5310 -0.5801
vn 0.5907 0.0914 -0.8017
vn -0.1577 0.0218 -0.9872
vn 0.5910 -0.3228 -0.7393
vn 0.3520 -0.7693 -0.5331
vn -0.0937 0.6637 -0.7421
vn -0.5423 0.5527 -0.6328
vn 0.3305 0.6248 -0.7074
vn -0.0593 -0.9477 -0.3137
vn 0.4666 -0.5794 -0.6683
vn 0.6450 0.4909 -0.5857
vn -0.6340 0.3493 -0.6899
vn 0.3934 -0.8592 -0.3271
vn 0.5931 0.3235 -0.7373
vn -0.3993 -0.7627 -0.5088
vn -0.4305 -0.3358 -0.8378
vn -0.4923 0.2072 -0.8454
vn 0.4861 -0.2209 -0.8455
vn 0.3390 0.6351 -0.6941
vn -0.1942 0.9340 -0.2998
vn -0.5736 0.7992 -0.1795
vn -0.3756 -0.9204 0.1086
vn 0.2982 -0.9413 0.1579
vn 0.2080 -0.9614 -0.1804
vn 0.3553 -0.8859 0.2981
vn -0.2937 -0.9474 -0.1274
vn -0.4089 0.8110 -0.4184
vn 0.5151 0.8371 -0.1842
vn 0.3786 0.8635 -0.3333
vn -0.2995 -0.8672 0.3979
vn -0.9777 0.0540 -0.2028
vn 0.7599 0.6218 -0.1898
vn -0.3988 0.8709 -0.2870
vn -0.2941 0.9365 -0.1909
vn 0.2631 0.9088 -0.3237
vn 0.4958 -0.5459 0.6754
vn -0.6377 -0.6238 0.4519
vn -0.0297 -0.8087 0.5875
vn -0.0232 0.9927 0.1183
vn 0.0068 0.9963 0.0857
vn -0.6061 0.7604 -0.2333
vn 0.4804 0.8081 -0.3410
vn -0.0806 0.9901 -0.1152
vn 0.1622 -0.6473 0.7448
vn 0.9828 -0.1840 0.0182
vn -0.2040 0.9752 -0.0864
vn 0.2750 -0.5052 0.8180
vn -0.2261 -0.5187 0.8245
vn -0.3998 0.2332 0.8864
vn 0.0742 0.1919 0.9786
vn -0.9628 0.2644 -0.0557
vn -0.1054 0.0869 0.9906
vn 0.3547 0.7852 0.5076
vn -0.5563 0.5539 0.6194
vn 0.6556 0.6383 -0.4034
vn -0.0976 0.9267 -0.3630
vn 0.9946 0.0948 -0.0416
vn -0.1028 -0.6161 0.7810
vn 0.0804 -0.1930 0.9779
vn -0.5592 -0.8282 0.0367
vn 0.4325 -0.9015 -0.0180
vn 0.4447 0.4380 0.7813
vn -0.8185 0.4903 -0.2993
vn -0.4014 0.7585 -0.5134
vn -0.0135 0.5528 -0.8332
vn 0.5048 0.5183 -0.6903
vn -0.4073 -0.5368 0.7388
vn -0.0338 -0.2484 0.9681
vn 0.4800 -0.6062 0.6341
vn 0.9024 0.3814 -0.2006
vn 0.7669 -0.6293 -0.1258
vn -0.8528 0.5048 -0.1337
vn 0.7743 0.5278 0.3491
vn 0.9815 0.1842 -0.0524
vn -0.9235 0.2867 -0.2549
vn -0.5006 0.5839 -0.6392
vn 0.3653 0.4263 -0.8275
vn 0.2827 0.8633 -0.4181
vn 0.1659 0.9744 -0.1518
vn 0.6883 -0.7076 -0.1599
vn -0.4101 -0.8209 -0.3973
vn 0.1762 -0.9826 -0.0585
vn -0.8783 -0.2965 0.3751
vn -0.7732 -0.6142 0.1578
vn 0.5153 -0.2811 0.8096
vn 0.8423 -0.0421 0.5374
vn -0.4576 -0.3776 0.8050
vn 0.0099 -0.7741 0.6330
vn -0.7140 0.3085 0.6284
vn 0.1515 -0.2837 0.9469
vn -0.5081 0.7722 -0.3816
vn 0.6887 0.5395 -0.4843
vn -0.2564 0.9300 0.2633
vn -0.5631 0.7502 0.3465
vn 0.0946 0.9914 0.0906
vn -0.9579 0.2827 0.0511
vn -0.0153 0.9302 0.3668
vn 0.2893 0.8724 0.3939
vn 0.0461 -0.8960 0.4417
vn 0.6890 -0.0616 0.7222
vn -0.2695 0.2607 0.9271
vn -0.2266 0.0754 0.9711
vn -0.1862 -0.2808 0.9415
vn 0.0084 -0.9600 0.2798
vn -0.6027 0.1384 0.7859
vn -0.4637 -0.5043 0.7285
vn 0.7542 0.4265 0.4993
vn -0.1168 0.8406 0.5290
vn -0.0707 0.9750 0.2108
vn 0.4818 -0.3921 0.7837
vn -0.0004 -0.4234 0.9059
vn -0.1033 0.9936 0.0462
vn 0.6524 0.5504 0.5210
vn 0.0071 -0.7552 0.6554
vn -0.5785 -0.5278 0.6219
vn -0.5458 0.3473 0.7626
vn -0.5895 0.7333 0.3387
vn 0.3739 0.8803 0.2920
vn 0.6749 -0.2344 0.6997
vn -0.5744 -0.2277 0.7863
vn 0.8249 -0.2618 0.5011
vn 0.3530 0.0940 0.9309
s 1
f 2/1/1 3/2/2 14/3/3
f 1/4/4 2/1/1 5/5/5
f 3/2/2 8/6/6 4/7/7
f 1/4/4 5/5/5 6/8/8
f 6/8/8 5/5/5 11/9/9
f 12/10/10 1/4/4 6/8/8
f 3/2/2 2/1/1 8/6/6
f 3/11/2 4/12/7 7/13/11
f 9/14/12 8/6/6 1/4/4
f 7/13/11 14/15/3 3/11/2
f 7/13/11 4/12/7 8/16/6
f 1/4/4 8/6/6 2/1/1
f 10/17/13 1/4/4 12/10/10
f 11/9/9 12/10/10 6/8/8
f 13/18/14 2/1/1 14/3/3
f 11/9/9 5/5/5 2/1/1
f 13/18/14 11/9/9 2/1/1
f 7/13/11 8/16/6 16/19/15
f 9/20/12 16/19/15 8/16/6
f 19/21/16 9/14/12 1/4/4
f 14/3/3 23/22/17 13/18/14
f 17/23/18 18/24/19 23/22/17
f 18/24/19 13/18/14 23/22/17
f 1/4/4 10/17/13 19/21/16
f 9/14/12 19/21/16 15/25/20
f 20/26/21 12/10/10 11/9/9
f 28/27/22 20/26/21 11/9/9
f 11/9/9 13/18/14 21/28/23
f 29/29/24 14/15/3 7/13/11
f 29/29/24 7/13/11 22/30/25
f 7/13/11 16/19/15 22/30/25
f 9/20/12 15/31/20 25/32/26
f 16/19/15 9/20/12 30/33/27
f 24/34/28 17/23/18 23/22/17
f 13/18/14 18/24/19 26/35/29
f 28/27/22 11/9/9 21/28/23
f 12/10/10 27/36/30 10/17/13
f 26/35/29 21/28/23 13/18/14
f 28/27/22 27/36/30 20/26/21
f 32/37/31 19/21/16 10/17/13
f 32/37/31 10/17/13 27/36/30
f 20/26/21 27/36/30 12/10/10
f 48/38/32 24/39/28 23/40/17
f 30/33/27 22/30/25 16/19/15
f 14/15/3 29/29/24 23/40/17
f 30/33/27 9/20/12 25/32/26
f 17/23/18 31/41/33 18/24/19
f 19/21/16 36/42/34 15/25/20
f 37/43/35 26/35/29 18/24/19
f 33/44/36 41/45/37 27/36/30
f 33/44/36 27/36/30 28/27/22
f 21/28/23 33/44/36 28/27/22
f 25/32/26 35/46/38 30/33/27
f 48/38/32 42/47/39 24/39/28
f 34/48/40 29/29/24 22/30/25
f 29/29/24 48/38/32 23/40/17
f 24/34/28 31/41/33 17/23/18
f 24/34/28 42/49/39 31/41/33
f 19/21/16 32/37/31 53/50/41
f 52/51/42 53/50/41 32/37/31
f 21/28/23 26/35/29 38/52/43
f 45/53/44 32/37/31 27/36/30
f 41/45/37 45/53/44 27/36/30
f 33/44/36 40/54/45 41/45/37
f 30/33/27 44/55/46 22/30/25
f 36/42/34 43/56/47 15/25/20
f 43/57/47 25/32/26 15/31/20
f 26/35/29 37/43/35 39/58/48
f 19/21/16 53/50/41 36/42/34
f 52/51/42 32/37/31 45/53/44
f 31/41/33 37/43/35 18/24/19
f 38/52/43 26/35/29 39/58/48
f 45/53/44 41/45/37 40/54/45
f 21/28/23 38/52/43 33/44/36
f 40/54/45 33/44/36 38/52/43
f 44/55/46 57/59/49 22/30/25
f 35/46/38 44/55/46 30/33/27
f 22/30/25 57/59/49 34/48/40
f 47/60/50 29/29/24 34/48/40
f 29/29/24 47/60/50 48/38/32
f 35/46/38 25/32/26 43/57/47
f 44/61/46 51/62/51 50/63/52
f 77/64/53 39/58/48 49/65/54
f 51/66/51 44/55/46 35/46/38
f 55/67/55 49/65/54 39/58/48
f 51/62/51 52/51/42 50/63/52
f 51/62/51 53/50/41 52/51/42
f 37/43/35 55/67/55 39/58/48
f 59/68/56 55/67/55 37/43/35
f 77/64/53 38/52/43 39/58/48
f 31/41/33 59/68/56 37/43/35
f 54/69/57 52/51/42 45/53/44
f 38/52/43 56/70/58 40/54/45
f 54/69/57 60/71/59 52/51/42
f 45/53/44 40/54/45 56/70/58
f 47/60/50 46/72/60 48/38/32
f 46/72/60 58/73/61 48/38/32
f 49/65/54 58/74/61 46/75/60
f 58/73/61 42/47/39 48/38/32
f 67/76/62 49/65/54 46/75/60
f 44/61/46 50/63/52 66/77/63
f 58/74/61 49/65/54 55/67/55
f 59/68/56 31/41/33 42/49/39
f 35/46/38 43/57/47 36/78/34
f 64/79/64 35/46/38 36/78/34
f 77/64/53 49/65/54 67/76/62
f 50/63/52 60/71/59 66/77/63
f 52/51/42 60/71/59 50/63/52
f 53/50/41 64/80/64 36/42/34
f 53/50/41 51/62/51 64/80/64
f 61/81/65 62/82/66 77/64/53
f 38/52/43 77/64/53 62/82/66
f 62/82/66 63/83/67 56/70/58
f 38/52/43 62/82/66 56/70/58
f 56/70/58 63/83/67 45/53/44
f 45/53/44 63/83/67 72/84/68
f 54/69/57 45/53/44 72/84/68
f 44/55/46 80/85/69 57/59/49
f 66/86/63 80/85/69 44/55/46
f 35/46/38 64/79/64 51/66/51
f 65/87/70 34/48/40 57/59/49
f 81/88/71 46/72/60 47/60/50
f 59/89/56 42/47/39 58/73/61
f 47/60/50 34/48/40 65/87/70
f 81/88/71 67/90/62 46/72/60
f 59/68/56 58/74/61 55/67/55
f 54/69/57 68/91/72 60/71/59
f 60/92/59 79/93/73 66/94/63
f 69/95/74 61/81/65 77/64/53
f 54/69/57 70/96/75 68/91/72
f 72/84/68 85/97/76 70/96/75
f 71/98/77 62/82/66 61/81/65
f 54/69/57 72/84/68 70/96/75
f 71/98/77 63/83/67 62/82/66
f 63/83/67 75/99/78 73/100/79
f 73/100/79 74/101/80 63/83/67
f 75/99/78 90/102/81 73/100/79
f 67/103/62 94/104/82 76/105/83
f 67/103/62 81/106/71 94/104/82
f 78/107/84 80/108/69 66/94/63
f 79/93/73 78/107/84 66/94/63
f 76/105/83 98/109/85 77/110/53
f 69/111/74 77/110/53 98/109/85
f 67/103/62 76/105/83 77/110/53
f 65/87/70 57/59/49 80/85/69
f 95/112/86 80/108/69 78/107/84
f 81/88/71 47/60/50 65/87/70
f 81/88/71 65/87/70 82/113/87
f 68/114/72 79/93/73 60/92/59
f 68/114/72 106/115/88 79/93/73
f 84/116/89 65/87/70 80/85/69
f 82/113/87 65/87/70 84/116/89
f 83/117/90 82/113/87 84/116/89
f 61/81/65 69/95/74 100/118/91
f 83/117/90 102/119/92 82/113/87
f 71/98/77 75/99/78 63/83/67
f 86/120/93 75/99/78 71/98/77
f 100/118/91 71/98/77 61/81/65
f 72/121/68 87/122/94 85/123/76
f 90/102/81 75/99/78 88/124/95
f 88/125/95 89/126/96 90/127/81
f 74/128/80 104/129/97 87/122/94
f 86/130/93 71/131/77 103/132/98
f 92/133/99 74/101/80 90/102/81
f 90/102/81 74/101/80 73/100/79
f 72/84/68 63/83/67 74/101/80
f 87/122/94 72/121/68 74/128/80
f 92/134/99 90/135/81 91/136/100
f 91/136/100 90/135/81 89/126/96
f 93/137/101 76/105/83 94/104/82
f 93/137/101 98/109/85 76/105/83
f 81/106/71 97/138/102 94/104/82
f 82/139/87 97/138/102 81/106/71
f 96/140/103 80/108/69 95/112/86
f 69/141/74 98/142/85 114/143/104
f 101/144/105 99/145/106 83/117/90
f 96/140/103 84/146/89 80/108/69
f 114/143/104 100/147/91 69/141/74
f 70/148/75 106/149/88 68/150/72
f 101/151/105 84/146/89 96/140/103
f 101/144/105 83/117/90 84/116/89
f 109/152/107 71/131/77 100/153/91
f 107/154/108 100/155/91 102/119/92
f 99/145/106 102/119/92 83/117/90
f 107/156/108 109/152/107 100/153/91
f 110/157/109 85/123/76 87/122/94
f 103/132/98 112/158/110 86/130/93
f 111/159/111 92/160/99 88/161/95
f 104/129/97 110/157/109 87/122/94
f 86/130/93 88/161/95 75/162/78
f 111/159/111 88/161/95 112/158/110
f 109/152/107 103/132/98 71/131/77
f 108/163/112 70/96/75 85/97/76
f 92/160/99 104/129/97 74/128/80
f 91/136/100 88/125/95 92/134/99
f 88/125/95 91/136/100 89/126/96
f 88/161/95 86/130/93 112/158/110
f 78/107/84 105/164/113 95/112/86
f 106/115/88 78/107/84 79/93/73
f 106/115/88 105/164/113 78/107/84
f 93/137/101 94/104/82 97/138/102
f 97/138/102 114/143/104 93/137/101
f 95/112/86 105/164/113 96/140/103
f 97/138/102 100/147/91 114/143/104
f 70/148/75 101/151/105 96/140/103
f 102/165/92 100/147/91 97/138/102
f 106/149/88 70/148/75 96/140/103
f 102/119/92 99/145/106 107/154/108
f 97/138/102 82/139/87 102/165/92
f 108/166/112 99/145/106 101/144/105
f 108/163/112 101/167/105 70/96/75
f 113/168/114 115/169/115 104/129/97
f 104/129/97 115/169/115 110/157/109
f 112/158/110 103/132/98 109/152/107
f 108/170/112 85/123/76 110/157/109
f 104/129/97 92/160/99 113/168/114
f 111/159/111 113/168/114 92/160/99
f 105/164/113 106/149/88 96/140/103
f 114/143/104 98/142/85 93/137/101
f 108/166/112 116/171/116 99/145/106
f 99/145/106 116/171/116 107/154/108
f 118/172/117 107/154/108 116/171/116
f 109/152/107 107/156/108 117/173/118
f 111/159/111 120/174/119 113/168/114
f 113/168/114 121/175/120 115/169/115
f 120/174/119 121/175/120 113/168/114
f 112/158/110 117/173/118 111/159/111
f 107/156/108 118/176/117 117/173/118
f 117/173/118 120/174/119 111/159/111
f 110/157/109 115/169/115 119/177/121
f 108/170/112 110/157/109 119/177/121
f 112/158/110 109/152/107 117/173/118
f 119/178/121 116/171/116 108/166/112
f 122/179/122 120/174/119 117/173/118
f 115/169/115 123/180/123 119/177/121
f 124/181/124 118/172/117 116/171/116
f 123/182/123 116/171/116 119/178/121
f 122/179/122 117/173/118 118/176/117
f 115/169/115 121/175/120 123/180/123
f 123/182/123 124/181/124 116/171/116
f 122/179/122 118/176/117 124/183/124
f 121/175/120 124/183/124 123/180/123
f 121/175/120 120/174/119 124/183/124
f 124/183/124 120/174/119 122/179/122
