# Blender v2.79 (sub 0) OBJ File: 'env.blend'
# www.blender.org
o Cone.001
v 0.298727 0.042406 0.006482
v 0.285410 0.042406 0.019735
v 0.267725 0.037885 0.015282
v 0.263358 0.033363 -0.002424
v 0.276676 0.033363 -0.015677
v 0.294360 0.037885 -0.011224
v 0.294210 0.030319 0.006941
v 0.285891 0.030319 0.015220
v 0.274843 0.027494 0.012439
v 0.272115 0.024670 0.001378
v 0.280435 0.024670 -0.006902
v 0.291482 0.027494 -0.004120
v 0.302366 0.032404 0.008994
v 0.287905 0.032404 0.023386
v 0.268701 0.027494 0.018551
v 0.263959 0.022585 -0.000676
v 0.278421 0.022585 -0.015067
v 0.297624 0.027494 -0.010232
v 0.325040 0.010805 0.018704
v 0.297505 0.010805 0.046106
v 0.298898 -0.049621 0.019971
v 0.260941 0.001456 0.036900
v 0.251912 -0.007892 0.000293
v 0.279447 -0.007892 -0.027109
v 0.316011 0.001456 -0.017904
v 0.062260 0.004961 -0.011629
v 0.024705 0.012656 -0.005353
v 0.010667 0.012656 0.030869
v 0.034186 0.004961 0.060814
v 0.036883 -0.046801 0.020198
v 0.071741 -0.002734 0.054538
v 0.085779 -0.002734 0.018316
v 0.061376 0.031348 0.007809
v 0.041652 0.035390 0.011106
v 0.034280 0.035390 0.030129
v 0.046631 0.031348 0.045856
v 0.066356 0.027307 0.042560
v 0.073728 0.027307 0.023537
v 0.058245 0.031348 0.015889
v 0.046898 0.033673 0.017785
v 0.042657 0.033673 0.028729
v 0.049763 0.031348 0.037777
v 0.061110 0.029023 0.035881
v 0.065351 0.029023 0.024937
v 0.063100 0.041878 0.010208
v 0.044936 0.045600 0.013243
v 0.038146 0.045600 0.030763
v 0.049521 0.041878 0.045246
v 0.067686 0.038156 0.042210
v 0.074475 0.038156 0.024691
v 0.207704 0.001366 -0.022734
v 0.240816 -0.009250 -0.005414
v 0.243326 -0.009250 0.033351
v 0.212725 0.001366 0.054796
v 0.226959 0.051821 0.014947
v 0.179613 0.011983 0.037477
v 0.177103 0.011983 -0.001289
v 0.200360 -0.024354 -0.003776
v 0.217750 -0.029930 0.005321
v 0.219069 -0.029930 0.025680
v 0.202997 -0.024354 0.036944
v 0.185607 -0.018779 0.027847
v 0.184289 -0.018779 0.007488
v 0.200920 -0.024354 0.004871
v 0.210925 -0.027562 0.010104
v 0.211683 -0.027562 0.021817
v 0.202437 -0.024354 0.028297
v 0.192433 -0.021147 0.023064
v 0.191674 -0.021147 0.011351
v 0.197058 -0.034618 -0.001945
v 0.213073 -0.039753 0.006432
v 0.214287 -0.039753 0.025182
v 0.199486 -0.034618 0.035554
v 0.183472 -0.029483 0.027177
v 0.182258 -0.029483 0.008427
v 0.133391 0.042765 0.011733
v 0.123027 0.042765 0.027405
v 0.106644 0.033576 0.027833
v 0.100625 0.024387 0.012590
v 0.110989 0.024387 -0.003082
v 0.127372 0.033576 -0.003510
v 0.132337 0.030390 0.015263
v 0.125863 0.030390 0.025053
v 0.115628 0.024649 0.025321
v 0.111868 0.018909 0.015799
v 0.118343 0.018909 0.006008
v 0.128577 0.024649 0.005741
v 0.139893 0.034627 0.015066
v 0.128639 0.034627 0.032083
v 0.110849 0.024649 0.032548
v 0.104313 0.014671 0.015996
v 0.115567 0.014671 -0.001021
v 0.133357 0.024649 -0.001487
v 0.168743 0.021278 0.023088
v 0.147315 0.021278 0.055490
v 0.159917 -0.041602 0.040538
v 0.113443 0.002280 0.056376
v 0.100999 -0.016719 0.024861
v 0.122427 -0.016719 -0.007541
v 0.156299 0.002280 -0.008427
v -0.066207 -0.002329 0.036264
v -0.066173 0.002329 0.036405
v -0.066474 -0.002329 0.031757
v -0.066474 0.002329 0.031757
v 0.399208 -0.002329 0.006128
v 0.399208 0.002329 0.006128
v 0.398907 -0.002329 0.001480
v 0.398907 0.002329 0.001480
v -0.026900 -0.042099 0.020423
v -0.030136 -0.042099 0.038931
v -0.017081 -0.035551 0.050751
v -0.000790 -0.029002 0.044063
v 0.002446 -0.029002 0.025555
v -0.010608 -0.035551 0.013735
v -0.026288 -0.029740 0.024109
v -0.028310 -0.029740 0.035671
v -0.020154 -0.025649 0.043055
v -0.009977 -0.021558 0.038877
v -0.007955 -0.021558 0.027315
v -0.016111 -0.025649 0.019931
v -0.032309 -0.032760 0.018659
v -0.035823 -0.032760 0.038756
v -0.021647 -0.025649 0.051591
v -0.003957 -0.018538 0.044328
v -0.000442 -0.018538 0.024231
v -0.014618 -0.025649 0.011396
v -0.055869 -0.014374 0.005177
v -0.062561 -0.014374 0.043442
v -0.049956 0.047841 0.025928
v -0.035569 -0.000835 0.067880
v -0.001887 0.012704 0.054052
v 0.004805 0.012704 0.015786
v -0.022187 -0.000835 -0.008651
v 0.258854 0.011805 -0.054648
v 0.259194 0.016393 -0.053908
v 0.260247 0.012249 -0.058919
v 0.260608 0.016854 -0.058322
v 0.391408 -0.001646 -0.017533
v 0.391768 0.002959 -0.016937
v 0.392821 -0.001185 -0.021947
v 0.393182 0.003420 -0.021351
v 0.302228 0.020586 -0.055567
v 0.299599 0.002008 -0.056560
v 0.287568 -0.006417 -0.044842
v 0.278167 0.003736 -0.032132
v 0.280796 0.022313 -0.031139
v 0.292827 0.030738 -0.042856
v 0.240688 0.035477 -0.104847
v 0.237808 0.007696 -0.105793
v 0.229357 -0.006256 -0.083102
v 0.223787 0.007573 -0.059465
v 0.226667 0.035353 -0.058519
v 0.235118 0.049305 -0.081210
v 0.143253 0.050072 -0.145781
v 0.139853 0.017280 -0.146897
v 0.129878 0.000812 -0.120113
v 0.123303 0.017135 -0.092213
v 0.126703 0.049927 -0.091096
v 0.136678 0.066395 -0.117880
v 0.042439 0.057831 -0.162331
v 0.039499 0.029470 -0.163296
v 0.030871 0.015227 -0.140131
v 0.025184 0.029344 -0.116001
v 0.028125 0.057705 -0.115035
v 0.036752 0.071949 -0.138200
v -0.031727 0.058244 -0.155550
v -0.032765 0.040036 -0.156151
v -0.030437 0.030257 -0.140921
v -0.027070 0.038687 -0.125091
v -0.026032 0.056895 -0.124491
v -0.028360 0.066674 -0.139721
vt 0.874244 0.715804
vt 0.827911 0.673406
vt 0.858860 0.611640
vt 0.933028 0.679508
vt 0.766214 0.890767
vt 0.827911 0.879033
vt 0.858860 0.940800
vt 0.760098 0.959582
vt 0.874244 0.836636
vt 0.891393 0.776220
vt 0.960479 0.776220
vt 0.933028 0.872932
vt 0.766214 0.661673
vt 0.760098 0.592858
vt 0.751759 0.719981
vt 0.751759 0.853859
vt 0.635818 0.920798
vt 0.519876 0.853859
vt 0.519876 0.719981
vt 0.635818 0.653042
vt 0.471443 0.313368
vt 0.516429 0.327903
vt 0.504217 0.350118
vt 0.461364 0.339765
vt 0.559246 0.351656
vt 0.595502 0.407367
vt 0.562742 0.407367
vt 0.540553 0.368935
vt 0.350847 0.291559
vt 0.419436 0.301063
vt 0.410848 0.333446
vt 0.349734 0.333422
vt 0.236423 0.310698
vt 0.277674 0.356078
vt 0.538449 0.271793
vt 0.593557 0.290795
vt 0.719214 0.336870
vt 0.493324 0.254138
vt 0.445048 0.230536
vt 0.239756 0.097085
vt 0.378706 0.191172
vt 0.581201 0.060642
vt 0.493324 0.254138
vt 0.581201 0.060642
vt 0.538449 0.271793
vt 0.593557 0.290795
vt 0.719214 0.336870
vt 0.239756 0.097085
vt 0.378706 0.191172
vt 0.445048 0.230536
vt 0.419436 0.301063
vt 0.350847 0.291559
vt 0.471443 0.313368
vt 0.461364 0.339765
vt 0.410848 0.333446
vt 0.236423 0.310698
vt 0.516429 0.327903
vt 0.595502 0.407367
vt 0.559246 0.351656
vt 0.827911 0.879033
vt 0.874244 0.836636
vt 0.933028 0.872932
vt 0.858860 0.940800
vt 0.349734 0.333422
vt 0.277674 0.356078
vt 0.540553 0.368935
vt 0.504217 0.350118
vt 0.562742 0.407367
vt 0.751759 0.719981
vt 0.751759 0.853859
vt 0.635818 0.920798
vt 0.519876 0.853859
vt 0.519876 0.719981
vt 0.635818 0.653042
vt 0.827911 0.673406
vt 0.766214 0.661673
vt 0.760098 0.592858
vt 0.858860 0.611640
vt 0.891393 0.776220
vt 0.874244 0.715804
vt 0.933028 0.679508
vt 0.960479 0.776220
vt 0.766214 0.890767
vt 0.760098 0.959582
vt 0.493324 0.254138
vt 0.581201 0.060642
vt 0.538449 0.271793
vt 0.593557 0.290795
vt 0.719214 0.336870
vt 0.239756 0.097085
vt 0.378706 0.191172
vt 0.445048 0.230536
vt 0.419436 0.301063
vt 0.350847 0.291559
vt 0.471443 0.313368
vt 0.461364 0.339765
vt 0.410848 0.333446
vt 0.236423 0.310698
vt 0.516429 0.327903
vt 0.595502 0.407367
vt 0.559246 0.351656
vt 0.827911 0.879033
vt 0.874244 0.836636
vt 0.933028 0.872932
vt 0.858860 0.940800
vt 0.349734 0.333422
vt 0.277674 0.356078
vt 0.540553 0.368935
vt 0.504217 0.350118
vt 0.562742 0.407367
vt 0.751759 0.719981
vt 0.751759 0.853859
vt 0.635818 0.920798
vt 0.519876 0.853859
vt 0.519876 0.719981
vt 0.635818 0.653042
vt 0.827911 0.673406
vt 0.766214 0.661673
vt 0.760098 0.592858
vt 0.858860 0.611640
vt 0.891393 0.776220
vt 0.874244 0.715804
vt 0.933028 0.679508
vt 0.960479 0.776220
vt 0.766214 0.890767
vt 0.760098 0.959582
vt 0.874244 0.715804
vt 0.827911 0.673406
vt 0.858860 0.611640
vt 0.933028 0.679508
vt 0.766214 0.890767
vt 0.827911 0.879033
vt 0.858860 0.940800
vt 0.760098 0.959582
vt 0.874244 0.836636
vt 0.891393 0.776220
vt 0.960479 0.776220
vt 0.933028 0.872932
vt 0.766214 0.661673
vt 0.760098 0.592858
vt 0.751759 0.719981
vt 0.751759 0.853859
vt 0.635818 0.920798
vt 0.519876 0.853859
vt 0.519876 0.719981
vt 0.635818 0.653042
vt 0.471443 0.313368
vt 0.516429 0.327903
vt 0.504217 0.350118
vt 0.461364 0.339765
vt 0.559246 0.351656
vt 0.595502 0.407367
vt 0.562742 0.407367
vt 0.540553 0.368935
vt 0.350847 0.291559
vt 0.419436 0.301063
vt 0.410848 0.333446
vt 0.349734 0.333422
vt 0.236423 0.310698
vt 0.277674 0.356078
vt 0.538449 0.271793
vt 0.593557 0.290795
vt 0.719214 0.336870
vt 0.493324 0.254138
vt 0.445048 0.230536
vt 0.239756 0.097085
vt 0.378706 0.191172
vt 0.581201 0.060642
vt 0.143699 0.546904
vt 0.130872 0.547300
vt 0.130872 0.534473
vt 0.143699 0.534473
vt 0.041220 0.501446
vt 0.041333 0.485023
vt 0.982364 0.485022
vt 0.982251 0.501445
vt 0.156705 0.534473
vt 0.156705 0.547300
vt 0.143878 0.547300
vt 0.143878 0.534473
vt 0.982133 0.517869
vt 0.982224 0.534293
vt 0.041161 0.534294
vt 0.041074 0.517870
vt 0.041239 0.468599
vt 0.982270 0.468598
vt 0.874244 0.715804
vt 0.827911 0.673406
vt 0.858860 0.611640
vt 0.933028 0.679508
vt 0.766214 0.890767
vt 0.827911 0.879033
vt 0.858860 0.940800
vt 0.760098 0.959582
vt 0.874244 0.836636
vt 0.891393 0.776220
vt 0.960479 0.776220
vt 0.933028 0.872932
vt 0.766214 0.661673
vt 0.760098 0.592858
vt 0.751759 0.719981
vt 0.751759 0.853859
vt 0.635818 0.920798
vt 0.519876 0.853859
vt 0.519876 0.719981
vt 0.635818 0.653042
vt 0.471443 0.313368
vt 0.516429 0.327903
vt 0.504217 0.350118
vt 0.461364 0.339765
vt 0.559246 0.351656
vt 0.595502 0.407367
vt 0.562742 0.407367
vt 0.540553 0.368935
vt 0.350847 0.291559
vt 0.419436 0.301063
vt 0.410848 0.333446
vt 0.349734 0.333422
vt 0.236423 0.310698
vt 0.277674 0.356078
vt 0.538449 0.271793
vt 0.593557 0.290795
vt 0.719214 0.336870
vt 0.493324 0.254138
vt 0.445048 0.230536
vt 0.239756 0.097085
vt 0.378706 0.191172
vt 0.581201 0.060642
vt 0.143699 0.546904
vt 0.130872 0.547300
vt 0.130872 0.534473
vt 0.143699 0.534473
vt 0.041220 0.501446
vt 0.041333 0.485023
vt 0.982364 0.485022
vt 0.982251 0.501445
vt 0.156705 0.534473
vt 0.156705 0.547300
vt 0.143878 0.547300
vt 0.143878 0.534473
vt 0.982133 0.517869
vt 0.982224 0.534293
vt 0.041161 0.534294
vt 0.041074 0.517870
vt 0.041239 0.468599
vt 0.982270 0.468598
vt 0.116448 0.889694
vt 0.105718 0.908279
vt 0.084258 0.908279
vt 0.073528 0.889694
vt 0.084258 0.871108
vt 0.105718 0.871108
vt 0.387061 0.700051
vt 0.378577 0.730740
vt 0.264387 0.724835
vt 0.263845 0.687326
vt 0.462523 0.712721
vt 0.463128 0.736136
vt 0.465380 0.806886
vt 0.467614 0.830594
vt 0.393160 0.851351
vt 0.382647 0.819669
vt 0.465754 0.759626
vt 0.466134 0.783334
vt 0.374901 0.789958
vt 0.373279 0.760312
vt 0.467614 0.689490
vt 0.393918 0.666523
vt 0.263732 0.647197
vt 0.146424 0.699252
vt 0.138439 0.665344
vt 0.263529 0.871033
vt 0.264073 0.830816
vt 0.264637 0.794188
vt 0.264758 0.759927
vt 0.150566 0.819949
vt 0.138558 0.852014
vt 0.073528 0.828434
vt 0.075868 0.805113
vt 0.159212 0.789941
vt 0.155574 0.730040
vt 0.161149 0.759910
vt 0.116523 0.889158
vt 0.126945 0.871108
vt 0.147787 0.871108
vt 0.158208 0.889158
vt 0.147787 0.907209
vt 0.126945 0.907209
vt 0.074500 0.781958
vt 0.074944 0.758773
vt 0.078617 0.735866
vt 0.080057 0.712737
vt 0.074153 0.690149
vn -0.3040 0.4395 -0.8452
vn -0.8437 0.4395 -0.3081
vn -0.9435 0.1509 -0.2948
vn -0.2903 0.1509 -0.9449
vn -0.6668 0.6227 0.4094
vn 0.0499 0.8060 0.5898
vn 0.1381 0.5945 0.7921
vn -0.7293 0.3727 0.5737
vn 0.5896 0.8060 0.0527
vn 0.4126 0.6227 -0.6648
vn 0.5772 0.3727 -0.7265
vn 0.7914 0.5945 0.1420
vn 0.2440 0.7884 -0.5646
vn -0.2936 0.6509 -0.7000
vn -0.6986 0.6509 -0.2970
vn -0.5658 0.7884 0.2413
vn -0.0281 0.9259 0.3767
vn 0.3768 0.9259 -0.0263
vn -0.2296 -0.2544 -0.9395
vn -0.9383 -0.2544 -0.2341
vn -0.7059 -0.0137 0.7081
vn 0.7115 -0.0137 -0.7025
vn 0.9439 0.2269 0.2398
vn 0.2352 0.2269 0.9451
vn 0.1960 -0.9606 0.1969
vn 0.3583 -0.0139 -0.9335
vn -0.2133 -0.9735 -0.0826
vn -0.6084 0.1841 -0.7720
vn -0.9697 0.1841 0.1603
vn -0.3644 -0.0139 0.9311
vn 0.6023 -0.2120 0.7696
vn 0.9636 -0.2120 -0.1627
vn 0.7273 0.6858 -0.0244
vn 0.5209 0.6858 0.5082
vn 0.3815 0.7990 -0.4648
vn 0.4134 0.6311 -0.6564
vn 0.8744 0.4802 -0.0694
vn -0.0314 0.7990 0.6005
vn -0.1708 0.9121 -0.3725
vn -0.3772 0.9121 0.1601
vn 0.5992 0.4802 0.6405
vn 0.9738 0.1952 -0.1168
vn 0.6407 0.1952 0.7425
vn -0.1369 0.6311 0.7635
vn -0.5978 0.7819 0.1766
vn -0.3227 0.7819 -0.5333
vn 0.4158 0.3777 -0.8273
vn -0.4752 0.5603 -0.6784
vn -0.8083 0.5603 0.1810
vn -0.2503 0.3777 0.8914
vn -0.0601 0.0136 -0.9981
vn 0.3149 0.9489 -0.0204
vn 0.7922 -0.2597 -0.5523
vn 0.8568 -0.2597 0.4455
vn 0.0691 0.0136 0.9975
vn -0.7831 0.2868 0.5517
vn -0.8477 0.2868 -0.4461
vn -0.7454 -0.6227 -0.2380
vn -0.7085 -0.6227 0.3321
vn -0.2954 -0.7788 -0.5533
vn -0.2533 -0.6151 -0.7466
vn -0.8531 -0.4071 -0.3262
vn -0.2215 -0.7788 0.5868
vn 0.1915 -0.9349 -0.2986
vn 0.2285 -0.9349 0.2714
vn -0.8039 -0.4071 0.4335
vn -0.9078 -0.1163 -0.4030
vn -0.8482 -0.1163 0.5167
vn -0.1549 -0.6151 0.7730
vn 0.4448 -0.8232 0.3527
vn 0.3956 -0.8232 -0.4071
vn -0.1817 -0.3682 -0.9118
vn 0.6038 -0.6200 -0.5009
vn 0.6634 -0.6200 0.4188
vn -0.0626 -0.3682 0.9276
vn -0.5493 0.1626 -0.8196
vn -0.9693 0.1626 -0.1845
vn -0.9864 -0.1305 -0.0998
vn -0.4780 -0.1305 -0.8686
vn -0.7253 0.5350 0.4331
vn -0.0614 0.9074 0.4158
vn 0.1125 0.7710 0.6269
vn -0.6912 0.3202 0.6479
vn 0.3585 0.9074 -0.2193
vn 0.1146 0.5350 -0.8370
vn 0.3256 0.3202 -0.8896
vn 0.6208 0.7710 -0.1419
vn -0.0715 0.6773 -0.7322
vn -0.5696 0.3979 -0.7191
vn -0.8847 0.3979 -0.2426
vn -0.7017 0.6773 0.2208
vn -0.2036 0.9567 0.2078
vn 0.1115 0.9567 -0.2687
vn -0.3135 -0.5008 -0.8067
vn -0.8651 -0.5008 0.0273
vn -0.5448 -0.0118 0.8385
vn 0.5583 -0.0118 -0.8296
vn 0.8786 0.4772 -0.0183
vn 0.3270 0.4772 0.8156
vn 0.4710 -0.8253 0.3115
vn -0.5462 -0.5783 0.6060
vn -0.5331 0.5760 0.6197
vn -0.6125 0.5779 -0.5393
vn -0.6129 -0.5771 -0.5397
vn 0.5387 0.5773 -0.6135
vn 0.5387 -0.5773 -0.6135
vn 0.6166 0.5714 0.5415
vn 0.6104 -0.5832 0.5360
vn 0.9172 -0.3281 -0.2261
vn 0.7860 -0.3281 0.5239
vn 0.7942 -0.0340 0.6067
vn 0.9529 -0.0340 -0.3012
vn 0.1258 -0.5934 0.7949
vn -0.4032 -0.8588 0.3160
vn -0.6453 -0.6764 0.3550
vn -0.0049 -0.3552 0.9348
vn -0.2720 -0.8588 -0.4340
vn 0.3881 -0.5934 -0.7051
vn 0.3126 -0.3552 -0.8810
vn -0.4866 -0.6764 -0.5529
vn 0.4237 -0.7513 -0.5058
vn 0.8207 -0.5522 -0.1465
vn 0.7223 -0.5522 0.4163
vn 0.2269 -0.7513 0.6196
vn -0.1700 -0.9504 0.2602
vn -0.0716 -0.9504 -0.3025
vn 0.8613 0.3616 -0.3569
vn 0.6891 0.3616 0.6280
vn -0.1779 0.0131 0.9839
vn 0.1665 0.0131 -0.9859
vn -0.7004 -0.3354 -0.6300
vn -0.8726 -0.3354 0.3549
vn -0.3964 0.9154 -0.0693
vn -0.7652 -0.5669 0.3050
vn -0.6752 0.5692 0.4691
vn -0.3399 0.6911 -0.6378
vn -0.4239 -0.4546 -0.7833
vn 0.7608 0.5675 -0.3148
vn 0.6781 -0.5719 -0.4617
vn 0.4262 0.4485 0.7856
vn 0.3386 -0.6957 0.6335
vn 0.9604 0.2529 -0.1163
vn 0.6228 0.6565 0.4256
vn 0.1759 0.3081 0.9349
vn 0.0748 -0.4331 0.8982
vn 0.4191 -0.8361 0.3539
vn 0.8612 -0.4847 -0.1530
vn -0.2407 0.5169 0.8215
vn 0.2161 0.9753 0.0458
vn 0.1088 0.9940 0.0104
vn -0.1827 0.5058 0.8430
vn -0.3663 -0.5027 0.7830
vn -0.0187 -0.9993 -0.0329
vn 0.4015 -0.4999 -0.7674
vn 0.5117 0.4571 -0.7274
vn -0.2862 -0.5099 0.8112
vn -0.1596 0.5004 0.8509
vn -0.2459 -0.5127 0.8226
vn -0.0928 -0.9941 -0.0561
vn 0.1928 -0.4819 -0.8548
vn 0.2912 0.4922 -0.8203
vn -0.1856 -0.9799 -0.0727
vn -0.6468 -0.3473 0.6789
vn -0.7138 -0.6999 0.0220
vn -0.0268 -0.4537 -0.8907
vn -0.0133 0.9998 -0.0127
vn 0.0584 0.5094 -0.8585
vn -0.6836 0.4345 -0.5864
vn -0.7331 -0.3006 -0.6100
vn -0.5964 0.3889 0.7021
vn -0.6127 0.7875 0.0662
s 1
f 11/1/1 10/2/2 4/3/3 5/4/4
f 9/5/5 8/6/6 2/7/7 3/8/8
f 7/9/9 12/10/10 6/11/11 1/12/12
f 12/10/10 11/1/1 5/4/4 6/11/11
f 10/2/2 9/13/5 3/14/8 4/3/3
f 6/15/11 5/16/4 4/17/3 3/18/8 2/19/7 1/20/12
f 18/21/13 17/22/14 11/23/1 12/24/10
f 16/25/15 15/26/16 9/27/5 10/28/2
f 14/29/17 13/30/18 7/31/9 8/32/6
f 17/22/14 16/25/15 10/28/2 11/23/1
f 15/33/16 14/29/17 8/32/6 9/34/5
f 8/6/6 7/9/9 1/12/12 2/7/7
f 24/35/19 23/36/20 16/25/15 17/22/14
f 23/36/20 22/37/21 15/26/16 16/25/15
f 25/38/22 24/35/19 17/22/14 18/21/13
f 19/39/23 25/38/22 18/21/13 13/30/18
f 22/40/21 20/41/24 14/29/17 15/33/16
f 13/30/18 18/21/13 12/24/10 7/31/9
f 20/41/24 19/39/23 13/30/18 14/29/17
f 19/39/23 21/42/25 25/38/22
f 20/41/24 21/42/25 19/39/23
f 22/40/21 21/42/25 20/41/24
f 23/36/20 21/42/25 22/37/21
f 24/35/19 21/42/25 23/36/20
f 25/38/22 21/42/25 24/35/19
f 26/43/26 30/44/27 27/45/28
f 27/45/28 30/44/27 28/46/29
f 28/46/29 30/44/27 29/47/30
f 29/48/30 30/44/27 31/49/31
f 31/49/31 30/44/27 32/50/32
f 32/50/32 30/44/27 26/43/26
f 31/49/31 32/50/32 38/51/33 37/52/34
f 38/51/33 33/53/35 39/54/36 44/55/37
f 29/48/30 31/49/31 37/52/34 36/56/38
f 32/50/32 26/43/26 33/53/35 38/51/33
f 26/43/26 27/45/28 34/57/39 33/53/35
f 28/46/29 29/47/30 36/58/38 35/59/40
f 27/45/28 28/46/29 35/59/40 34/57/39
f 43/60/41 44/61/37 50/62/42 49/63/43
f 36/56/38 37/52/34 43/64/41 42/65/44
f 34/57/39 35/59/40 41/66/45 40/67/46
f 37/52/34 38/51/33 44/55/37 43/64/41
f 35/59/40 36/58/38 42/68/44 41/66/45
f 33/53/35 34/57/39 40/67/46 39/54/36
f 45/69/47 46/70/48 47/71/49 48/72/50 49/73/43 50/74/42
f 41/75/45 42/76/44 48/77/50 47/78/49
f 39/79/36 40/80/46 46/81/48 45/82/47
f 44/61/37 39/79/36 45/82/47 50/62/42
f 42/83/44 43/60/41 49/63/43 48/84/50
f 40/80/46 41/75/45 47/78/49 46/81/48
f 51/85/51 55/86/52 52/87/53
f 52/87/53 55/86/52 53/88/54
f 53/88/54 55/86/52 54/89/55
f 54/90/55 55/86/52 56/91/56
f 56/91/56 55/86/52 57/92/57
f 57/92/57 55/86/52 51/85/51
f 56/91/56 57/92/57 63/93/58 62/94/59
f 63/93/58 58/95/60 64/96/61 69/97/62
f 54/90/55 56/91/56 62/94/59 61/98/63
f 57/92/57 51/85/51 58/95/60 63/93/58
f 51/85/51 52/87/53 59/99/64 58/95/60
f 53/88/54 54/89/55 61/100/63 60/101/65
f 52/87/53 53/88/54 60/101/65 59/99/64
f 68/102/66 69/103/62 75/104/67 74/105/68
f 61/98/63 62/94/59 68/106/66 67/107/69
f 59/99/64 60/101/65 66/108/70 65/109/71
f 62/94/59 63/93/58 69/97/62 68/106/66
f 60/101/65 61/100/63 67/110/69 66/108/70
f 58/95/60 59/99/64 65/109/71 64/96/61
f 70/111/72 71/112/73 72/113/74 73/114/75 74/115/68 75/116/67
f 66/117/70 67/118/69 73/119/75 72/120/74
f 64/121/61 65/122/71 71/123/73 70/124/72
f 69/103/62 64/121/61 70/124/72 75/104/67
f 67/125/69 68/102/66 74/105/68 73/126/75
f 65/122/71 66/117/70 72/120/74 71/123/73
f 86/127/76 85/128/77 79/129/78 80/130/79
f 84/131/80 83/132/81 77/133/82 78/134/83
f 82/135/84 87/136/85 81/137/86 76/138/87
f 87/136/85 86/127/76 80/130/79 81/137/86
f 85/128/77 84/139/80 78/140/83 79/129/78
f 81/141/86 80/142/79 79/143/78 78/144/83 77/145/82 76/146/87
f 93/147/88 92/148/89 86/149/76 87/150/85
f 91/151/90 90/152/91 84/153/80 85/154/77
f 89/155/92 88/156/93 82/157/84 83/158/81
f 92/148/89 91/151/90 85/154/77 86/149/76
f 90/159/91 89/155/92 83/158/81 84/160/80
f 83/132/81 82/135/84 76/138/87 77/133/82
f 99/161/94 98/162/95 91/151/90 92/148/89
f 98/162/95 97/163/96 90/152/91 91/151/90
f 100/164/97 99/161/94 92/148/89 93/147/88
f 94/165/98 100/164/97 93/147/88 88/156/93
f 97/166/96 95/167/99 89/155/92 90/159/91
f 88/156/93 93/147/88 87/150/85 82/157/84
f 95/167/99 94/165/98 88/156/93 89/155/92
f 94/165/98 96/168/100 100/164/97
f 95/167/99 96/168/100 94/165/98
f 97/166/96 96/168/100 95/167/99
f 98/162/95 96/168/100 97/163/96
f 99/161/94 96/168/100 98/162/95
f 100/164/97 96/168/100 99/161/94
f 101/169/101 102/170/102 104/171/103 103/172/104
f 103/173/104 104/174/103 108/175/105 107/176/106
f 107/177/106 108/178/105 106/179/107 105/180/108
f 105/181/108 106/182/107 102/183/102 101/184/101
f 103/173/104 107/176/106 105/181/108 101/184/101
f 108/175/105 104/174/103 102/185/102 106/186/107
f 119/187/109 118/188/110 112/189/111 113/190/112
f 117/191/113 116/192/114 110/193/115 111/194/116
f 115/195/117 120/196/118 114/197/119 109/198/120
f 120/196/118 119/187/109 113/190/112 114/197/119
f 118/188/110 117/199/113 111/200/116 112/189/111
f 114/201/119 113/202/112 112/203/111 111/204/116 110/205/115 109/206/120
f 126/207/121 125/208/122 119/209/109 120/210/118
f 124/211/123 123/212/124 117/213/113 118/214/110
f 122/215/125 121/216/126 115/217/117 116/218/114
f 125/208/122 124/211/123 118/214/110 119/209/109
f 123/219/124 122/215/125 116/218/114 117/220/113
f 116/192/114 115/195/117 109/198/120 110/193/115
f 132/221/127 131/222/128 124/211/123 125/208/122
f 131/222/128 130/223/129 123/212/124 124/211/123
f 133/224/130 132/221/127 125/208/122 126/207/121
f 127/225/131 133/224/130 126/207/121 121/216/126
f 130/226/129 128/227/132 122/215/125 123/219/124
f 121/216/126 126/207/121 120/210/118 115/217/117
f 128/227/132 127/225/131 121/216/126 122/215/125
f 127/225/131 129/228/133 133/224/130
f 128/227/132 129/228/133 127/225/131
f 130/226/129 129/228/133 128/227/132
f 131/222/128 129/228/133 130/223/129
f 132/221/127 129/228/133 131/222/128
f 133/224/130 129/228/133 132/221/127
f 134/229/134 135/230/135 137/231/136 136/232/137
f 136/233/137 137/234/136 141/235/138 140/236/139
f 140/237/139 141/238/138 139/239/140 138/240/141
f 138/241/141 139/242/140 135/243/135 134/244/134
f 136/233/137 140/236/139 138/241/141 134/244/134
f 141/235/138 137/234/136 135/245/135 139/246/140
f 142/247/142 147/248/143 146/249/144 145/250/145 144/251/146 143/252/147
f 152/253/148 153/254/149 159/255/150 158/256/151
f 146/257/144 147/258/143 153/254/149 152/253/148
f 144/259/146 145/260/145 151/261/152 150/262/153
f 142/263/142 143/264/147 149/265/154 148/266/155
f 147/258/143 142/263/142 148/266/155 153/254/149
f 145/267/145 146/257/144 152/253/148 151/268/152
f 143/264/147 144/259/146 150/262/153 149/265/154
f 157/269/156 158/256/151 164/270/157 163/271/158
f 150/262/153 151/261/152 157/272/156 156/273/159
f 148/266/155 149/265/154 155/274/160 154/275/161
f 153/254/149 148/266/155 154/275/161 159/255/150
f 151/268/152 152/253/148 158/256/151 157/269/156
f 149/265/154 150/262/153 156/273/159 155/274/160
f 162/276/162 163/277/158 169/278/163 168/279/164
f 155/274/160 156/273/159 162/276/162 161/280/165
f 158/256/151 159/255/150 165/281/166 164/270/157
f 156/273/159 157/272/156 163/277/158 162/276/162
f 154/275/161 155/274/160 161/280/165 160/282/167
f 159/255/150 154/275/161 160/282/167 165/281/166
f 166/283/168 167/284/169 168/285/164 169/286/163 170/287/170 171/288/171
f 160/282/167 161/280/165 167/289/169 166/290/168
f 165/281/166 160/282/167 166/290/168 171/291/171
f 163/271/158 164/270/157 170/292/170 169/293/163
f 161/280/165 162/276/162 168/279/164 167/289/169
f 164/270/157 165/281/166 171/291/171 170/292/170
