# Blender v2.79 (sub 0) OBJ File: 'waffel.blend'
# www.blender.org
mtllib waffel.mtl
o Rand_Plane.001
v -2.000000 0.000000 2.000000
v -1.400000 1.500000 1.400000
v -2.000000 0.000000 -9.200000
v 11.599999 0.000000 -9.200000
v 11.599999 0.000000 2.000000
v 10.999999 1.500000 -8.599999
v 10.999999 1.500000 1.400000
v 10.599999 1.500000 1.000000
v -1.000000 1.500000 1.000000
v 1.000000 1.500000 1.000000
v -1.000000 1.500000 -1.000000
v 1.000000 1.500000 -1.000000
v -0.600000 0.500000 0.600000
v 0.600000 0.500000 0.600000
v -0.600000 0.500000 -0.600000
v 0.600000 0.500000 -0.600000
v -1.000000 1.500000 -1.400000
v 1.400000 1.500000 1.000000
v 1.400000 1.500000 -1.000000
v 3.400000 1.500000 -1.000000
v 1.800000 0.500000 0.600000
v 3.000000 0.500000 0.600000
v 1.800000 0.500000 -0.600000
v 3.000000 0.500000 -0.600000
v 3.400000 1.500000 -1.400000
v 3.800000 1.500000 1.000000
v 3.800000 1.500000 -1.000000
v 5.800000 1.500000 -1.000000
v 4.200000 0.500000 0.600000
v 5.400000 0.500000 0.600000
v 4.200000 0.500000 -0.600000
v 5.400000 0.500000 -0.600000
v 3.400000 1.500000 1.000000
v 3.800000 1.500000 -1.400000
v 6.200000 1.500000 1.000000
v 6.200000 1.500000 -1.000000
v 6.600000 0.500000 0.600000
v 7.800000 0.500000 0.600000
v 6.600000 0.500000 -0.600000
v 7.800000 0.500000 -0.600000
v 5.800000 1.500000 1.000000
v 8.200001 1.500000 -1.400000
v 6.200000 1.500000 -1.400000
v 8.600000 1.500000 1.000000
v 8.600000 1.500000 -1.000000
v 10.600000 1.500000 -1.000000
v 9.000000 0.500000 0.600000
v 10.200001 0.500000 0.600000
v 9.000000 0.500000 -0.600000
v 10.200001 0.500000 -0.600000
v 8.200001 1.500000 1.000000
v 8.200001 1.500000 -1.000000
v 10.600000 1.500000 -1.400000
v 8.600000 1.500000 -1.400000
v 1.000000 1.500000 -1.400000
v -1.000000 1.500000 -3.400000
v 1.000000 1.500000 -3.400000
v -0.600000 0.500000 -1.800000
v 0.600000 0.500000 -1.800000
v -0.600000 0.500000 -3.000000
v 0.600000 0.500000 -3.000000
v -1.000000 1.500000 -3.800000
v 1.400000 1.500000 -1.400000
v 1.400000 1.500000 -3.400000
v 1.800000 0.500000 -1.800000
v 3.000000 0.500000 -1.800000
v 1.800000 0.500000 -3.000000
v 3.000000 0.500000 -3.000000
v 3.400000 1.500000 -3.800000
v 1.400000 1.500000 -3.800000
v 1.000000 1.500000 -3.800000
v 3.800000 1.500000 -3.400000
v 4.200000 0.500000 -1.800000
v 5.400000 0.500000 -1.800000
v 4.200000 0.500000 -3.000000
v 5.400000 0.500000 -3.000000
v 3.400000 1.500000 -3.400000
v 6.200000 1.500000 -3.400000
v 6.600000 0.500000 -1.800000
v 7.800000 0.500000 -1.800000
v 6.600000 0.500000 -3.000000
v 7.800000 0.500000 -3.000000
v 5.800000 1.500000 -1.400000
v 5.800000 1.500000 -3.400000
v 8.600000 1.500000 -3.400000
v 10.600000 1.500000 -3.400000
v 9.000000 0.500000 -1.800000
v 10.200001 0.500000 -1.800000
v 9.000000 0.500000 -3.000000
v 10.200001 0.500000 -3.000000
v 8.200001 1.500000 -3.400000
v 10.600000 1.500000 -3.800000
v 8.600000 1.500000 -3.800000
v 8.200001 1.500000 -3.800000
v -1.000000 1.500000 -5.800000
v -0.600000 0.500000 -4.200000
v 0.600000 0.500000 -4.200000
v -0.600000 0.500000 -5.400000
v 0.600000 0.500000 -5.400000
v -1.000000 1.500000 -6.200000
v 1.400000 1.500000 -5.800000
v 1.800000 0.500000 -4.200000
v 3.000000 0.500000 -4.200000
v 1.800000 0.500000 -5.400000
v 3.000000 0.500000 -5.400000
v 1.000000 1.500000 -5.800000
v 1.400000 1.500000 -6.200000
v 1.000000 1.500000 -6.200000
v 3.800000 1.500000 -3.800000
v 3.800000 1.500000 -5.800000
v 4.200000 0.500000 -4.200000
v 5.400000 0.500000 -4.200000
v 4.200000 0.500000 -5.400000
v 5.400000 0.500000 -5.400000
v 3.400000 1.500000 -5.800000
v 5.800000 1.500000 -6.200000
v 6.200000 1.500000 -3.800000
v 6.200000 1.500000 -5.800000
v 6.600000 0.500000 -4.200000
v 7.800000 0.500000 -4.200000
v 6.600000 0.500000 -5.400000
v 7.800000 0.500000 -5.400000
v 5.800000 1.500000 -3.800000
v 5.800000 1.500000 -5.800000
v 8.200001 1.500000 -6.200000
v 6.200000 1.500000 -6.200000
v 8.600000 1.500000 -5.800000
v 10.600000 1.500000 -5.800000
v 9.000000 0.500000 -4.200000
v 10.200001 0.500000 -4.200000
v 9.000000 0.500000 -5.400000
v 10.200001 0.500000 -5.400000
v 8.200001 1.500000 -5.800000
v 10.600000 1.500000 -6.200000
v -1.000000 1.500000 -8.200001
v -0.600000 0.500000 -6.600000
v 0.600000 0.500000 -6.600000
v -0.600000 0.500000 -7.800000
v 0.600000 0.500000 -7.800000
v -1.400000 1.500000 -8.600000
v 1.400000 1.500000 -8.200001
v 1.800000 0.500000 -6.600000
v 3.000000 0.500000 -6.600000
v 1.800000 0.500000 -7.800000
v 3.000000 0.500000 -7.800000
v 1.000000 1.500000 -8.200001
v 3.800000 1.500000 -6.200000
v 3.800000 1.500000 -8.200001
v 5.800000 1.500000 -8.200001
v 4.200000 0.500000 -6.600000
v 5.400000 0.500000 -6.600000
v 4.200000 0.500000 -7.800000
v 5.400000 0.500000 -7.800000
v 3.400000 1.500000 -6.200000
v 3.400000 1.500000 -8.200001
v 6.200000 1.500000 -8.200001
v 6.600000 0.500000 -6.600000
v 7.800000 0.500000 -6.600000
v 6.600000 0.500000 -7.800000
v 7.800000 0.500000 -7.800000
v 8.600000 1.500000 -6.200000
v 8.600000 1.500000 -8.200001
v 10.600000 1.500000 -8.200001
v 9.000000 0.500000 -6.600000
v 10.200001 0.500000 -6.600000
v 9.000000 0.500000 -7.800000
v 10.200001 0.500000 -7.800000
v 8.200001 1.500000 -8.200001
vt 0.012056 0.986226
vt 0.012056 0.432641
vt 0.041712 0.462298
vt 0.041712 0.956570
vt 0.495891 0.010767
vt 0.495891 0.415975
vt 0.987930 0.415975
vt 0.987930 0.010767
vt 0.684265 0.432641
vt 0.684265 0.986226
vt 0.654609 0.956570
vt 0.654609 0.462298
vt 0.634838 0.936799
vt 0.634838 0.837945
vt 0.634838 0.818174
vt 0.634838 0.719319
vt 0.634838 0.699548
vt 0.634838 0.600694
vt 0.634838 0.580923
vt 0.634838 0.482069
vt 0.535984 0.482069
vt 0.516213 0.482069
vt 0.417359 0.482069
vt 0.397588 0.482069
vt 0.298733 0.482069
vt 0.278962 0.482069
vt 0.180108 0.482069
vt 0.160337 0.482069
vt 0.061483 0.482069
vt 0.081254 0.501840
vt 0.140566 0.501840
vt 0.140566 0.561152
vt 0.081254 0.561152
vt 0.160337 0.580923
vt 0.061483 0.580923
vt 0.160337 0.600694
vt 0.061483 0.600694
vt 0.180108 0.580923
vt 0.199879 0.501840
vt 0.259191 0.501840
vt 0.259191 0.561152
vt 0.199879 0.561152
vt 0.278962 0.580923
vt 0.278962 0.600694
vt 0.180108 0.600694
vt 0.298733 0.580923
vt 0.318504 0.501840
vt 0.377817 0.501840
vt 0.377817 0.561152
vt 0.318504 0.561152
vt 0.397588 0.580923
vt 0.397588 0.600694
vt 0.298733 0.600694
vt 0.417359 0.580923
vt 0.437129 0.501840
vt 0.496442 0.501840
vt 0.496442 0.561152
vt 0.437129 0.561152
vt 0.516213 0.580923
vt 0.516213 0.600694
vt 0.417359 0.600694
vt 0.535984 0.580923
vt 0.555755 0.501840
vt 0.615067 0.501840
vt 0.615067 0.561152
vt 0.555755 0.561152
vt 0.535984 0.600694
vt 0.081254 0.620465
vt 0.140566 0.620465
vt 0.140566 0.679777
vt 0.081254 0.679777
vt 0.160337 0.699548
vt 0.061483 0.699548
vt 0.160337 0.719319
vt 0.061483 0.719319
vt 0.180108 0.699548
vt 0.199879 0.620465
vt 0.259191 0.620465
vt 0.259191 0.679777
vt 0.199879 0.679777
vt 0.278962 0.699548
vt 0.278962 0.719319
vt 0.180108 0.719319
vt 0.298733 0.699548
vt 0.318504 0.620465
vt 0.377817 0.620465
vt 0.377817 0.679777
vt 0.318504 0.679777
vt 0.397588 0.699548
vt 0.397588 0.719319
vt 0.298733 0.719319
vt 0.417359 0.699548
vt 0.437129 0.620465
vt 0.496442 0.620465
vt 0.496442 0.679777
vt 0.437129 0.679777
vt 0.516213 0.699548
vt 0.516213 0.719319
vt 0.417359 0.719319
vt 0.535984 0.699548
vt 0.555755 0.620465
vt 0.615067 0.620465
vt 0.615067 0.679777
vt 0.555755 0.679777
vt 0.535984 0.719319
vt 0.081254 0.739090
vt 0.140566 0.739090
vt 0.140566 0.798403
vt 0.081254 0.798403
vt 0.160337 0.818174
vt 0.061483 0.818174
vt 0.160337 0.837945
vt 0.061483 0.837945
vt 0.061483 0.936799
vt 0.180108 0.818174
vt 0.199879 0.739090
vt 0.259191 0.739090
vt 0.259191 0.798403
vt 0.199879 0.798403
vt 0.278962 0.818174
vt 0.278962 0.837945
vt 0.180108 0.837945
vt 0.298733 0.818174
vt 0.318504 0.739090
vt 0.377817 0.739090
vt 0.377817 0.798403
vt 0.318504 0.798403
vt 0.397588 0.818174
vt 0.397588 0.837945
vt 0.298733 0.837945
vt 0.417359 0.818174
vt 0.437129 0.739090
vt 0.496442 0.739090
vt 0.496442 0.798403
vt 0.437129 0.798403
vt 0.516213 0.818174
vt 0.516213 0.837945
vt 0.417359 0.837945
vt 0.535984 0.818174
vt 0.555755 0.739090
vt 0.615067 0.739090
vt 0.615067 0.798403
vt 0.555755 0.798403
vt 0.535984 0.837945
vt 0.081254 0.857715
vt 0.140566 0.857715
vt 0.140566 0.917028
vt 0.081254 0.917028
vt 0.160337 0.936799
vt 0.180108 0.936799
vt 0.199879 0.857715
vt 0.259191 0.857715
vt 0.259191 0.917028
vt 0.199879 0.917028
vt 0.278962 0.936799
vt 0.298733 0.936799
vt 0.318504 0.857715
vt 0.377817 0.857715
vt 0.377817 0.917028
vt 0.318504 0.917028
vt 0.397588 0.936799
vt 0.417359 0.936799
vt 0.437129 0.857715
vt 0.496442 0.857715
vt 0.496442 0.917028
vt 0.437129 0.917028
vt 0.516213 0.936799
vt 0.535984 0.936799
vt 0.555755 0.857715
vt 0.615067 0.857715
vt 0.615067 0.917028
vt 0.555755 0.917028
vn -0.6522 -0.3862 -0.6522
vn -0.6522 -0.3862 0.6522
vn -0.4556 0.7647 0.4556
vn -0.4556 0.7647 -0.4556
vn 0.6522 -0.3862 -0.6522
vn 0.6522 -0.3862 0.6522
vn 0.4556 0.7647 -0.4556
vn 0.4556 0.7647 0.4556
vn -0.1933 0.9619 0.1933
vn -0.1933 0.9619 -0.1933
vn 0.1933 0.9619 -0.1933
vn 0.1933 0.9619 0.1933
usemtl Waffel
s 1
f 3/1/1 1/2/2 2/3/3 140/4/4
f 1/5/2 3/6/1 4/7/5 5/8/6
f 5/9/6 4/10/5 6/11/7 7/12/8
f 6/11/7 163/13/9 134/14/10 128/15/9 92/16/10 86/17/9 53/18/10 46/19/9 8/20/10 7/12/8
f 3/1/1 140/4/4 6/11/7 4/10/5
f 1/2/2 5/9/6 7/12/8 2/3/3
f 8/20/10 44/21/11 51/22/10 35/23/11 41/24/10 26/25/11 33/26/10 18/27/11 10/28/10 9/29/11 2/3/3 7/12/8
f 13/30/7 14/31/4 16/32/3 15/33/8
f 12/34/9 11/35/12 15/33/8 16/32/3
f 9/29/11 10/28/10 14/31/4 13/30/7
f 10/28/10 12/34/9 16/32/3 14/31/4
f 11/35/12 9/29/11 13/30/7 15/33/8
f 11/35/12 12/34/9 55/36/10 17/37/11
f 18/27/11 19/38/12 12/34/9 10/28/10
f 21/39/7 22/40/4 24/41/3 23/42/8
f 20/43/9 19/38/12 23/42/8 24/41/3
f 18/27/11 33/26/10 22/40/4 21/39/7
f 33/26/10 20/43/9 24/41/3 22/40/4
f 19/38/12 18/27/11 21/39/7 23/42/8
f 19/38/12 20/43/9 25/44/10 63/45/11
f 12/34/9 19/38/12 63/45/11 55/36/10
f 26/25/11 27/46/12 20/43/9 33/26/10
f 29/47/7 30/48/4 32/49/3 31/50/8
f 28/51/9 27/46/12 31/50/8 32/49/3
f 26/25/11 41/24/10 30/48/4 29/47/7
f 41/24/10 28/51/9 32/49/3 30/48/4
f 27/46/12 26/25/11 29/47/7 31/50/8
f 27/46/12 28/51/9 83/52/10 34/53/11
f 20/43/9 27/46/12 34/53/11 25/44/10
f 35/23/11 36/54/12 28/51/9 41/24/10
f 37/55/7 38/56/4 40/57/3 39/58/8
f 52/59/9 36/54/12 39/58/8 40/57/3
f 35/23/11 51/22/10 38/56/4 37/55/7
f 51/22/10 52/59/9 40/57/3 38/56/4
f 36/54/12 35/23/11 37/55/7 39/58/8
f 36/54/12 52/59/9 42/60/10 43/61/11
f 28/51/9 36/54/12 43/61/11 83/52/10
f 44/21/11 45/62/12 52/59/9 51/22/10
f 47/63/7 48/64/4 50/65/3 49/66/8
f 46/19/9 45/62/12 49/66/8 50/65/3
f 44/21/11 8/20/10 48/64/4 47/63/7
f 8/20/10 46/19/9 50/65/3 48/64/4
f 45/62/12 44/21/11 47/63/7 49/66/8
f 45/62/12 46/19/9 53/18/10 54/67/11
f 52/59/9 45/62/12 54/67/11 42/60/10
f 58/68/7 59/69/4 61/70/3 60/71/8
f 57/72/9 56/73/12 60/71/8 61/70/3
f 17/37/11 55/36/10 59/69/4 58/68/7
f 55/36/10 57/72/9 61/70/3 59/69/4
f 56/73/12 17/37/11 58/68/7 60/71/8
f 56/73/12 57/72/9 71/74/10 62/75/11
f 63/45/11 64/76/12 57/72/9 55/36/10
f 65/77/7 66/78/4 68/79/3 67/80/8
f 77/81/9 64/76/12 67/80/8 68/79/3
f 63/45/11 25/44/10 66/78/4 65/77/7
f 25/44/10 77/81/9 68/79/3 66/78/4
f 64/76/12 63/45/11 65/77/7 67/80/8
f 64/76/12 77/81/9 69/82/10 70/83/11
f 57/72/9 64/76/12 70/83/11 71/74/10
f 34/53/11 72/84/12 77/81/9 25/44/10
f 73/85/7 74/86/4 76/87/3 75/88/8
f 84/89/9 72/84/12 75/88/8 76/87/3
f 34/53/11 83/52/10 74/86/4 73/85/7
f 83/52/10 84/89/9 76/87/3 74/86/4
f 72/84/12 34/53/11 73/85/7 75/88/8
f 72/84/12 84/89/9 123/90/10 109/91/11
f 77/81/9 72/84/12 109/91/11 69/82/10
f 43/61/11 78/92/12 84/89/9 83/52/10
f 79/93/7 80/94/4 82/95/3 81/96/8
f 91/97/9 78/92/12 81/96/8 82/95/3
f 43/61/11 42/60/10 80/94/4 79/93/7
f 42/60/10 91/97/9 82/95/3 80/94/4
f 78/92/12 43/61/11 79/93/7 81/96/8
f 78/92/12 91/97/9 94/98/10 117/99/11
f 84/89/9 78/92/12 117/99/11 123/90/10
f 54/67/11 85/100/12 91/97/9 42/60/10
f 87/101/7 88/102/4 90/103/3 89/104/8
f 86/17/9 85/100/12 89/104/8 90/103/3
f 54/67/11 53/18/10 88/102/4 87/101/7
f 53/18/10 86/17/9 90/103/3 88/102/4
f 85/100/12 54/67/11 87/101/7 89/104/8
f 85/100/12 86/17/9 92/16/10 93/105/11
f 91/97/9 85/100/12 93/105/11 94/98/10
f 96/106/7 97/107/4 99/108/3 98/109/8
f 106/110/9 95/111/12 98/109/8 99/108/3
f 62/75/11 71/74/10 97/107/4 96/106/7
f 71/74/10 106/110/9 99/108/3 97/107/4
f 95/111/12 62/75/11 96/106/7 98/109/8
f 95/111/12 106/110/9 108/112/10 100/113/11
f 9/29/11 11/35/12 17/37/11 56/73/12 62/75/11 95/111/12 100/113/11 135/114/12 140/4/4 2/3/3
f 70/83/11 101/115/12 106/110/9 71/74/10
f 102/116/7 103/117/4 105/118/3 104/119/8
f 115/120/9 101/115/12 104/119/8 105/118/3
f 70/83/11 69/82/10 103/117/4 102/116/7
f 69/82/10 115/120/9 105/118/3 103/117/4
f 101/115/12 70/83/11 102/116/7 104/119/8
f 101/115/12 115/120/9 154/121/10 107/122/11
f 106/110/9 101/115/12 107/122/11 108/112/10
f 109/91/11 110/123/12 115/120/9 69/82/10
f 111/124/7 112/125/4 114/126/3 113/127/8
f 124/128/9 110/123/12 113/127/8 114/126/3
f 109/91/11 123/90/10 112/125/4 111/124/7
f 123/90/10 124/128/9 114/126/3 112/125/4
f 110/123/12 109/91/11 111/124/7 113/127/8
f 110/123/12 124/128/9 116/129/10 147/130/11
f 115/120/9 110/123/12 147/130/11 154/121/10
f 117/99/11 118/131/12 124/128/9 123/90/10
f 119/132/7 120/133/4 122/134/3 121/135/8
f 133/136/9 118/131/12 121/135/8 122/134/3
f 117/99/11 94/98/10 120/133/4 119/132/7
f 94/98/10 133/136/9 122/134/3 120/133/4
f 118/131/12 117/99/11 119/132/7 121/135/8
f 118/131/12 133/136/9 125/137/10 126/138/11
f 124/128/9 118/131/12 126/138/11 116/129/10
f 93/105/11 127/139/12 133/136/9 94/98/10
f 129/140/7 130/141/4 132/142/3 131/143/8
f 128/15/9 127/139/12 131/143/8 132/142/3
f 93/105/11 92/16/10 130/141/4 129/140/7
f 92/16/10 128/15/9 132/142/3 130/141/4
f 127/139/12 93/105/11 129/140/7 131/143/8
f 127/139/12 128/15/9 134/14/10 161/144/11
f 133/136/9 127/139/12 161/144/11 125/137/10
f 136/145/7 137/146/4 139/147/3 138/148/8
f 146/149/9 135/114/12 138/148/8 139/147/3
f 100/113/11 108/112/10 137/146/4 136/145/7
f 108/112/10 146/149/9 139/147/3 137/146/4
f 135/114/12 100/113/11 136/145/7 138/148/8
f 107/122/11 141/150/12 146/149/9 108/112/10
f 142/151/7 143/152/4 145/153/3 144/154/8
f 155/155/9 141/150/12 144/154/8 145/153/3
f 107/122/11 154/121/10 143/152/4 142/151/7
f 154/121/10 155/155/9 145/153/3 143/152/4
f 141/150/12 107/122/11 142/151/7 144/154/8
f 147/130/11 148/156/12 155/155/9 154/121/10
f 150/157/7 151/158/4 153/159/3 152/160/8
f 149/161/9 148/156/12 152/160/8 153/159/3
f 147/130/11 116/129/10 151/158/4 150/157/7
f 116/129/10 149/161/9 153/159/3 151/158/4
f 148/156/12 147/130/11 150/157/7 152/160/8
f 126/138/11 156/162/12 149/161/9 116/129/10
f 157/163/7 158/164/4 160/165/3 159/166/8
f 168/167/9 156/162/12 159/166/8 160/165/3
f 126/138/11 125/137/10 158/164/4 157/163/7
f 125/137/10 168/167/9 160/165/3 158/164/4
f 156/162/12 126/138/11 157/163/7 159/166/8
f 161/144/11 162/168/12 168/167/9 125/137/10
f 164/169/7 165/170/4 167/171/3 166/172/8
f 163/13/9 162/168/12 166/172/8 167/171/3
f 161/144/11 134/14/10 165/170/4 164/169/7
f 134/14/10 163/13/9 167/171/3 165/170/4
f 162/168/12 161/144/11 164/169/7 166/172/8
f 135/114/12 146/149/9 141/150/12 155/155/9 148/156/12 149/161/9 156/162/12 168/167/9 162/168/12 163/13/9 6/11/7 140/4/4
